<svg xmlns="http://www.w3.org/2000/svg" width="103.584" height="100" viewBox="0 0 103.584 100">
  <g id="Group_292" data-name="Group 292" transform="translate(-297 -2353)">
    <path id="Path_52" data-name="Path 52" d="M884.836,191.768c-20.87,12.588-18.22,23.188-33.126,15.569s-40.745-14.244-30.476,23.188,43.4,90.1,83.81,33.126S905.706,179.18,884.836,191.768Z" transform="translate(-521.885 2164.24)" fill="#ffd7e9"/>
    <g id="vote_1_" data-name="vote (1)" transform="translate(325 2391.8)">
      <path id="Path_17" data-name="Path 17" d="M284.709,136.772a11.166,11.166,0,1,0,11.166,11.166A11.2,11.2,0,0,0,284.709,136.772ZM289.764,151a1.407,1.407,0,0,1-1.99,1.99l-3.065-3.065-3.064,3.065a1.407,1.407,0,0,1-1.99-1.99l3.065-3.065-3.065-3.065a1.407,1.407,0,0,1,1.99-1.99l3.064,3.065,3.065-3.065a1.407,1.407,0,0,1,1.99,1.99l-3.065,3.065Z" transform="translate(-247.875 -136.772)" fill="#fc3990"/>
      <path id="Path_18" data-name="Path 18" d="M11.96,151.117a1.407,1.407,0,0,1-1.99,0l-2.979-2.979a1.407,1.407,0,0,1,1.99-1.99l1.984,1.984,8.084-8.084a11.164,11.164,0,1,0,1.739,2.242Z" transform="translate(0 -136.773)" fill="#fc3990"/>
    </g>
  </g>
</svg>
