<svg xmlns="http://www.w3.org/2000/svg" width="103.584" height="100" viewBox="0 0 103.584 100">
  <g id="Group_334" data-name="Group 334" transform="translate(-503 -3101)">
    <path id="Path_52" data-name="Path 52" d="M884.836,191.768c-20.87,12.588-18.22,23.188-33.126,15.569s-40.745-14.244-30.476,23.188,43.4,90.1,83.81,33.126S905.706,179.18,884.836,191.768Z" transform="translate(-315.885 2912.24)" fill="#ffd7e9"/>
    <g id="_02-shop" data-name="02-shop" transform="translate(535 3131)">
      <g id="Glyph" transform="translate(0 0)">
        <path id="Path_112" data-name="Path 112" d="M39.993,32H0v1.667A3.333,3.333,0,0,0,3.333,37h5a3.333,3.333,0,0,0,3.333-3.333A3.333,3.333,0,0,0,15,37H25a3.333,3.333,0,0,0,3.333-3.333A3.333,3.333,0,0,0,31.667,37h5A3.333,3.333,0,0,0,40,33.667V32Z" transform="translate(0 -18.667)" fill="#fc3990"/>
        <path id="Path_113" data-name="Path 113" d="M77.9,11.667,74.915,1.208A1.667,1.667,0,0,0,73.313,0H65.679l2.333,11.667Z" transform="translate(-38.313 0)" fill="#fc3990"/>
        <path id="Path_114" data-name="Path 114" d="M13.207,0H5.573a1.667,1.667,0,0,0-1.6,1.208L.983,11.667h9.891Z" transform="translate(-0.573 0)" fill="#fc3990"/>
        <path id="Path_115" data-name="Path 115" d="M43.146,0H35.212L32.879,11.667h12.6Z" transform="translate(-19.179 0)" fill="#fc3990"/>
        <path id="Path_116" data-name="Path 116" d="M34,46.213a4.98,4.98,0,0,1-3.333-1.276,4.98,4.98,0,0,1-3.333,1.276h-10A4.98,4.98,0,0,1,14,44.937a4.98,4.98,0,0,1-3.333,1.276h-5A4.967,4.967,0,0,1,4,45.922V64.547a1.667,1.667,0,0,0,1.667,1.667H9v-15a1.667,1.667,0,0,1,1.667-1.667H19a1.667,1.667,0,0,1,1.667,1.667v15H39a1.667,1.667,0,0,0,1.667-1.667V45.922A4.967,4.967,0,0,1,39,46.213Zm1.667,10A1.667,1.667,0,0,1,34,57.88H25.667A1.667,1.667,0,0,1,24,56.213v-5a1.667,1.667,0,0,1,1.667-1.667H34a1.667,1.667,0,0,1,1.667,1.667Z" transform="translate(-2.333 -26.213)" fill="#fc3990"/>
      </g>
    </g>
  </g>
</svg>
