<svg xmlns="http://www.w3.org/2000/svg" width="160.948" height="120" viewBox="0 0 160.948 120">
  <g id="Group_336" data-name="Group 336" transform="translate(-8042.021 -6876.365)">
    <path id="Path_123" data-name="Path 123" d="M156.967,116.984a4.77,4.77,0,0,0-4.682-.864c-5,1.464-9.5,4.768-12.673,11.376A11.357,11.357,0,0,0,139,136.75c-1.84,1.727-3.364,3.341-6.337,3.022a2.2,2.2,0,0,1-1.727-3.041l9.2-19.558h-5.6l-8.9,19.089a4.361,4.361,0,0,1-5.111,2.666,2.72,2.72,0,0,1-1.84-3.942l8.475-18.093h-4.777l-9.625,20.159c-1.9,4-6.04,2.459-4.7-.469l7.732-16.856c.631-1.408.5-3.359-1.879-3.791-1.9-.338-4.59.507-7.228,2.234l.576-1.183h-5.316l-8.622,16.987c-.966,1.615-4.664,4.674-7.1,4.2-1.951-.356-2.842-3.078-2.564-5.968a12.859,12.859,0,0,1,1.505-4.73,12.643,12.643,0,0,0,5.464-.281,11.53,11.53,0,0,0,4.738-3.229c2.267-2.365,2.974-5.463.818-7.132-1.376-1.07-3.9-1.408-6.933.169-2.713,1.407-5.928,5.838-7.025,7.4a11.137,11.137,0,0,1-1.505-.732,12.931,12.931,0,0,0,.409-4.994c-.241-1.877-.929-2.741-2.379-2.871-1.32-.094-2.546.92-3.085,2.853a8.113,8.113,0,0,0-.111,3,13.246,13.246,0,0,0,2.379,5.387,19.261,19.261,0,0,1-4.256,8.823,11.991,11.991,0,0,1-4.33,3.229,3.5,3.5,0,0,1-3.1-.206c-1.1-.563-1.431-1.858-.743-3.492l7.768-18.076-4.441.263L65.891,123.8l-7.452.018a48.844,48.844,0,0,1,6-13.421,32.379,32.379,0,0,1,7.025-7.959c3.066,4.861,10.61,6.251,15.981,5.612a18.8,18.8,0,0,0,9.33-3.773,25.131,25.131,0,0,0,5.407-6.513c.837-1.446,3.624-7.283,5.13-9.93h2.658l.631-1.388h-2.845c2.268-4.9,3.774-6.964,7.88-9.948a12.515,12.515,0,0,0,2.769.882,18.535,18.535,0,0,0,3.214.169,5.011,5.011,0,0,0,3.624-1.37,2.738,2.738,0,0,0,.372-2.966,5.357,5.357,0,0,0-4.2-2.665A9.288,9.288,0,0,0,118,70.81a32.993,32.993,0,0,0-4.851,2.046L110.787,71.3c1.692-2.215,1.747-6.288,2.119-9.347a23.012,23.012,0,0,1,1.71-6.251,14.007,14.007,0,0,1,4.943-5.18,16.373,16.373,0,0,0-5.687.356,17.814,17.814,0,0,0-9.681,6.063,44.007,44.007,0,0,0-5.8,9.2,12.042,12.042,0,0,0-6.933.713,5.266,5.266,0,0,0-.816-1.652,32.548,32.548,0,0,0,7.991-4.467,8.827,8.827,0,0,0,2.88-2.891,4.588,4.588,0,0,0,.353-4.035c-.761-1.614-2.434-2.309-4.682-1.952-2.434.319-3.661,1.22-5.835,2.778L98.8,39.236H93.413l-16.28,32.4a8.508,8.508,0,0,1-4.125,2.816c-.5.15-1.134.206-1.357-.188a1.759,1.759,0,0,1,.168-1.426l8.771-19.784-4.832-.018-1.3,2.533c-.391-2.647-3.122-3.716-7.47-1.539A24.926,24.926,0,0,0,62.4,57.3c-2.564,2.084-7.712,9.066-8.1,14.3-.223,2.985.65,5.069,2.545,5.875a6.282,6.282,0,0,0,4.646-.3,14.852,14.852,0,0,0,4.981-4.11A3.218,3.218,0,0,0,67.582,76.1c2.4,1.633,5.742.469,7.879-.976l-.854,1.745,5.593.018,5.76-11.826a3.065,3.065,0,0,1,1.153,1.089,6.189,6.189,0,0,1,.613,2.459A17.207,17.207,0,0,0,81.5,76.552c-1.561,4.467.3,8.879,3.1,10.511a9.062,9.062,0,0,0,6.188.882,11.506,11.506,0,0,0,4.088-1.652,34.015,34.015,0,0,0,5.148-4.823l-1.171-.713c-1.914,1.933-4.645,4.8-8.344,5.574a6.4,6.4,0,0,1-5.854-1.483A7.618,7.618,0,0,1,82.541,79.5a10.154,10.154,0,0,1,2.342-5.969,15.674,15.674,0,0,1,3.029-3.06c.5,2.722,1.153,5.819,3.251,6.645a3.578,3.578,0,0,0,3.642-.807,12.3,12.3,0,0,0,2.137-2.871,4.978,4.978,0,0,0,5.074,3.848,9.322,9.322,0,0,0,4.4-1.2,12.413,12.413,0,0,0,3.512-3.191l1.692.845a29.281,29.281,0,0,0-6.522,5.5,29.794,29.794,0,0,0-4.479,7.208H96.5l-.818,1.388h4.479c-1.116,2.647-2.379,5.5-3.179,7.7-1.951,5.293-4.423,8-9.478,9.553-4.812,1.5-11.372,1.259-14.847-3.716q2.1-2.162,4.311-4.223a41.235,41.235,0,0,0-6,.169,9.521,9.521,0,0,1,1.579-5.217,20.042,20.042,0,0,1,6.988-6.419l-.837-1.07a23.746,23.746,0,0,0-7.433,6.57,10.569,10.569,0,0,0-1.821,6.513,29.146,29.146,0,0,0-8.6,3.136,48.12,48.12,0,0,0-6.857,4.692c-3.011,2.647-6.783,6.495-8.474,9.7a90.683,90.683,0,0,0-5.631,10.662c-2.416,4.861-5.761,10.943-9.218,14.153a17.121,17.121,0,0,1-9.366,4.767c-8.92,1.032-13.6-3.078-15.591-8.259a18.993,18.993,0,0,1-.594-9.723c.687-3.548,3.234-7.4,6.17-10.211a19.078,19.078,0,0,1,10.11-4.974c3.828-.431,8.028.733,10.128,2.366a8.633,8.633,0,0,1,3.53,6.513,14.02,14.02,0,0,1-2.49,8.109,13.382,13.382,0,0,1-8.177,5.275,18.894,18.894,0,0,1-4.98-.206V135.1a13.453,13.453,0,0,0,4.869.469,14.555,14.555,0,0,0,9.181-5.124,15.677,15.677,0,0,0,3.345-7.284A11.993,11.993,0,0,0,35.3,115.2c-1.728-2.778-6.43-5.444-11.541-5.406-7.489.038-12.283,3.641-15.8,7.545a21.3,21.3,0,0,0-4.887,9.667,20.92,20.92,0,0,0,.985,10.473,14.848,14.848,0,0,0,13.715,9.31A19.307,19.307,0,0,0,30.04,142.98c5.26-4.186,10.073-12.877,12.283-17.719h9.31c-1.115,3.622-.576,10.529,1.6,14.866A14.9,14.9,0,0,0,65.441,148.4a9.576,9.576,0,0,0,6.151-1.426c1.915-1.2,2.825-3.191,3.234-5.725l-1.413.132a5.449,5.449,0,0,1-3.419,4.016,7.155,7.155,0,0,1-5.036-.075,10.835,10.835,0,0,1-6.5-6.438,21.224,21.224,0,0,1-.316-13.627h7.025l-3.345,8.071a5.892,5.892,0,0,0,1.932,7.133,6.609,6.609,0,0,0,5.8.619,12.78,12.78,0,0,0,5-3.622,18.582,18.582,0,0,0,4.516-8c.241-.807.743-2.366,1.1-3.623l.892.319c-.818,2.272-2.788,7.79-1.246,11.413,1.338,3.154,4.5,3.66,6.932,3.229a9.714,9.714,0,0,0,5.017-2.741l-1.319,2.693h4.943l8.846-18.292a15.863,15.863,0,0,1,5.241-4.185c2.508-1.032,3.493-.056,2.508,2.121l-7.1,15.56c-1,2.159-.224,4.542,1.766,5.275a6.281,6.281,0,0,0,8.436-3.961,4.36,4.36,0,0,0,3.364,3.4,8.364,8.364,0,0,0,8.083-2.4,5.95,5.95,0,0,0,5.279,3.06,9.1,9.1,0,0,0,7.786-3.322c1.579,2.927,5.667,3.735,9.459,1.464a14.77,14.77,0,0,0,4.106-4.336l-1.058-.432a8.437,8.437,0,0,1-3.979,3.716c-1.188.563-3.159.771-4.051-.675a5.211,5.211,0,0,1-.668-3.022,15.613,15.613,0,0,1,1.747-5.95c4-.864,8.028-2.234,10-3.66,1.766-1.276,2.974-2.7,3.179-3.943a4.281,4.281,0,0,0-1.352-4.183ZM89.683,120.75a10.554,10.554,0,0,1,3.827-2.759c1.431-.451,2.527.3,2.453,1.97a6.085,6.085,0,0,1-1.951,3.436c-2.156,2.214-5.259,3.359-7.917,2.478A25.922,25.922,0,0,1,89.683,120.75Zm30.4-47.177a6.977,6.977,0,0,1,2.638-.469c1.042.018,2.063.412,2.119,1.351.037,1.107-1.264,1.708-2.656,1.839a15.017,15.017,0,0,1-3.271-.094,5.531,5.531,0,0,1-2.063-.638,12.691,12.691,0,0,1,3.235-1.989ZM69.843,66.531c-2.379,4.073-5.37,7.545-8.325,9.085-1.616.826-2.75-.526-2.639-1.915a24.154,24.154,0,0,1,1.9-6.288,29.066,29.066,0,0,1,2.769-5.106,36.834,36.834,0,0,1,4.589-5.781c1.32-1.351,2.937-1.934,4-1.634,1.264.338,1.431,2.009,1.153,3.511a26.654,26.654,0,0,1-3.439,8.128Zm17.22-2.775,2.193-4.542a14.776,14.776,0,0,1,4.59-3.66c1.916-.807,3.011.732,2.547,2.1C95.333,60.621,89.35,63.362,87.064,63.756Zm7.092,10.669c-.613.675-1,.638-1,.225a19.288,19.288,0,0,0-1.116-6.326,9.393,9.393,0,0,1,5.872-.638,19.15,19.15,0,0,1-3.753,6.739Zm7.016,1.123a3.038,3.038,0,0,1-2.379-1.877,5.536,5.536,0,0,1-.148-3.041,10,10,0,0,1,.779-2.609,18.134,18.134,0,0,1,5.872,2.1C105.112,71.4,104,75.924,101.172,75.548Zm7.867-16.258a22.35,22.35,0,0,0-1.951,4.28c-.279.863-.763,2.947-1.227,4.88a6.129,6.129,0,0,1-1.56-.713,15.28,15.28,0,0,0-1.766-.657,4.453,4.453,0,0,0,1.56-1.914,2.042,2.042,0,0,0-.187-2.234,3.459,3.459,0,0,0-1-.545c.742-1.032,2.3-2.965,3.2-4.035a18.828,18.828,0,0,1,8.4-5.875,27.632,27.632,0,0,0-5.463,6.814ZM57.92,110.254a50.643,50.643,0,0,0-6.114,13.514l-8.976-.037A52.77,52.77,0,0,1,53.051,108.64a43.468,43.468,0,0,1,12.469-8,54.6,54.6,0,0,0-7.6,9.611Zm99.227,9.781c-.261,2.009-1.971,3.379-4.424,4.373a31.949,31.949,0,0,1-6.207,2.084c1.634-3.716,4.238-8,6.561-8.953C156.031,116.338,157.313,118.815,157.147,120.035Z" transform="translate(8039.238 6847.947)"/>
    <path id="Path_124" data-name="Path 124" d="M81.041,28.3c-1.45-1.088-3.327-.676-5.742-.075a30.623,30.623,0,0,0-13.585,8.034,52.078,52.078,0,0,0-9.459,14.153,29.267,29.267,0,0,1-10.667-.844,12.525,12.525,0,0,0-9.421-6.326,7.468,7.468,0,0,1-1.078-3.116,9.9,9.9,0,0,1,2.657-7.977c2.156-2.347,4.981-3.585,9.069-3.9a21.165,21.165,0,0,1,6.541.882,15.431,15.431,0,0,1,6.077,4.28,12.261,12.261,0,0,1,1.876,2.647l.967-1.013a15.361,15.361,0,0,0-8.436-7.359A19.334,19.334,0,0,0,39.507,27.1a13.3,13.3,0,0,0-8.53,5.668,10.58,10.58,0,0,0-1.784,4.881,11.531,11.531,0,0,0,.631,5.311,26.373,26.373,0,0,0-9.31.957A22.092,22.092,0,0,0,8.843,52.03,26.943,26.943,0,0,0,3.975,63.706C2.619,72.453,6.355,82.364,15.367,86.174a25.281,25.281,0,0,0,18.193.976c6.3-2.046,10.147-5.217,14.4-10.681C51.922,71.4,55.024,64.7,57.849,57.83c.762-1.915,1.505-4.223,2.676-7.3a88.792,88.792,0,0,0,14.792-9.235c2.75-2.309,5.036-4.542,6.282-7.3C82.769,31.364,82.137,29.15,81.041,28.3ZM34.7,45.77a9.769,9.769,0,0,1,3.159,2.008,5.536,5.536,0,0,1,.762.883,5.265,5.265,0,0,1-1.022-.488,18.892,18.892,0,0,1-3.308-2.046,4.434,4.434,0,0,1-.52-.638,5.331,5.331,0,0,1,.929.281ZM45.977,64.565a58.883,58.883,0,0,1-9.143,13.289C33.9,80.9,30.182,84.894,23.547,85.381a14.043,14.043,0,0,1-6.8-.807A18.523,18.523,0,0,1,8.9,78.549a18.547,18.547,0,0,1-2.881-7.039A19.719,19.719,0,0,1,5.93,62.8a24.929,24.929,0,0,1,5.835-11.713A22.394,22.394,0,0,1,21.093,45.4a22,22,0,0,1,9.422-.808c2.063,3.247,5.2,5.162,10.109,6.814a21.156,21.156,0,0,1,.168,6.626,17.7,17.7,0,0,1-4.516,9.742A51.932,51.932,0,0,1,27.69,75.49l.705,1.126a47.01,47.01,0,0,0,9.626-8.24,20.016,20.016,0,0,0,4.4-9.573,25.458,25.458,0,0,0,0-6.908,32.583,32.583,0,0,0,8.995.413c-1.077,2.7-3.864,9.328-5.444,12.257Zm33.1-28.779a25.222,25.222,0,0,1-5.407,4.9,87.915,87.915,0,0,1-12.339,7.489,37.2,37.2,0,0,1,5.259-9.46,45.307,45.307,0,0,1,5.482-5.687,17.868,17.868,0,0,1,6.076-3.848,1.984,1.984,0,0,1,2.638,1.258C81.117,31.938,80.485,33.852,79.073,35.786Zm65.813,33.66c-1.951-1.689-5.667-1.745-8.547-.263a19.674,19.674,0,0,0-6.764,5.763,58.942,58.942,0,0,0-6.059,9.817h-3.456l-.744,1.407,3.513-.018-7.806,16.518a4.532,4.532,0,0,1-5.091,2.008c-1.264-.449-1.376-2.176-.631-3.791l7.544-16.124h-4.125l-7.564,16.029a4.54,4.54,0,0,0,.15,4.656c1.467,2.347,5.148,1.9,7.6.694a9.172,9.172,0,0,1-4.664,4.6,7.58,7.58,0,0,1-4.7.395c-2.9-.6-5.167-4.355-5.854-6.4l-1.431.225c.65,2.365,2.937,6.494,6.727,7.62a12.15,12.15,0,0,0,5.854.113c4.553-.939,8.1-3.735,9.57-6.869l9.311-19.653,8.157-.018-7.34,15.861c-.835,1.839-.3,3.379,1.19,3.9,3.848,1.389,7.414-.563,9.031-1.351l-.946,1.82H143.7l8.68-18.733c2.453-1.5,4.7-2.158,6.281-1.727s1.858,2.347.483,4.242c-1.729,2.4-5.632,5.725-7.527,8.747a8.749,8.749,0,0,0-1.1,8.2c1.077,2.628,4.275,3.641,7.377,2.533,3.177-1.126,4.832-3.848,5.965-6.005l-1.413-.864c-1.077,2.046-2.527,4.6-5.444,5.406a2.951,2.951,0,0,1-3.642-1.277,4.4,4.4,0,0,1,.187-3.753c1.653-3.829,9.736-7.865,10.071-13.665a4.677,4.677,0,0,0-4.83-5.012,11.479,11.479,0,0,0-5.538,1.146l7.8-16.743h-5.333L141.04,99.875c-.874,1.84-3.233,4-5.538,4.016-1.468.019-2.434-.657-1.914-1.783l7.34-15.861h4.051l.631-1.388h-3.94l3.214-7.339h-5.146l-3.1,7.245H128.31a55.022,55.022,0,0,1,4-7.189c3.4-4.786,6.912-7.753,9.849-7.358,1.616.244,1.988,2.1,1.338,4.242l3.977-.019a7.2,7.2,0,0,0-2.584-5Z" transform="translate(8039.11 6849.704)"/>
    <path id="Path_125" data-name="Path 125" d="M130.827,90.012a1.685,1.685,0,0,0,.63,1.9,3.712,3.712,0,0,0,3.866-.657c1.8-1.577.631-3.585-1.171-3.6A3.194,3.194,0,0,0,130.827,90.012Z" transform="translate(8021.353 6841.182)"/>
  </g>
</svg>
