<svg xmlns="http://www.w3.org/2000/svg" width="103.584" height="100" viewBox="0 0 103.584 100">
  <g id="Group_289" data-name="Group 289" transform="translate(-423 -912)">
    <path id="Path_51" data-name="Path 51" d="M884.836,191.768c-20.87,12.588-18.22,23.188-33.126,15.569s-40.745-14.244-30.476,23.188,43.4,90.1,83.81,33.126S905.706,179.18,884.836,191.768Z" transform="translate(-395.885 723.24)" fill="#def4f9"/>
    <g id="megaphone_3_" data-name="megaphone (3)" transform="translate(453 938)">
      <path id="Path_19" data-name="Path 19" d="M379.966,53.614l3.013-3.012a1.406,1.406,0,0,0-1.989-1.989l-3.013,3.012a1.406,1.406,0,0,0,1.989,1.989Z" transform="translate(-344.428 -43.682)" fill="#22c6f9"/>
      <path id="Path_20" data-name="Path 20" d="M430.185,176.733h-3.013a1.406,1.406,0,0,0,0,2.813h3.013a1.406,1.406,0,0,0,0-2.812Z" transform="translate(-388.11 -160.164)" fill="#22c6f9"/>
      <path id="Path_21" data-name="Path 21" d="M282.572,5.825a1.406,1.406,0,0,0,1.406-1.406V1.406a1.406,1.406,0,0,0-2.812,0V4.419A1.406,1.406,0,0,0,282.572,5.825Z" transform="translate(-257.066)" fill="#22c6f9"/>
      <path id="Path_22" data-name="Path 22" d="M24.512,351.149a1.407,1.407,0,0,0,0,1.989l6.025,6.025a1.406,1.406,0,0,0,1.989,0l2.356-2.356-8.014-8.014Z" transform="translate(-24.1 -316.094)" fill="#22c6f9"/>
      <path id="Path_23" data-name="Path 23" d="M192.741,386.038l-9.874,4.647,6.75,6.75a1.406,1.406,0,0,0,1.989,0l5.272-5.272a1.406,1.406,0,0,0,0-1.989Z" transform="translate(-167.983 -349.847)" fill="#22c6f9"/>
      <path id="Path_24" data-name="Path 24" d="M89.053,48.613a1.406,1.406,0,0,0-2.267.4L74.841,74.392l8.014,8.014,25.384-11.946a1.406,1.406,0,0,0,.4-2.267Z" transform="translate(-70.084 -43.682)" fill="#22c6f9"/>
    </g>
  </g>
</svg>
