<svg xmlns="http://www.w3.org/2000/svg" width="245.075" height="40" viewBox="0 0 245.075 40">
  <g id="Group_24" data-name="Group 24" transform="translate(-63.911 -411.422)">
    <path id="Path_74" data-name="Path 74" d="M164.87,464.214h-6.535v5.362h-1.771v-12h1.771v5.038h6.535v-5.038h1.771v12H164.87Z" transform="translate(-39.833 -19.841)" fill="#050605"/>
    <path id="Path_75" data-name="Path 75" d="M199.958,457.574h7.933v1.583h-6.163v3.51h6.038v1.583h-6.038v3.742h6.163v1.584h-7.933Z" transform="translate(-58.488 -19.841)" fill="#050605"/>
    <path id="Path_76" data-name="Path 76" d="M245.429,467.093h-5.79l-.957,2.483h-1.948l4.693-12h2.214l4.692,12h-1.948Zm-5.277-1.6h4.764l-2.39-6.352Z" transform="translate(-74.298 -19.841)" fill="#050605"/>
    <path id="Path_77" data-name="Path 77" d="M284.67,464.952h-2.213v4.625h-1.771v-12h4.976a3.546,3.546,0,0,1,3.789,3.688,3.331,3.331,0,0,1-2.939,3.51l3.028,4.8h-2.054Zm.762-5.794h-2.975v4.211h2.975a2.107,2.107,0,1,0,0-4.211" transform="translate(-93.194 -19.841)" fill="#050605"/>
    <path id="Path_78" data-name="Path 78" d="M322.992,459.158h-3.666v-1.583h9.084v1.583h-3.648v10.419h-1.771Z" transform="translate(-109.805 -19.841)" fill="#050605"/>
    <path id="Path_79" data-name="Path 79" d="M359.613,457.575h5.543a3.015,3.015,0,0,1,3.329,3.059,2.705,2.705,0,0,1-2.054,2.752,2.958,2.958,0,0,1,2.284,2.952,3.11,3.11,0,0,1-3.417,3.239h-5.685Zm5.207,5.092a1.757,1.757,0,1,0,0-3.509h-3.435v3.509Zm.088,5.326a1.788,1.788,0,0,0,1.983-1.889,1.815,1.815,0,0,0-1.983-1.853h-3.524v3.742Z" transform="translate(-127.125 -19.841)" fill="#050605"/>
    <path id="Path_80" data-name="Path 80" d="M400.553,457.574h7.933v1.583h-6.163v3.51h6.038v1.583h-6.038v3.742h6.163v1.584h-7.933Z" transform="translate(-144.725 -19.841)" fill="#050605"/>
    <path id="Path_81" data-name="Path 81" d="M446.024,467.093h-5.79l-.957,2.483h-1.948l4.693-12h2.214l4.692,12H446.98Zm-5.277-1.6h4.764l-2.39-6.352Z" transform="translate(-160.536 -19.841)" fill="#050605"/>
    <path id="Path_82" data-name="Path 82" d="M481.53,459.158h-3.666v-1.583h9.084v1.583H483.3v10.419H481.53Z" transform="translate(-177.962 -19.841)" fill="#050605"/>
    <path id="Path_83" data-name="Path 83" d="M69.473,437.189a.064.064,0,0,0,0,.128v.17h-.125a3.831,3.831,0,0,1-1.171,1.954c.125.552-.711.977-.46,1.529a1.279,1.279,0,0,0-.334,1.148c-.377.084-.252.679-.461.934,1.423-1.232,2.593-3.356,4.935-3.612a.313.313,0,0,0,.376.255,1.008,1.008,0,0,1,.251.382.909.909,0,0,1,.376.043c.753,1.657,0,4.673,1.464,5.863.083,0,0-.212.167-.17-.041.128.084.128.125.255a3.034,3.034,0,0,0,2.342-.85c2.844-1.784,5.395-4.206,8.238-6.161.042,1.063-1.171,1.275-1.463,2.167-.084,0-.126-.085-.084-.17-.168.213-.5.255-.5.595-.167.043-.459.086-.459.383-.084,0-.084-.085-.168-.128-.083.425-.5.213-.543.722.251-.085.209-.213.5-.255-.042.553-.628.341-.753.807.042.085.083,0,.167,0a.656.656,0,0,1-.627.51c0,.213.208.255.083.425-.167.043-.167-.128-.21-.212-.209.722-1.046.807-1.213,1.572-.084,0-.125,0-.167-.042a6.6,6.6,0,0,1-3.3,2.337c-3.179.085-4.517-2.889-5.019-6.119-2.384,1.785-3.764,4.546-5.729,6.756v.3c-.334.34-.5,0-.878-.042a7.045,7.045,0,0,1-.92-2.167c.46-1.615,1.046-3.484,1.465-5.226-.043-.086-.084,0-.168,0,0-.255-.209-.6.084-.808.084,0,.125.043.125.086a10.154,10.154,0,0,0,1.046-4.122c.083,0,.042.086.125.086a7.518,7.518,0,0,0,.46-2.422c.167.127.335-.425.125-.51,0-.084.127-.043.168,0,0-.17,0-.3.084-.383,0-.086-.168-.043-.084-.212.418-.213.084-.892.46-1.148-.042-.085-.084-.042-.167-.042.167-.043.125-.255.251-.34,0-.17-.125.042-.168-.085a1.033,1.033,0,0,0,.335-.553c0-.127-.167,0-.125.085a3.577,3.577,0,0,1,.419-1.231c-.043-.17-.127.212-.168,0s.084-.255.251-.3c.084-1.02.5-1.615.5-2.592.084,0,.084.086.168.043.042-.595.335-1.189.335-1.827.084,0,.042.128.126.17.041-.127.083-.3.125-.425-.042-.127-.125.128-.125.17-.084-.3.292-.595.376-.935,0-.17-.167.127-.125-.042-.042-.17.042-.17.125-.128,0-.425.292-.637.209-1.146.167,0,.167-.171.251-.255,0-.043-.084-.086-.084,0,.21-.68.376-1.105.669-2-.042-.17-.084.169-.125.212-.168-.467.585-.68.293-1.19h.167c-.042-.3-.084-.68.251-.807-.083-.171-.042-.171,0-.34.084.3.167-.255.251-.425a.529.529,0,0,0,.084-.552c1.087-1.572,1.171-4.546,3.722-4.292.251.467.836.6,1.254.935.753,1.275.544,2.719.294,4.249-.168-.043-.127.085-.21.127,0,.085.042.17.167.127-.167.212-.084.6-.292.681.125.934-.544,1.954-.669,2.974-.084.085-.125,0-.251,0v.255c.042-.042.042-.086.042-.17.209.51-.376,1.063-.376,1.7-.125.086-.125-.041-.334,0,.041.086.166.086.208.129-.292,1.146-.878,2.081-1.046,3.1-.083-.042-.167-.127-.251-.042-.125.085.21.17.168.382-.168.34-.628.637-.418,1.062H73.7c.125.128,0,.255-.125.255a1.18,1.18,0,0,1,0,.383c-.166.042-.166-.043-.25-.043,0,.128.041.212.167.212,0,.341-.461.341-.293.723-.418.042-.209.764-.627.808.251.466-.628.977-.376,1.445-.084.17-.418.127-.335.51-.168.042-.126-.128-.209-.128.125.34-.125.51.042.764-.878.808-.753,2.082-1.715,2.719,0,.085.168.043.168.085-.042.17-.125.34-.251.17.167.425-.251.6-.334.893h-.084Zm-4.14,7.988h-.125v.128h.125Zm0-.468v.17c.126.085.126-.213,0-.17m.251-.637c-.041.127-.335.425,0,.467-.084-.212.125-.382,0-.467m.042-.425c0,.17-.083.3.042.382.125-.255.292-.552.042-.765-.125.128.125.213.084.425-.084,0-.125,0-.167-.042m.543-1.36c-.083.212-.5.722-.125.892-.042-.34.251-.6.125-.892m1.046,1.1c-.209.086-.5.382-.418.637.084-.255.335-.34.418-.637m.209-8.243c.084-.085.084-.254-.041-.254,0,.127-.168.042-.168.127.125,0,.084.17.209.127m.042,7.945c-.083.043-.209,0-.166.17.125,0,.209-.042.166-.17m.168-8.88c-.084,0-.084-.127-.209-.086a2.163,2.163,0,0,1-.041.554c.166-.043.208-.255.25-.468m.083-.552c0,.042,0,.127-.083.084-.042-.17.292-.3.042-.383,0,.213-.209.34-.084.553.168.085.251-.17.125-.255m-.125,9.857v.128c.125.085.125-.213,0-.128m.376-.977c-.167.042-.209.213-.292.34a.358.358,0,0,0,.292-.34m-.042-9.815a.182.182,0,0,0,.209-.042c-.042-.212.167-.467-.084-.51a4.494,4.494,0,0,0-.335,1.063c.251-.043.168-.34.209-.51m.042.51c-.125,0-.125.127-.125.212.125.043.125-.085.125-.212m.168.425c-.125.042-.251.042-.251.212.125,0,.167-.128.251-.212m.042,9.262c-.167.043-.335.3-.251.382.125-.084.292-.128.251-.382m-.083-7.946c-.084,0-.126.043-.168.128.084,0,.125-.043.168-.128m.251-3.314c-.043.17-.127-.042-.21,0-.084.085-.084.254,0,.3.126,0,.335-.17.21-.3m-.21-.34c0,.128.126.17.21.255.083-.127-.084-.17-.043-.3a.153.153,0,0,1,.125.042c.042-.127-.125-.34,0-.425,0,.085,0,.17.042.17.125-.128.125-.255-.042-.3,0,.042-.083.042-.125.085a.78.78,0,0,1-.167.466m.083,11.005c.127.085.168-.17.084-.17-.041.043-.041.086-.084.086Zm.335.254c-.167.043-.292.129-.251.3a.455.455,0,0,0,.251-.3m-.167-10.367c-.041.086-.041.212-.084.255.125.085.209-.213.084-.255m0-3.4c0-.085.042-.085.042-.213.084,0,.084.3-.042.213m.251,1.954c-.084-.34.168-.595,0-.764-.042.212-.167.042-.251.17.125.17.125.467.251.595m-.251-.383c0,.086,0,.213.042.213.084-.086.084-.17-.042-.213m.167,11.472c-.042.086-.208.212-.083.255.042-.085.292-.17.083-.255m-.083-13.469v-.085c.042,0,.042,0,.083-.042.084-.043.042.212-.083.127m.167,3.781c.042.17-.084.128-.042.255.125.043.251-.3.042-.255m.251-2.549c-.125.043-.335.043-.292.213.125-.043.334,0,.292-.213m1.8,2.762a33.883,33.883,0,0,0,1.966-4.589c.084,0,.168.213.168,0,.042-.169-.168-.042-.126-.212a50.589,50.589,0,0,0,2.426-6.416c-.209-.042-.084.213-.209.255.377-2.167,1.548-4.674,1.171-7.351-.794.043-.878,1.02-1.338,1.233-.795,1.784-1.547,3.7-2.258,5.438,0,.17.084.255.084.425-.544.68-.669,2.124-1.129,2.848-.669,3.739-2.217,7.605-2.76,11.429.795-1.487,1.422-3.1,2.3-4.5,1-2.506,2.259-5.566,3.429-8.2-1.046,3.739-2.885,6.883-4.056,10.326-.585.466-.879,1.656-1.3,2.421.46-.212.669-.892.753-1.36.335.043.418-.636.418-.977.126,0,.126.086.21.043.125-.255.084-.595.25-.807.042.085.084,0,0,0m-1.84-3.612c.042.213-.335.51-.042.6,0-.127.292-.51.042-.6m-.042,9.305a.161.161,0,0,0,.042.255c.042-.042.083-.212-.042-.255m0-6.374c0,.128-.084.3.042.34-.084-.169.167-.34-.042-.34m.251,10.367h-.168c0,.128-.083.128-.042.255.167,0,.167-.128.209-.255m.042-13.468c0-.086-.042-.127-.168-.086v.086Zm.251-.977c-.084,0-.084-.043-.167-.043-.125.17-.084.509-.125.722a.8.8,0,0,0,.292-.679m-.042,14.02c0,.255-.251.17-.251.383.084.127.5-.3.251-.383M69.1,429.159c.209,0,.293-.425.209-.595-.084.085-.042.3-.209.255.084.212.084.17,0,.34m.125,7.86c0,.085-.125.042-.083.17.083.042.209-.128.083-.17m.084-8.752H69.18v.084h.125Zm.084-.808c0-.17,0-.255-.168-.212v.212Zm0,2.464a.575.575,0,0,1,.042-.382c-.168,0-.292.425-.125.467a.091.091,0,0,1,.084-.086m-.042-2.719c.125,0,.251-.255.084-.255,0,.043-.084.043-.125.043a.187.187,0,0,0,.042.212m.125-.467c.125,0,.042.17.209.128.084-.086,0-.383-.125-.383a.362.362,0,0,0-.084.255c-.209-.043,0,.128,0,0m.167,14.617c0,.084-.25.212-.083.3,0-.085.292-.212.083-.3m-.083-13.809c.125.086.125-.17.041-.17,0,.042,0,.085-.041.085Zm.334-1.445a.634.634,0,0,0-.042-.3h-.167c.125.212-.084.17-.084.383.168-.042.125-.17.293-.085m-.293,9.135h.084c.042-.042.042-.127-.042-.127a.041.041,0,0,1-.042.042Zm.084-6.841c0,.043-.125.213,0,.213.042-.042.125-.169,0-.213m0-2.082c0,.086-.084.128,0,.17,0-.084.084-.127,0-.17m.042,1.827c.168-.043.209-.17.251-.34-.083-.086-.251.043-.292.17.167.043.084.043.042.17m.251-2.422a1.837,1.837,0,0,0,0-.679c-.042,0-.125,0-.125.041.168.128-.209.384,0,.51.084-.169-.042.213.125.128m.084,1.36c-.125.085-.125.3-.167.467.125-.043.209-.382.167-.467m.125-2.252c-.125-.128.125-.255-.083-.3a2.093,2.093,0,0,1-.126.3Zm-.083.764c-.084.085-.042.255-.042.383.209,0,.125-.255.042-.383m.251-1.4c.042-.169-.084-.213-.209-.213.042.127-.084.127-.042.255.167.042.125-.17.251-.043m-.126,2.167h-.083v.127h.083Zm-.083.383c0,.085.042.128.083.128,0-.086-.042-.128-.083-.128m.251-2.252c0-.085-.042-.127-.168-.085v.085Zm.251-1.274c-.209-.17-.5.425-.292.51a1.028,1.028,0,0,1,.292-.51m0,.764c0,.213-.335.468-.084.553-.083-.255.377-.383.084-.553m-.167-.425c.042.085-.042.3.083.255,0-.085.084-.212-.083-.255m.251-1.4c-.042.212-.251.765-.125.807a1.084,1.084,0,0,0,.125-.807m.125,2.846c-.251,0,.042-.3-.168-.255-.042.17-.042.383-.083.51.125,0,.167-.171.251-.255m-.125,9.518c.084.212-.209.3-.042.425,0-.128.293-.383.042-.425m-.042-8.923c0,.128.084.17.168.213,0-.128-.084-.169-.168-.213m.168-1.274h-.125v.128h.125ZM70.728,440.5v.127c.167.085.167-.213,0-.127m.084-18.568c-.042.127,0,.213.083.213.084-.086.042-.255-.083-.213m.083.468c0,.084-.167.3-.042.339,0-.084.167-.255.042-.339m.042.637h-.084v.128h.084Zm.251-1.53c-.084,0-.042-.128-.209-.085.042.17-.125.127-.084.3.125-.043.251-.085.293-.213m-.084.764c0,.213-.125.3-.167.425.167,0,.334-.382.167-.425m-.042-.934c.125.043.125-.17.042-.17,0,.043,0,.043-.042.043Zm0,3.1v.127c.125.085.125-.213,0-.127m.125-2.422c0,.085-.084.128-.042.213.125.085.125-.213.042-.213m0-1.4c-.042.042-.084.383,0,.467.042-.127.209-.425,0-.467m.167,1.869c-.042.171-.209.467-.042.638-.084-.3.292-.51.042-.638m-.042,9.56c-.042,0-.125.17,0,.17,0,0,.125-.17,0-.17m0-11.557c-.042.128.125.255.125.128-.084,0-.084-.085-.125-.128m0,12.407H71.4c0-.043,0-.043.042-.043v-.128h-.084c0,.043,0,.086-.042.086Zm.084-12.789c.167-.084.209-.3.251-.509a.331.331,0,0,0,.167-.17c-.209.085-.042-.212-.167-.212a.411.411,0,0,0,0,.383c-.167.084-.335.339-.251.509m.167.552v.17c.125.042.125-.255,0-.17m.167.425c0,.043-.042.085-.042.17.125.085.125-.213.042-.17m.126-2.379c-.084.086-.209.34-.042.425,0-.086.167-.34.042-.425m.209.977V419.6c-.084,0-.084-.043-.125-.043-.042.043-.251.212-.042.3,0-.127.042-.169.167-.169m-.251-.51a.258.258,0,0,0,.125.255c0-.127,0-.255-.125-.255m.335-.892c0,.042,0,.169.042.169.084-.042.125-.383-.084-.339a1.868,1.868,0,0,0-.251.51c.251.041.167-.255.292-.34m.042.892c0-.084-.042-.127-.126-.084v.084Zm.168.426h-.126v.084h.126Zm0-1.912c.125,0,.125-.085.25,0,.042-.213-.25-.17-.293-.128a.157.157,0,0,0,.043.128m.125-.68c0,.042-.041.085-.041.17.166.042.208-.17.041-.17m-.041,11.982c0,.042,0,.17.041.17,0-.085.167-.212-.041-.17m.208-12.236c-.208-.043-.167.212,0,.17Zm.084,13.171c.042-.169-.167-.169-.167-.042.083,0,.083.085.167.042m.084-.849c-.042-.085.042-.255-.126-.212,0,.085-.083.127-.042.212Zm-.126-12.491c.126.084.168-.17.042-.17,0,.042,0,.085-.042.085Zm.209.6c-.167-.043-.209.212-.083.254,0-.085.125-.085.083-.254m0,10.409c0-.043,0-.128-.083-.086,0,.043-.042.128.042.128a.042.042,0,0,1,.042-.043m.251.722c-.126,0-.209,0-.209.17.125,0,.167-.086.209-.17m.251-1.231c.041.17-.127.127-.084.255a.136.136,0,0,0,.084-.255m.166-12.025a.1.1,0,0,0-.166-.084v.084Zm.544-.764c-.084.086-.084.34.084.3-.084-.128.083-.255-.084-.3m.335,10.027c.041.169-.168.128-.084.34.084-.042.292-.34.084-.34m.25-2.21c-.084,0-.084-.085-.084-.17a.222.222,0,0,1,.084.17m-.042,1.189c.125.086.125-.169.042-.127,0,.043,0,.043-.042.043Zm.209,1.1h-.125v.084h.125Zm.209-3.484v.17c.125.043.125-.254,0-.17m.292-.595h-.125v.085h.125Zm.628-.977a.321.321,0,0,1-.042.213c.209,0,.168-.17.042-.213m.418-1.657c0-.128-.125-.128-.251-.128v.128Zm-.042-1.275c0,.127,0,.254.084.254.084-.043.042-.254-.084-.254m2.8,27.786h-.083v.129h.083Zm.335-.3c-.125,0-.293.17-.083.212.041-.085.083-.128.083-.212m.879-.638a1.175,1.175,0,0,0-.753.681,3.791,3.791,0,0,0,.753-.681m2.132-1.741a16.332,16.332,0,0,0-2.091,1.741,10.241,10.241,0,0,0,2.091-1.741m-1.254,1.615c0,.169-.294.042-.251.254.168,0,.5-.169.251-.254m.167-.255v.17c.125.086.125-.255,0-.17m.459-.3c-.251-.084-.335.255-.125.255a.258.258,0,0,0,.125-.255m1.213-1.529c-.083.213-.46.17-.418.468.083.042.67-.341.418-.468m-.418,1.233c.042-.17.125-.255.292-.255-.042.127-.167.169-.292.255m.418-.255c-.083-.043-.042-.128-.083-.213.209-.043.083.169.083.213m.335-1.19c-.125,0-.293.17-.166.212.041-.086.208-.042.166-.212m.084-.043h.125c.042-.085.042-.128-.042-.17-.042.042-.042.085-.083.085Zm.962-.807a1.243,1.243,0,0,0-.585.552c.292-.086.418-.34.585-.552" transform="translate(0 -0.677)" fill="#050605"/>
    <path id="Path_84" data-name="Path 84" d="M101.361,443.567v.128c.168.086.168-.211,0-.128m-.292-21.627c0,.044-.084.129,0,.129,0-.043.084-.085,0-.129m-.168,22.053c-.125.084.084.254.127.127-.084,0-.043-.087-.127-.127m0,.211c0,.127-.125.17-.125.3.125.041.252-.213.125-.3m-.46.807h.127v-.127c-.168,0-.168.086-.127.127m-3.679,6.246v.127c.125.086.125-.213,0-.127m5.142-10.877a14.868,14.868,0,0,0-2.383,1.657c-.376.467-1.058,1.069-1.477,1.5-.084-.17.043-.689-.084-.9.295,0-.053-.424.115-.552-.042-.042.053-.042.053-.128a.411.411,0,0,0,.2-.192l-.339.388-.012.007a.07.07,0,0,1-.043.01.044.044,0,0,1,.007.017c.014.046-.017.036-.019.013l-2.41,1.667v0a.313.313,0,0,1-.089.129c-.292,3.1-1.588,6.074-1.63,9.433.335.127.46.678.879.508a1.481,1.481,0,0,0,1.588.766,9.073,9.073,0,0,1,.754-4.079c-.127-.043-.211.17-.211,0,.043-.384.336-.51.376-.893-.165-.042-.04.169-.249.128a18.187,18.187,0,0,0,.333-2.337c.292-.127.21-.807.376-1.234.5-.041.628-.721.922-.8.04-.172-.21-.043-.168-.256.333,0,.709-.34.459-.595.168,0,.125.042.293,0A7.244,7.244,0,0,1,100.9,442.8c.208-.68,1.38-1.064,1.674-1.487.459-.084.543-.34.96-.424,0,.043.043.043.084.043.376,3.439-2.091,7.435-4.558,9.176a9.4,9.4,0,0,1,1.38-5.1H100.4c-.168.3-.084-.211.041-.254.084.043.084.084.127.127.165-.127,0-.3,0-.424-1.215,1.615-2.635,3.612-2.719,5.864a3.052,3.052,0,0,0,2.508,1.315c.67-.337,1.171-.8,1.758-1.1a14.831,14.831,0,0,0,2.591-4.25,6.865,6.865,0,0,0,1.128-4.163c-.208-1.911-2.047-2.251-3.931-1.742m-6.021,12.235H95.8v-.084h.083ZM96.175,451h-.041v.213c-.127-.043-.084-.17,0-.213a.6.6,0,0,1,.168-.637,2.769,2.769,0,0,1-.127.637m.168-.8a.27.27,0,0,1-.041-.173c.084,0,.084.043.084.087-.043,0-.043.043-.043.086m0-.426c.084.043,0,.086,0,.171-.084-.044,0-.128,0-.171m.043-4.29c-.127,0-.168.127-.294.168.127.17.21-.127.335-.04.043-.17.208.04,0,0-.209.21-.376.678-.668,1.061.208-.34.084-.977.417-1.274-.041-.086-.041-.213-.168-.17,0-.127.084-.17.043-.34.168-.043.084.17.041.213.21.043.127-.17.21-.213,0-.084-.084-.127-.21-.127.084-.383.378-.594.5-1.02.124.127.04.426-.084.426.335.127-.292.3.04.424-.165.17-.333.68-.165.893m.249,2.846c-.124,0,0-.214,0-.255.168.041.043.168,0,.255m.168-.554c.084,0,.084.043.127.043.041.127-.211.084-.127-.043m0-3.653c0-.087,0-.213.127-.213,0,.086,0,.213-.127.213m.084-.51c-.125-.043-.125-.127-.041-.213.125,0,.125.129.041.213m.963-1.061a14.079,14.079,0,0,1-.544,2.038,4.386,4.386,0,0,1,.46-2.124c.04,0,.04.043.084.086,0-.086.084-.043,0,0m.249,0c.084.04,0,.083,0,.127-.082-.044,0-.087,0-.127m-.082.254c0,.084.208.043.165.17h-.165Zm1.044.807c-.377.3-.544.85-.963,1.1.294-.383.462-.891.963-1.1,0-.127.04-.17.124-.17,0,.087-.04.127-.124.17m.628-.764c-.043.084-.084.255-.252.3,0,.127-.04.213-.168.213-.04-.17.127-.13.168-.213.084-.127.084-.3.252-.3-.043-.213.208-.086.168-.256.251.087-.084.17-.168.256m1-.129h-.084v-.084h.084Zm0-.848a2.518,2.518,0,0,1,.669-.511,1.047,1.047,0,0,1-.669.511m-2.551,2.294a7.986,7.986,0,0,1,3.43-3.358,21.523,21.523,0,0,0-3.43,3.358m1.715,1.615c-.044-.213.168,0,0,0,.04.211-.168.04,0,0m-.168.17h.124v.083h-.124Zm-.252.551c.127.043,0,.213-.084.17,0-.084.084-.084.084-.17m-.376.807c.124.086-.084.17-.041.213-.168-.043.041-.127.041-.213m1.212,2.718c.21-.381.586-.637.8-1.06.04.466-.5.764-.8,1.06m.879.213c-.125-.04-.168-.424.04-.381-.084.168.044.3-.04.381m1.38-3.525a9.664,9.664,0,0,1-1.255,2.209c.21-.722.92-1.4,1.255-2.209m-.335,2.081c-.125,0-.165.086-.249.17.04.17.208-.128.168.083-.42-.04-.379.6-.755.723.671-1.19,1.674-2.762,2.3-4.036-.041-.426.251-.594.167-.894a.194.194,0,0,0,.212-.127c-.212,1.53-1.34,2.848-1.842,4.079" transform="translate(-12.846 -4.522)" fill="#050605"/>
    <path id="Path_85" data-name="Path 85" d="M97.184,436.563s.107-.022.1-.07c-.053.011-.107.022-.1.07m-.013.763-.107.022c.011.051-.043.062-.033.109.054-.011.213-.044.14-.131m-.28,1.072c.03.149-.2.143-.113.278.173.017.23-.249.113-.278m-.093,1.189c.1-.072-.133-.379.156-.336l-.05-.244c-.217.044-.393.538-.107.58m-.307,1.229c-.16.034.122.328-.217.3-.014.2.157.222.07.339.267-.054.292-.466.147-.639m-.18.748c.1.233-.34.525,0,.557-.03-.145.25-.408,0-.557m-.193.7c.083.135-.027.412.143.426.044-.058.063-.522-.143-.426m.192,1.481-.01-.048c-.107.022-.043.058.01.048m-.332-.54.08.389c.2-.091.186-.444-.08-.389m-.64,2.871a.225.225,0,0,0,.242.1c.054-.011.035-.106.014-.2-.083-.135-.077.168-.257.1m-.434,3.336c.164-.033.134-.178.168-.286-.217.044-.186.19-.168.286m-.056.266c.02.1-.013.208.1.233.043-.058.1-.324-.1-.233m2.337-13.116s.107-.022.1-.07c-.053.011-.107.022-.1.07m-.12.785c.011.051-.043.062-.033.109.054-.011.213-.044.14-.131l-.107.022m-.173,1.05c.03.149-.2.143-.113.278.173.017.23-.249.113-.278m-.093,1.189c.1-.072-.133-.379.156-.336l-.05-.244c-.217.044-.393.538-.107.58m-.523,1.528c-.014.2.157.222.07.339.267-.054.292-.466.147-.639-.16.034.122.328-.217.3m.039,1.006c-.03-.145.25-.408,0-.557.1.233-.34.525,0,.557m-.2.143c.083.135-.027.412.143.426.044-.058.063-.522-.143-.426m.192,1.481-.01-.048c-.107.022-.043.058.01.048m-.332-.54.08.389c.2-.091.186-.444-.08-.389m-.64,2.871a.225.225,0,0,0,.242.1c.054-.011.035-.106.014-.2-.083-.135-.077.168-.257.1m-.434,3.336c.164-.033.134-.178.168-.286-.217.044-.186.19-.168.286m-.056.266c.02.1-.013.208.1.233.043-.058.1-.324-.1-.233m7.334-30.126a3.616,3.616,0,0,0,.169-2.167c-.409-.372-1.039-.448-1.408-.877-.479.1-.6-.233-1.009-.3a9.057,9.057,0,0,1-.3,3.413l.09.438c-.5,2.487-1.117,5.456-1.42,8.057-.506,1.068-.244,2.079-.688,3.185-.257,2.286-.963,4.563-1.069,6.768-.959,3.772-1.488,7.919-2.209,11.972l.3-.063a19.774,19.774,0,0,1,.537-3.054c.027-.157-.136-.124-.113-.28.376-.078-.09-.438.276-.565a2.292,2.292,0,0,1,.16-.844c.11-.022.129.073.236.051-.04-.194-.256-.149-.339-.284.03-.413.257-.661.273-1.124.149-.08.136.124.243.1-.34-.843.247-1.522.11-2.458.163-.033.07-.216.24-.2-.074-.087-.246-.1-.113-.28.053-.011.063.036.127.076-.08-1.2.5-2.185.38-3.326.406-.186.06-.522.413-.7a.275.275,0,0,0-.273-.249c.31-.113.241-.453.353-.73.078-.168.107-.022.277-.007.087-.12-.074-.087,0-.255-.053.011-.244-.1-.276.007-.18-.065.047-.314.207-.347-.23-.31-.027-.4-.107-.791a.481.481,0,0,1,.343.032c.1-.072.023-.157,0-.255-.116-.026-.233-.055-.219-.259l.213-.043c.083.135-.086.121.006.3.131-.178.247-.153.473-.147a.653.653,0,0,0-.143.942,1.312,1.312,0,0,1-.43.088c-.053.01-.043.058-.023.157.083.135.123-.227.27-.055-.121.226.15.733-.226.81.162.522.162,1.335-.32,1.434-.014.207.183.064.166.27-.053.01-.033.109-.149.083.019.1.169.015.146.172-.333.273.077.645-.32.878.433.215-.266.613.027.959-.14.128-.15.08-.3.161a1.717,1.717,0,0,1-.279,1.63c.287.044.216.515-.05.569a1.165,1.165,0,0,1-.157,1.149.113.113,0,0,0,.127.076.063.063,0,0,1-.1.07c0,.812-.33,1.389-.33,2.2l-.16.033c.12.587-.327,1.134-.177,1.864-.363-.127-.013.208-.017.46-.323.066-.027.413-.3.467a2.048,2.048,0,0,1,.177.321c-.312.169-.283.467-.258.763l1.408-.288a7.361,7.361,0,0,0,.206-1.768c.107-.022.077-.168.226-.25-.139-.682.287-1.328.1-1.949.38-1.145.44-2.476.83-3.57.013-.207-.136-.124-.113-.283.4-.789.243-2.079.737-2.941-.25-.4.083-1.236.236-1.572-.016-1.163.637-2.616.624-4.037a3.6,3.6,0,0,0,.294-1.835c.216-.044.249-.153.336-.271a.14.14,0,0,1-.19-.116,8.7,8.7,0,0,1,.507-1.878c-.186-1.181.693-2.072.414-3.436a2.355,2.355,0,0,0,.43-1.711c.552-1.382.483-2.535.973-3.956-.17-.015.06-.267-.09-.438m-6.349,30.026c.02.1-.1.07,0,0-.169-.269.15-.083,0,0m.287-3.763.107-.022c.01.048.02.1.02.1l-.107.022s-.01-.048-.02-.1m-.127.737c.126.074.04.193.06.291-.16.033-.1-.233-.06-.291m.506,2.738c-.02-.1.043-.062.087-.12.02.1-.044.059-.087.12m-.259-2.078a.66.66,0,0,1,.147-.641,1.474,1.474,0,0,1-.147.641c.1.233-.213.043,0,0m.074-.726c-.01-.05.043-.061.1-.072.01.051-.043.062-.1.072m.157-.335c-.227-.006-.06-.3-.027-.4.18.063.007.3.027.4m.2-.653-.16.033s-.01-.047-.02-.1l.16-.033.019.1m.137-2.057-.03-.145c.054-.011.054-.011.1-.073.1-.069.1.233-.066.218m.1-.325c-.02-.1.077-.168.056-.266.173.014.113.281-.056.266m.223-1.367c.044-.059.151-.081.16-.033-.033.109-.054.011-.16.033m.127-.737c-.019-.1.153-.082.163-.034-.033.109-.107.022-.163.034m.123-.227c-.083-.135-.05-.244.12-.226.03.146.05.242-.12.226m.6-4.69c.02.1-.053.01-.107.022-.01-.05.1-.072.107-.022m-.038,3.356c-.063-.037-.343-.03-.3.164-.253-.15.093-.373.052-.57.247-.153-.029.413.157.222.106-.022.083.135.092.183m.091-.373c-.223,0-.05-.244-.07-.342.107-.022.06.295.07.342m-.186-.367-.03-.147c.063.036.054-.011.1-.07.106-.021.112.28-.067.216m.017-.461c.18.066.16-.033.343.033.019.1-.41.182-.343-.033m.216-.857c-.03-.146.023-.157,0-.255.1-.07.166.27,0,.255m-.026-.4s-.01-.048-.021-.1a.05.05,0,0,0,.044-.058c.1-.07.156.222-.023.157m-.282-2.732c-.04-.2-.114-.283-.283-.3.2-.4.147-.639.726-.81.02.1-.087.12,0,.255-.434-.216.033.7-.44.853m.8.9c-.17-.015-.083-.135-.039-.194.116.026.019.1.039.194m-.226-1.374c-.03-.146-.07-.343.1-.325.029.146.06.291-.1.325m-.127-1.445c0,.3.133.376.064.6-.177-.321,0,0-.31.113-.176-.318.32-.624-.1-.741.184-.189.453-.245.466-.452.33-.015.153.477-.124.485m.04-.619-.03-.146.267-.055c-.1.072-.077.168-.237.2m.663,1.337c-.054.011-.074-.087-.093-.186.107-.022.117.029.136.124-.053.011-.053.011-.043.062m-.486-1.83c-.147-.172-.176-.318-.036-.449.226,0,.253.4.036.449m.337-1.084-.054.011c.05.243-.047.314-.007.507-.117-.026-.28.007-.31-.139.023-.156.123-.226.147-.384.054-.011.072.085.17.015-.074-.088-.19-.113-.177-.321l.267-.054c.04.2-.057.266-.036.364m.109-1.089-.107.022-.03-.146.107-.022Zm-1.6,7.435c-.053.011-.107.022-.1.07,0,0,.107-.022.1-.07m-.111.833-.107.022c.011.051-.043.062-.033.109.054-.011.213-.044.14-.131m-.28,1.072c.03.149-.2.143-.113.278.173.017.23-.249.113-.278m-.093,1.189c.1-.072-.133-.379.156-.336l-.05-.244c-.217.044-.393.538-.107.58m-.454,1.868c.267-.054.292-.466.147-.639-.16.034.122.328-.217.3-.014.2.157.222.07.339m-.03.666c-.03-.145.25-.408,0-.557.1.233-.34.525,0,.557m-.053.57c.044-.058.063-.522-.143-.426.083.135-.027.412.143.426m.049,1.055-.01-.048c-.107.022-.043.058.01.048m-.332-.54.08.389c.2-.091.186-.444-.08-.389m-.4,2.972c.054-.011.035-.106.014-.2-.083-.135-.077.168-.257.1a.225.225,0,0,0,.242.1m-.677,3.235c.164-.033.134-.178.168-.286-.217.044-.186.19-.168.286m-.056.266c.02.1-.013.208.1.233.043-.058.1-.324-.1-.233" transform="translate(-13.079 -2.057)" fill="#050605"/>
    <path id="Path_86" data-name="Path 86" d="M104.463,458.171l-.012.008-.036.026-.02.011a.035.035,0,0,1,.012-.029c-.036-.174.1-.063.056-.017" transform="translate(-17.404 -20.064)" fill="#050605"/>
    <path id="Path_87" data-name="Path 87" d="M128.1,420.269c-.074-.063-.086-.1-.171-.034.012.039.036.119.085.1-.012-.039.037-.054.086-.07m-.963,11.646c-.033.005-.063.006-.094.011.035-.041.073-.079.111-.117l.434-2.594-.039.005a6.3,6.3,0,0,1,.291-1.184l.025-.154a.244.244,0,0,0-.008-.078c-.173.14-.246.92-.478,1.034.1-.521.556-1.623.685-2.151l0-.009a1.7,1.7,0,0,0,.051-.312v0a1.049,1.049,0,0,0-.16-.666.482.482,0,0,0,.283-.074l0,0a.113.113,0,0,0,.023-.139v0a.079.079,0,0,0-.016-.043c-.049-.16-.219.152-.255.033.283-.086.222-.336.356-.49a.276.276,0,0,1,.109-.083,5.965,5.965,0,0,1,.263-1.447,10.14,10.14,0,0,0,.534-1.675c-.1.03-.194.059-.206.021a6.6,6.6,0,0,0,.76-2.395c1.212-2.492,1.4-5.362,3.516-7.525-.012-.213-.158-.168-.17-.379-.707.13-1.245-.223-2.135,0-2.032,2.962-2.466,6.6-3.521,9.774.073.064.109.011.145-.044-.011-.039.037-.055.085-.069-.072-.237.231-.113,0,0,.012.038-.036.054-.085.069-.832,1.465-1.128,4.111-1.654,5.7.1-.031.157-.007.182.074a4.345,4.345,0,0,0-.468,1.145,7.936,7.936,0,0,0-.188.979c-.048.322-.083.646-.108.965.036-.056.073-.109.109.009-.049.015-.1.03-.109-.009a1.207,1.207,0,0,1-.18.514m2.2-1.262-.048.015c.024.077-.088.07,0,0-.076-.064.024-.095,0-.174.146-.044.049.159.049.159" transform="translate(-26.363)" fill="#050605"/>
    <path id="Path_88" data-name="Path 88" d="M133.672,430.146c0,.036,0,.036-.032.041.048.1.115.061.237.158.007-.26.4-.043.438-.308-.3-.078-.319.074-.643.109m-.449-2.423,0,.036.071-.008a.128.128,0,0,0-.075-.028m-.092-.509c-.059.119.155.1.147.022-.067.043-.075-.03-.147-.022m-.422.453c0,.038-.028.078-.019.151l.143-.016-.017-.147Zm-.319.075c-.028.076.044.069.048.1.107-.012.056.18.194.125.018-.184-.147-.352-.242-.23m-.147-.022c-.07.046.017.146-.057.155-.111-.024-.159-.131-.266-.12.016.147.087.139.025.221a1.054,1.054,0,0,1,.474.019c0-.036.028-.075.02-.149-.17.093-.025-.219-.195-.127m-.466.051c-.078-.027-.141.054-.141.054-.019.149.221.013.141-.054m-.448-.429s.072-.008.068-.046c-.036,0-.072.008-.068.046m-.112.64c-.02.149.229.085.22.011a.394.394,0,0,0-.22-.011m2.045-.558a11.6,11.6,0,0,0-2.481.236c.2.2.292.006.506-.018.086.1.1.246.213.272.011-.224-.159-.131-.072-.326.51.018,1.016,0,1.523-.02-.051.191.165.167.064.25-.1.05-.111-.024-.182-.016,0,.036-.068.044-.139.052.064.252.474.022.589.083-.008-.073-.083-.1-.056-.178-.035,0-.071.008-.039-.032l.035,0c-.091-.174.1-.123.039-.3m-2.679.407c.024.219.02.182-.039.3.111.024.3.114.278-.1-.21.058-.131-.208-.238-.2m.083-.23c.052.141-.214.024-.158.2a.307.307,0,0,1,.25-.028c-.013-.109-.056-.176-.092-.172m-.275.473a.109.109,0,0,0-.068.043c.072-.009.076.03.112.026,0-.038.031-.042.027-.078Zm-.111-.024c.036,0,.067-.046.095-.124a.1.1,0,0,0-.095.124m.176-.39c-.117-.061-.173.093-.257-.008-.023.114-.055.153.06.214.024-.113.292,0,.2-.206m-.315.441c-.036,0-.117-.062-.228-.086.079.065.076.359.135.242-.008-.071-.016-.145.022-.149.008.074.123.134.071-.007m-.356-.588c.012.11-.218-.014-.131.125.075.027.206-.1.131-.125m-.115.27c.017.148-.117-.06-.1.05s.256.009.1-.05m.206,2.194c-.008-.074-.145.015-.141.051.076.03.08.067.157.094-.012-.109.17-.092.158-.2-.107.013-.1.05-.174.059m-.32.071.012.108.107-.011-.012-.109Zm-.377-2.432c.013.109.084.1.124.135.067-.046-.017-.147-.124-.135m-.1,2.705c.044.07.151.059.218.014-.056-.179.248-.066.228-.246-.1.048-.359.04-.446.232m-.447-2.385c.2.16.552.049.786-.125a5.542,5.542,0,0,1-.786.125m.171,2.526c.175-.056.217-.024.276-.141-.145.016-.292,0-.276.141m-.319.074a.162.162,0,0,0,.105-.05c-.078-.027-.109.013-.105.05m-.218-1.971c.109-.011.1-.083.169-.129-.109.013-.217.024-.169.129M128.2,430.6c.036,0,.107-.011.1-.048-.035,0-.107.013-.1.048m-.387-2.17c.012.109-.1.083-.052.189.084.1.139-.052.324-.036-.111-.024-.225-.047-.272-.152m0,2.25c.009.074-.027.078-.023.115.071-.008.143-.015.131-.127Zm-.375-2.392a1.888,1.888,0,0,0,.464-.091c.009.074.017.147.052.143.031-.373.538-.059.652-.332-.319.074-1.012.04-1.169.279m.038-.336c-.074.007-.288.031-.173.091.028-.076.225.05.173-.091m-.256.321c.035,0,.008.074.012.112l.072-.008c.023-.115-.1-.213-.084-.1m-.111-.024c0,.037-.059.117.016.147-.008-.074.059-.119-.016-.147m-.052-.141c.036,0,.071-.008.067-.046-.035,0-.071.009-.067.046m-.029.409c-.023.113.02.181.093.173-.008-.071.011-.223-.093-.173m-.182-.017.024.218c.111.026.079-.266-.024-.218m-.151-.056c.067-.046.111.024.182.016.02-.15-.19-.09-.182-.016m-.276-.193c0-.035.036,0,.028-.076-.032.041-.036,0-.028.076m-.055.156c.008.073-.028.076-.024.112l.107-.012,0-.035s-.04-.034-.079-.065m-.482.238c.008.071-.015.185.056.177a.107.107,0,0,0-.056-.177m-.406.266c-.059.117.056.179.083.1-.071.008-.043-.07-.083-.1m-.173-.24.012.109.074-.009-.012-.109-.074.008m.077,1.31c.015-.018.068,0,.064-.031-.031,0-.063.006-.064.031m-.4.055c-.011.223.332.037.319-.072a1.015,1.015,0,0,0-.319.072m.254-1.319c-.151-.058-.335.259-.394.044-.107.011-.1.083-.127.16.147.02.323-.036.482.093-.091-.173.055-.153.039-.3m-.778.2c-.032.04-.032.04-.067.043l.008.074c.115.06.128-.163.059-.117m-.221.613c.031-.039.071-.007.1-.083-.032.04-.107.012-.1.083m-.17-.534c-.067.044-.31.145-.234.173.186.053.166-.129.327,0l-.016-.148c-.035,0-.074.008-.078-.028m-.589.25s.071-.007.067-.046c-.036,0-.071.008-.067.046m-.178.02,0,.035.072-.008c0-.035-.039-.031-.075-.027m11.6-1.246c-.08-.4-.253-.636-.551-.713.008.071.016.145-.057.154-.025-.219-.271-.156-.421-.212.012.109.123.133.171.238.036,0,.063-.082.075.028-.036,0-.071.008-.075-.028-.143.016-.315.109-.367-.034.023-.112.1-.121.123-.2a3.526,3.526,0,0,0-.4-.03c.009.074.044.07.052.141.117.062.173-.091.181-.02.024.218-.217.024-.283.07-.024.114.139.28-.036.336.04.032.048.105.056.18.143-.017.079-.269.11-.308.074-.009.145-.017.153.056-.129.161.079.064.132.207-.195-.127-.02.149-.194.2-.078-.027-.181.02-.269-.117-.367.3-.949-.041-1.474.127a3.285,3.285,0,0,1-.544.022c-.143.015-.238.136-.418.156-.25.028-.514-.054-.717.08.036,0,.044.069.048.1-.121-.1-.28.105-.34-.109a.4.4,0,0,0,.047-.226.3.3,0,0,0-.186.279c-.288.031-.375.226-.611.067.017.148-.3.219-.319.075.026-.114.212-.063.156-.239-.172.091-.189-.054-.264-.082,0,.036.056.177-.059.117.032-.042-.016-.148-.083-.1.039.031.083.1.063.25.036,0,.139-.051.147.02s.056.18-.015.186c-.056-.178-.322.036-.5.056-.044-.07-.051-.141-.127-.171.029.256-.41.23-.49.165-.1.05.12.1-.015.186a.2.2,0,0,1-.137-.242c-.107.012-.1.048-.1.121.143-.015.017.145,0,0-.3-.076-.422.121-.549.283-.012-.11.011-.223-.1-.211,0,.036-.07.045-.1.048.012.109.087.14-.012.222l-.071.009c-.008-.071.087-.193-.024-.219.044.07-.182-.015-.139.054.076.027.084.1.092.172-.107.012-.217.024-.225-.048.137-.089-.052-.143-.091-.174-.068.044.04.364-.182.316a1.031,1.031,0,0,0-.165-.261c.019.034-.011.091-.075.067-.02.148.119.1.1.21-.071.008-.019.149-.131.125-.084-.1-.048-.105-.064-.253-.111-.024-.063.082-.21.062.127.169-.054.189-.152.274-.044-.07-.017-.145-.029-.254-.1.048-.076-.03-.336-.074a.331.331,0,0,1-.1.414c-.079-.063-.147-.019-.252.028-.044-.067-.016-.145-.092-.173.009.071-.035,0-.071.008-.051.189.111.024.088.137a.792.792,0,0,1-.427.084c-.075-.028.032-.039-.047-.105-.186-.052-.2.134-.3.219.007-.258-.4.043-.278.105-.213.059-.185-.017-.161-.132-.151-.055.064.253-.123.2-.1.05-.021-.183-.092-.175-.091.159-.007.26.009.4.147.022.1-.082.206-.1.008.072.044.068.052.141-.147-.02-.147-.02-.131.125a2.452,2.452,0,0,0,1.129-.31c-.141.054-.084-.1-.193-.088.009.073.017.147-.091.158-.008-.074-.064-.251.007-.261l.217-.024c.043.07.083.1.06.215.478.059.917-.249,1.427-.23a1.025,1.025,0,0,0,.154-.238,10.7,10.7,0,0,0,2.57-.434c.111.024.159.131.27.155.1-.047.164-.167.315-.109.079-.266.518-.242.742-.193-.032.039-.181.02-.133.125.141-.052.4-.006.387-.116-.043-.068-.178.019-.119-.1.17-.091.155.093.3.078.032-.04-.074.007-.082-.064.217-.024.343-.187.513.017.067-.044.019-.149.123-.2.008.071.048.1.084.1,0-.039-.009-.074.059-.117-.024.113.02.18.055.176.181-.02.324-.035.28-.1.036,0,.044.068.115.06-.008-.071.02-.149.133-.125a.183.183,0,0,0,.262.082c.028-.075-.123-.133-.02-.181.212-.062.165.165.272.153a4.784,4.784,0,0,1,1.012-.037c0-.036-.013-.109.059-.118-.059.118.113.024.125.136-.457.161-.886.54-1.4.522.012.109.064.252-.083.23-.052-.141.06-.117.047-.226-.178.019-.075.3-.178.351-.229-.086-.418.157-.6.141.019-.149.276-.141.327-.332-.206.1-.714.117-.576.36.035-.005.2-.134.174-.056-.067.043.016.145-.055.153s-.244.1-.257-.009c-.047-.105.059-.117-.02-.182-.067.043-.25.027-.234.172.071-.007.174-.055.182.019l.016.144a1.57,1.57,0,0,1-.43.047c-.016-.144.164-.165.152-.274-.109.013-.1.084-.177.056a.38.38,0,0,1-.142.347c-.982.329-2.073.636-3.182,1.129.241.194.865-.06.853-.169.04.031.044.069.052.143a13.1,13.1,0,0,1,1.867-.541c-.1.121-.217.024-.351.114.016.145.159.128.167.2-.028-.254.135-.089.228-.246.064.252.486.131.629.116.008.073-.155.238-.007.258,1.236-.32,2.247-.691,3.444-1.044,0-.036,0-.036.032-.041a9.076,9.076,0,0,0,1.352-.925c.02-.148-.177-.276-.04-.365.107-.012-.011.225.158.131.067-.377-.388-.548-.252-.969m-11.348,2.178c0-.036.032-.04.067-.044,0,.037-.035,0-.067.044m.43-.38a.323.323,0,0,0-.183-.015c0-.038.028-.078.023-.115l.143-.016Zm1.881-.393c.078.029.113.024.121.1-.109.012-.117-.062-.121-.1m.411.1-.071.007-.013-.111.072-.008Zm1.76-.528-.074.008a.035.035,0,0,0-.04-.032c-.043-.069.173-.092.113.024m1.458-.272c.028-.076.135-.087.244-.1.012.11-.3.255-.244.1m1.28-.252.217-.024c.016.148-.236.174-.217.024m-.978,2.324c-.04-.034-.048-.105-.183-.017.119-.234.278-.1.518-.241-.047.226-.323.035-.335.258m1.046-.08-.074.009,0-.035.074-.009Zm2.235-1.465.016.147c-.071.008-.1-.21-.016-.147,0-.035.067-.044,0,0m.1-.048c.2-.171.481-.274.714-.449.076.031.08.066.092.175-.282.068-.509.315-.806.274m.709-1.482c-.072.008-.143.017-.151-.055.04.031.177-.059.151.055m.4.361-.017-.145c.1-.05.128.171.017.145m-11.644,1.473.017.145.107-.011-.017-.145-.107.011m-.251.36c.032-.039.074-.008.066-.082-.034.042-.074.008-.066.082m-.151-.389c-.04-.031-.107.012-.1.086.071-.008.182.016.1-.086m-.505.684a.1.1,0,0,0,.119.1c-.008-.072-.052-.142-.119-.1m-.268.214c-.031.041-.019.15.052.143,0-.039.019-.152-.052-.143m-.154.238c.035,0,.075.029.071-.009-.008-.071-.079-.063-.071.009m-.1-.875c0,.036.008.072-.028.076,0,0,0,.039.009.074l.107-.011-.016-.146-.071.007m-.043.262a.524.524,0,0,1-.05.227c.217-.024.157-.238.3-.254-.12-.1-.166.128-.25.027m-.129-.17a.037.037,0,0,1-.031.042l.008.071.071-.008c.07-.044.062-.117-.048-.1m-.023.446c.036,0,.071-.008.067-.045-.036,0-.072.007-.067.045m-.156-.427c-.028.078.087.139.079.066-.035,0-.043-.07-.079-.066m-.255.657c.032.29.173-.094.3.039a.141.141,0,0,1,.024-.113c-.185-.015-.181.02-.319.074m-.351.111c.035,0,.071-.007.067-.044-.036,0-.071.009-.067.044m-.1.05.012.11.107-.013-.012-.109Zm-.515-.387c.036,0,.036,0,.032-.04a.036.036,0,0,0-.032.04m-.174.056c.036,0,.071-.007.067-.046-.036,0-.071.009-.067.046m-1.686.518c.119.1.191.091.21-.059-.044-.07-.222-.05-.21.059m-.216.024c-.179.021-.1.121-.253.028-.087.195.09.137.072.324.1-.048.065-.082.212-.06-.052-.143.019-.152-.032-.292m-.047.227-.107.011c0-.035-.009-.074-.009-.074l.107-.011s0,.038.009.074m-.193-.421c-.024.113-.286.031-.234.172.107-.011.246-.063.355-.076,0,0,0-.038-.008-.073-.071.007-.075-.028-.113-.023m-.261.913.012.11c.151.057.123-.2-.012-.11m-.048-.436c.147.02.1-.086.135-.09,0,.039.008.074.044.07.2-.169-.276-.19-.178.021m-.232.211c.139-.054.052.141.187.053.021-.151-.2-.163-.187-.053m-.084-.434c0,.035.012.109.048.1a.036.036,0,0,1,.031-.042c0-.035-.012-.109-.079-.063m.124.8c-.072.008-.1.05-.179.02l.009.073c.067-.043.214-.023.17-.093m-.246-.266c.052.141-.058.153.024.218.182.017.087-.194-.024-.218m-.091-.471.008.074.074-.007-.009-.073-.074.007m.129.171c.048.106-.185-.018-.1.121.078.027.208-.1.1-.121m-.379.52c-.071.009-.145.017-.176.058.008.072.008.072.012.109l.109-.011a.037.037,0,0,0,.031-.042c-.145.016.107-.013.023-.114m-.036-.659c-.007.258-.363,0-.3.29.182.018.2-.133.387-.115-.044-.07-.021-.184-.092-.176m-.039.3c-.145.017-.315.107-.236.173.024-.113.292.006.236-.173m-.135,1.416c-.008-.071.139-.051.135-.087-.112-.026-.246.064-.135.087m-.065-.916c-.04-.031-.107.012-.107.012-.027.078.143-.016.107-.012m-.275-.523-.109.013c-.059.117.157.093.149.019-.036,0-.036,0-.04-.032m-.165.165c-.055.155.163.166.189.054-.074.008-.153-.058-.189-.054m-.182-.016c.04.032.182.016.174-.056-.071.008-.111-.026-.174.056m-.171.757.016.147c.111.024.083-.229-.016-.147m.088.8c-.008-.073.107-.012.1-.086-.076-.028-.21.062-.1.086m-.168-.866c.178-.019.284-.07.307-.182-.105.048-.248.063-.307.182m-.056-.179.008.071.036,0-.008-.071Zm-.172.425c0,.036.012.109.082.063-.008-.071-.046-.066-.082-.063m-.235-.824.025.221c.166-.129.379-.191.509-.316-.139.051-.25.027-.534.1m.177,1.606c.1-.048.139-.052.166-.13-.067.046-.218-.012-.166.13m-.248.065c.038,0,.074-.009.07-.046-.036,0-.074.008-.07.046m.156-1.187c.008.074-.4.326-.32.354-.008-.071.4-.326.32-.354m.081,1.06s-.371.213-.375.178c-.036,0,.371-.213.375-.178m-.251-.967c.071-.008.107-.012.135-.088a.18.18,0,0,0-.135.088m-.149.31c.071-.008.08.066.107-.012,0-.036-.079-.064-.107.012m-.132-.538.012.109.143-.015c-.013-.109-.084-.1-.155-.094m.021.514c.063-.082.17-.094.236-.173-.18.02-.248.064-.236.173m-.119.9c.038,0,.109-.011.1-.05-.035,0-.109.012-.1.05m-.225-1.047a.236.236,0,0,0,.064.252c.031-.042.031-.042.1-.049-.05-.105-.093-.173-.169-.2m.069.337c.079.066-.29.279-.266.165-.074.009.262-.2.266-.165m-.028-.254a.279.279,0,0,0,.055.178c.105-.05-.31.1-.286-.019-.113-.024.341-.136.231-.16m-.041-.365c.06.214.236.11.184-.034-.2.136.136-.038-.184.034m-.062.413c-.064.082.016.147.091.175a.221.221,0,0,0-.091-.175m-.1-.58.013.111.071-.007-.012-.112-.072.009m-.215.357c-.048-.105.024-.112.016-.186-.107.011-.175.055-.163.165.183.018-.063.081.021.182.166-.128.418-.157.482-.238-.119-.1-.174.058-.355.078m-.359.039.02.182.145-.017c.02-.148-.087-.137-.165-.165m-.061,1.409c.427-.083.335.025.639-.194-.347.149-.331.014-.639.194m-.093-.839a.433.433,0,0,0,.311-.145c-.168.129-.232-.121-.327,0,.147.021,0,.036.016.145m-.367.3c0,.035-.031.039-.027.075.035,0,.075.03.151.058l-.016-.145Zm.168-.8c.02.182-.148.312-.272.177.008.073-.2.135-.011.223,0-.295.23.121.254.009-.072.008-.088-.136-.017-.145.042.032.113.023.157.093,0,.036-.028.075-.055.153a.333.333,0,0,0-.056-.511m-1,1.144c.008.074-.024.113.016.145-.008-.071.059-.117-.016-.145m-.276.141.008.074c.044.07.217-.024.213-.062-.107.011-.079-.064-.221-.012m-1.1-.394a.125.125,0,0,0-.075-.029c-.059.117.123.133.075.029m-.554.245a.129.129,0,0,0,.1-.048c-.036,0-.107.013-.1.048m-.837.314c.012.109-.03.078-.1.048-.02.152.153.058.228.085.024-.113-.052-.141-.123-.133m6.944-1.014c-.008-.071.139-.051.135-.087-.112-.026-.246.064-.135.087m-.77.27c-.008-.073.107-.012.1-.086-.076-.028-.21.062-.1.086m-.454.162c.1-.048.139-.052.166-.13-.067.046-.218-.012-.166.13m-.248.065c.038,0,.074-.009.07-.046-.036,0-.074.008-.07.046m.237-.127s-.371.213-.375.178c-.036,0,.371-.213.375-.178m-.631.218c.038,0,.109-.011.1-.05-.035,0-.109.012-.1.05m-.385.115c-.347.149-.331.014-.639.194.427-.083.335.025.639-.194m-6.509,3.316c.074-.008.109-.012.137-.09-.071.009-.145.017-.137.09m15.848-6.611c-.252.029-.51-.017-.463-.245-.187-.054.028.254-.158.2-.017-.148.087-.2-.062-.214.017.144-.246.063-.19.241.04.032.127-.163.178-.02a.26.26,0,0,1-.206.1c.016-.184-.127-.169-.209-.234-.1.047.032.292-.075.3a.125.125,0,0,1-.075-.029c-.119.236-.159-.13-.336-.074-.031.041.189.384.128.5-.194-.125-.352.077-.569.1-.076-.361-.328,0-.554-.087-.051.19-.422.121-.666.223-.083-.1-.072-.324-.156-.428-.506-.311-1.233.026-1.636,0,.075.027.025.217-.007.258-.075-.029-.075-.029-.067.046a.6.6,0,0,1-.188.609c.1.21-.007.26-.059.451-.013-.111-.115-.062-.092-.174.071-.008.107-.013.1-.05-.206.1-.144-.316-.23-.121.123.133-.141.052-.173.094-.131.125-.007.258,0,.3-.107.012-.127-.17-.2-.163a2.111,2.111,0,0,1-.877.282c.008.071.052.141-.015.185-.145.015-.125-.133-.233-.121-.11.307-.534.1-.682.406-.088-.137-.462.087-.438.308-.052-.143-.036-.331-.183-.351.012.11.119.1.1.21-.182-.015-.135.091-.23.212-.077-.028-.028-.257-.137-.245.017.148.407-.218.3-.168-.015.187-.284.351-.307.463-.15-.055.292-.276.273-.128l-.016-.145c-.107.011-.181.02-.221-.014.012.109-.091.158-.115.272-.071.009-.056-.179-.163-.167-.3.254-.219.037-.535.146-.009-.074.063-.082.019-.151-.1.047-.25.028-.274.141.075.03.024.218-.012.222a2.339,2.339,0,0,0-.563.174c.04.033-.027.076.086.1-.074.008-.066.082-.173.094.051-.191-.091-.175-.1-.284-.147-.02-.232.211-.324.036.188-.278.49-.165.575-.4a.227.227,0,0,1-.3-.078c.048.105.02.183-.091.157.1-.082.091-.157-.052-.141-.105.048.1.21-.089.195,0-.038.031-.042.027-.078-.143.017-.162.166-.19.242-.024.113.119.1.1.21.147.022.244-.1.323-.035-.015.186-.177.056-.16.2.052.143.2-.133.22.013-.107.011-.131.126-.311.147a.379.379,0,0,0-.324-.3c-.051.19.117.061.129.171-.351.113-.615.363-.99.258-.028.076.157.093.016.145l-.107.011c.032-.039.059-.117-.012-.109-.135.089-.367.3-.562.173-.052-.141.02-.149.051-.19.044.069.151.056.226.084.148-.312.507-.351.886-.54.04.032.048.1.083.1-.024-.219.154-.238.339-.223.007-.258-.252.028-.272-.153.154-.24.347-.151.572-.4-.3-.113-.616.328-1,.185a.311.311,0,0,1-.047.226c-.758.048-1.283.549-2.164.792-.129.164-.383.156-.518.243-.046-.067.064-.079.016-.187-.209.1-.093.159-.316.11a11.2,11.2,0,0,0,1.172-.205c.03-.075-.048-.1-.119-.1a3.49,3.49,0,0,1-.51.316c.032-.039.028-.078.019-.152-.275.144-.288-.126-.639-.013-.454-.19-1.123.5-1.458.43-.807.658-.95.683-1.72,1.286a3.4,3.4,0,0,0-.017,1.071c.193.089.2.458.262.711.661.4.746.188,1.124-.335.107-.013.083.1.15.057s-.02-.182.087-.195a8.921,8.921,0,0,0,.872-.5,4.993,4.993,0,0,1,.909-.47.076.076,0,0,0,.035.017l-.3-.049c-.019,0,1.29-.446,1.271-.448.79-.487.384-.414,1.31-.791a21.2,21.2,0,0,0,2.3-1.048c-.083-.1-.139.054-.252.028a.634.634,0,0,1-.383.152.588.588,0,0,1,.383-.152c.231-.21.7-.262,1.006-.444.17-.093-.165.117.083.053.841-.278,1.223-.48,2.14-.727.181-.019.267-.215.371-.265a5.432,5.432,0,0,0,.786-.123c.248-.063.307-.181.494-.128-1.416,5.251-2.292,10.811-3.386,16.356-.046-.129-.013-.328-.058-.581a.467.467,0,0,0-.014-.074.719.719,0,0,0-.058.444v0c0,.066.013.139.022.221l-.036,0,.025.221a.125.125,0,0,1-.092-.028l-.047.233c.041,0,.137.1.128.019.091.174.013.44-.133.456-.075-.027-.032-.292.03-.409.028-.035,0-.037-.031-.033l-.382,1.949a4.491,4.491,0,0,1-.042,1.2,2.125,2.125,0,0,1-.084-.555l-.424,2.6,0,0c-.057.483.316-2.357.234-1.885a29.479,29.479,0,0,1-.371,3.387c-.283.4-.206,1.094-.534,1.424.2.163.144.649.345.812.067-.046-.025-.218.119-.234.092.173.314.507.574.55.055-.152.9.121,1.061-.117.044.07.021.183.163.167-.008-.074.067-.043.137-.09.015-.518.373-1.553.383-2.109.035-.335,0-.873.079-1.437.1-.379.314-.772.381-1.148.092-.822-.349,1.551-.193.684a18.977,18.977,0,0,0,.222-2.053,7.813,7.813,0,0,0,.238-1.465s-.04-.032,0-.036l0,.036a.879.879,0,0,0,.121-.863c.315-.109.08-.6.322-.7-.143-.316.109-.344-.029-.586a.558.558,0,0,0,.148-.644,16,16,0,0,0,.355-2.034.129.129,0,0,0,.113.026,11.565,11.565,0,0,1,.356-2.035.527.527,0,0,1,.086-.525c-.035,0-.071.007-.075-.029a6.342,6.342,0,0,0,.316-1.734l-.02-.181a18.164,18.164,0,0,0,.678-2.733c-.012-.109-.083-.1-.056-.178.383-.485.282-1.4.62-1.95a15.512,15.512,0,0,1,.346-1.812,19.139,19.139,0,0,0,.734-2.553c.127-.16.082-.3.01-.629.387-.115.173-.166.461-.2-.048-.106-.2-.2-.029-.257.04.034.048.108.06.217.115.06-.017-.147.091-.159a10.746,10.746,0,0,0,2.472-.641c-.048-.105.059-.117.015-.186m-11.492,2.918c.147.022-.01.261-.121.235.028-.076.177-.056.121-.235m-.264.25c.009.074-.031.043-.063.082-.008-.074.032-.039.063-.082m-1.625,1.067c-.139.051-.147-.021-.225-.05,0,.037.008.074.043.07.017.145-.25.027-.238.136-.079-.065.051-.19.194-.206.023-.114.137-.088.212-.06.009.074-.027.078.013.11m.023-.114c0-.035.032-.039.068-.043,0,.036-.032.04-.068.043m.4-.043c-.036,0-.044-.07-.147-.02.012.109-.18.02-.121-.1.04.035.08.066.121.1.023-.115.123-.2.166-.131.008.073-.027.077-.019.151m.055-.154c-.087-.139.143-.017.131-.126.078.03.082.065.093.175-.117-.062-.086-.1-.225-.049m.527.5c0-.038-.008-.074-.008-.074l.143-.016c.086.1-.063.082-.135.09m.279-.106c-.008-.074.028-.078.036,0,0,.036,0,0-.036,0m.939-.695c0,.038-.067.046-.1.05,0-.038.067-.046.1-.05m-.489.5a1.17,1.17,0,0,1,.833-.352,3.363,3.363,0,0,1-.833.352m1.733-1.078.145-.016c.048.1-.231.211-.145.016m.494-.129c.036,0,.072-.007.1-.083.036,0,.044.067.044.067Zm1.455-.405c-.008-.074.1-.05.095-.123.036,0,.044.07.08.066.008.074-.1.05-.174.057m.6-.178c-.071.008-.111-.024-.147-.02-.009-.074.059-.116.131-.125Zm.841-.276c-.107.012-.178.021-.191-.09.076.028.068-.046.175-.057Zm.894-.469c.04.032.079.066.107-.011.151.057-.16.2-.107.011m-3.958,22.142c-.156-.427.054-.818.073-1.3.249.268-.082.9-.073,1.3m2.872-13.238c0,.038-.067.046-.067.046,0-.038.032-.042.067-.046m-.782,11.788c-.02-.182.043-.262.027-.409.082.066.078.361-.027.409m.084-.562c-.082-.065.119-.234.027-.409.151.058.095-.453.181-.648.177.277-.09.823-.209,1.057m-1.348-.812c0,.038-.068.046,0,0,0-.036-.012-.109.1-.121-.1.085.084.1-.1.121m1.065,2.983c-.145.016-.132-.207-.181-.311.149.02.209.235.181.311m-.092-.506c.075.027.08.065.088.139-.072.008-.115-.062-.088-.139m.083-.231c-.08-.066.011-.222.039-.3.12.1-.051.191-.039.3m-.7-2.285.7-.078c.009.074-.665.074-.7.078m.908,1.56c-.078-.028-.05-.548-.093-.617.176-.056.09.581.093.617m.157-1.309c-.111-.024.019-.151-.024-.218.111.024-.024.113.024.218m-.005-.369c-.043-.068.064-.08.016-.185.074-.007.137.242-.016.185m.1-.418c.028-.075.015-.185.043-.262.075.028.064.251-.043.262m-.176-1.282c0-.058.032-.033.062-.071.007.065-.05.051-.062.071m.286.642c.051-.188,0-.3.059-.449.145-.015.084.434-.059.449m-.142-1.608a.189.189,0,0,0,.056-.153c.113.023.056.18-.056.153m.294,1c-.054-.143.011-.225.035-.337.075.03.072.326-.035.337m.059-.451c-.025-.218.071-.339.082-.562.048.105.056.511-.082.562m.181-.647c-.111-.024-.052-.141-.021-.183.109-.012.017.147.021.183m.041-.3c-.157-.093.087-.192-.009-.4.143-.017.076.361.009.4m-.13-1.831c0-.036.067-.044.1-.047,0,.035-.067.044-.1.047m.57-.1c-.343.184-.066,1.04-.326,1.328a11.422,11.422,0,0,1,.257-1.949c.159.129-.067.375.069.62m0-.663c0-.039.031-.043.067-.047,0,.038-.067.047-.067.047m.059-.118c-.123-.136.025-.448.076-.638.127.171-.019.482-.076.638m.175-.721c-.079-.065-.068-.288-.04-.366.115.063.028.257.04.366m-1.261-1.043c.036,0,.044.07.056.178-.176.39.34.922.384,1.324-.314,1.105-1.162,2.491-1.307,3.466-.208.429-.119,1.231-.4,1.668a2.447,2.447,0,0,1-.117.9c-.083-.1-.26-.046-.193-.09-.119-.1-.012-.109.1-.121.019-.151.071-.341-.052-.474.662-2.877,1.2-6.518,1.87-9.361a9.462,9.462,0,0,1-.339,2.511m1.323.3c.008.074-.067.046,0,0m.032-.039c-.119-.1.049-.226,0-.3.105-.048.054.142.1.211-.113-.024-.1.049-.1.084m.1-.416c-.153-.059.012-.224,0-.368.084.1-.043.262,0,.368m.071-.672a.208.208,0,0,1,.011-.222c.071-.008.1.284-.011.222m4.723-12.3c-.109.011-.016-.145.059-.118,0,.038-.063.081-.059.118m.451.134c.02-.149.2-.169.306-.18-.051.191-.131.125-.306.18m-6.359,2.292c-.112-.026-.246.064-.135.087-.008-.071.139-.051.135-.087m-.806.272c-.076-.028-.21.062-.1.086-.008-.073.107-.012.1-.086m-.387.117c-.067.046-.218-.012-.166.13.1-.048.139-.052.166-.13m-.414.195c.038,0,.074-.009.07-.046-.036,0-.074.008-.07.046m.237-.127s-.371.213-.375.178c-.036,0,.371-.213.375-.178m-.631.218c.038,0,.109-.011.1-.05-.035,0-.109.012-.1.05m.043,15.074a.2.2,0,0,1,.032,0,.112.112,0,0,1-.025-.03ZM113.131,433.7c.427-.083.335.025.639-.194-.347.149-.331.014-.639.194" transform="translate(-17.696 -6.789)" fill="#050605"/>
  </g>
</svg>
