<svg xmlns="http://www.w3.org/2000/svg" width="103.584" height="100" viewBox="0 0 103.584 100">
  <g id="Group_290" data-name="Group 290" transform="translate(-815 -912)">
    <path id="Path_52" data-name="Path 52" d="M884.836,191.768c-20.87,12.588-18.22,23.188-33.126,15.569s-40.745-14.244-30.476,23.188,43.4,90.1,83.81,33.126S905.706,179.18,884.836,191.768Z" transform="translate(-3.885 723.24)" fill="#def4f9"/>
    <g id="analytics_7_" data-name="analytics (7)" transform="translate(843 938)">
      <g id="Group_284" data-name="Group 284" transform="translate(0 16)">
        <g id="Group_283" data-name="Group 283">
          <path id="Path_92" data-name="Path 92" d="M47,200.666H46v-29a1,1,0,0,0-1-1H39a1,1,0,0,0-1,1v29H34v-17a1,1,0,0,0-1-1H27a1,1,0,0,0-1,1v17H22v-21a1,1,0,0,0-1-1H15a1,1,0,0,0-1,1v21H10v-11a1,1,0,0,0-1-1H3a1,1,0,0,0-1,1v11H1a1,1,0,1,0,0,2H47a1,1,0,1,0,0-2Z" transform="translate(0 -170.666)" fill="#22c6f9"/>
        </g>
      </g>
      <g id="Group_286" data-name="Group 286" transform="translate(2)">
        <g id="Group_285" data-name="Group 285">
          <path id="Path_93" data-name="Path 93" d="M61.333,0A3.976,3.976,0,0,0,57.9,6.02l-6.546,6.546a3.926,3.926,0,0,0-5.116.932l-4.914-1.4c0-.032.01-.062.01-.1a4,4,0,1,0-8,0,3.952,3.952,0,0,0,.354,1.628l-6.25,4.986a3.944,3.944,0,0,0-2.1-.614,4,4,0,1,0,4,4,3.945,3.945,0,0,0-.518-1.928l6.126-4.886a3.949,3.949,0,0,0,5.826-1.168L45.4,15.34a3.79,3.79,0,0,0-.068.66,4,4,0,1,0,7.434-2.02l6.548-6.548A3.941,3.941,0,0,0,61.333,8a4,4,0,1,0,0-8Z" transform="translate(-21.333)" fill="#22c6f9"/>
        </g>
      </g>
    </g>
  </g>
</svg>
