<svg xmlns="http://www.w3.org/2000/svg" width="133.833" height="100" viewBox="0 0 133.833 100">
  <g id="Group_1" data-name="Group 1" transform="translate(-641.734 -149.201)">
    <path id="Path_1" data-name="Path 1" d="M714.407,218.152a5.251,5.251,0,0,0-1.876-3.65,6.616,6.616,0,0,0-3.849-1.225,9.834,9.834,0,0,0-4.876.9,37.932,37.932,0,0,0-4.561,3.318c-.2.148-.441.278-.622.445-.141.13-.257.307-.386.452-.347.39-.712.762-1.084,1.128-.735.726-1.493,1.424-2.22,2.158a1.765,1.765,0,0,1-.072-.777.447.447,0,0,1-.018.065.95.95,0,0,0,.025-.137,1.763,1.763,0,0,0,0-.553v-.054a.074.074,0,0,0,.026.054.168.168,0,0,0,.043.007,1.783,1.783,0,0,0,.329-.007c.21-.188-.4-.286-.4-.426,0,.022,0,.054-.007.094a1.338,1.338,0,0,0-.018-.166.281.281,0,0,0,0,.054.894.894,0,0,0-.007-.1.469.469,0,0,0-.022-.1s0-.007,0-.011a.8.8,0,0,0-.036-.1.454.454,0,0,0-.047-.094.19.19,0,0,0,.181-.1l.054-.354c.007-.047.014-.09.021-.137.061-.361.156-.723.221-1.084l-.087.1a.254.254,0,0,0,.022-.054s-.007.011-.011.014a1.548,1.548,0,0,1-.155.256,1.59,1.59,0,0,1,.087-.148l-.072.083c0-.029.036-.051.072-.083s.047-.069.069-.108a.2.2,0,0,0,.018-.08l.036-.022c.141-.275.21-.651.325-.951a5.42,5.42,0,0,1,.26-.575c.1-.2.029-.249-.04-.448-.39-1.16.278-2.469.672-3.534a3.734,3.734,0,0,0,.083-.972c.033-.4.087-.792.152-1.185.141-.824.333-1.637.521-2.45a25.547,25.547,0,0,0,.849-5.212,10.457,10.457,0,0,1,.614-2.382,4.793,4.793,0,0,0,.123-2.592c.433-.087.6-.347.842-.676a.372.372,0,0,1-.416-.134c-.123-.191.051-.5.1-.694.12-.466.2-.943.275-1.42a14.642,14.642,0,0,1,.293-1.471,6.183,6.183,0,0,1,.213-.633,4.8,4.8,0,0,0,.326-.632,3.252,3.252,0,0,0-.062-.614,6.43,6.43,0,0,1,.015-.7,7.887,7.887,0,0,1,.2-1.2c.191-.821.473-1.616.687-2.433a8.686,8.686,0,0,0,.325-2.653,6.513,6.513,0,0,0-.087-.752.383.383,0,0,1,.022-.311,2.549,2.549,0,0,1,.213-.271,4.124,4.124,0,0,0,.535-1.142,7.109,7.109,0,0,0,.282-2.544,4.364,4.364,0,0,1,.416-1.457c.166-.528.307-1.062.43-1.6a67.468,67.468,0,0,1,1.568-7.08c-.318-.029-.08-.56-.094-.748a1.674,1.674,0,0,0-.076-.275.271.271,0,0,1,.011-.242c.076-.2.147-.405.21-.615a8.8,8.8,0,0,0,.372-2.822c-.011-.268-.029-.539-.062-.806a3.683,3.683,0,0,0-.144-.932c-.156-.361-.806-.629-1.146-.8-.426-.21-.864-.39-1.28-.618a4.992,4.992,0,0,1-.574-.358q-.147-.109-.282-.228c-.065-.061-.177-.235-.257-.264a2.306,2.306,0,0,0-.423.047,1.927,1.927,0,0,1-.354-.04,2.235,2.235,0,0,1-.553-.228,3.8,3.8,0,0,0-1.193-.531,41.694,41.694,0,0,1-.137,6.191,10.339,10.339,0,0,1-.311,1.485,3.074,3.074,0,0,0-.289.954,5.909,5.909,0,0,0,.163.8,2.5,2.5,0,0,1-.116.972c-.889,4.449-1.8,8.9-2.534,13.376q-.276,1.675-.517,3.354c-.079.546-.152,1.092-.22,1.641-.033.249-.065.5-.094.748a3.686,3.686,0,0,1-.293.871c-.77,2.067-.556,4.326-1.149,6.437-.079.282-.2.553-.278.835a6.554,6.554,0,0,0-.127.889c-.079.618-.173,1.233-.271,1.847-.2,1.189-.419,2.371-.651,3.553-.459,2.338-.95,4.669-1.29,7.029-.163,1.149-.293,2.306-.354,3.466a10.476,10.476,0,0,1-.39,1.742q-.217.911-.423,1.829c-.4,1.771-.759,3.549-1.1,5.331.029-.166.062-.336.094-.5a.994.994,0,0,0-.286.326c-.1.137-.1.087-.133.271s-.04.379-.058.568c-.065.567-.145,1.131-.235,1.695-1.3,1.084-2.656,2.111-3.983,3.162-1.355,1.077-2.718,2.147-4.1,3.188-1.406,1.052-2.834,2.078-4.3,3.05-.336.22-.672.441-1.012.658a7.555,7.555,0,0,0-.878.752,5.449,5.449,0,0,1-1.684.986,9.278,9.278,0,0,1-2.28.5,4.343,4.343,0,0,1-1.236.094c-.152-.029-.029.025-.152-.08-.043-.036-.112-.141-.152-.184-.1-.123-.185-.192-.127-.369-.272-.069-.232.13-.311.3-.112.235-.267-.007-.408-.141a5.307,5.307,0,0,1-.918-1.2,9.486,9.486,0,0,1-1.008-3.133c-.4-2.386-.332-4.818-.676-7.207a13.993,13.993,0,0,0-.325-1.626c-.065-.239-.137-.473-.22-.7-.1-.279-.137-.531-.452-.589a2.851,2.851,0,0,0-.5-.033c-.232,0-.228-.065-.319-.253s-.293-.622-.51-.7c-.119-.043-.3.025-.433-.026a.68.68,0,0,1-.282-.188,1.885,1.885,0,0,1-.166-.271c-.021-.033-.029-.137-.057-.156a1.244,1.244,0,0,0-.318.04,12.252,12.252,0,0,0-6.469,3.332c-1.952,1.782-3.55,3.925-5.548,5.656a3.736,3.736,0,0,0,.456-1.482,1.44,1.44,0,0,1,.281-.614,1.294,1.294,0,0,1,.271-.2,1.088,1.088,0,0,0,.141-.047c.022-.036-.04-.246-.043-.3a3.8,3.8,0,0,1,.336-1.9,1.674,1.674,0,0,1,.39-.567c.152-.13.115-.083.09-.264a2.152,2.152,0,0,1-.055-.459c.073-1.1,1.28-1.782,1.3-2.892,0-.152-.043-.249.029-.361.058-.094.224-.184.3-.264a6.622,6.622,0,0,0,.629-.687,11.043,11.043,0,0,0,1.161-1.8,9.652,9.652,0,0,0,.517-1.168c.054-.155.1-.314.151-.473.026-.094.054-.4.123-.452s.228.047.285,0c.033-.029.007-.192.007-.246a.614.614,0,0,0,0-.163c-.022-.043-.087-.007-.119-.065-.058-.109-.043-.268.119-.268,0,.126-.032.481.21.318.054-.036.112-.267.155-.34a3.846,3.846,0,0,1,.257-.344,1.494,1.494,0,0,0,.427-1.55c.2.271.39.17.517-.094.133-.279.155-.326-.1-.394-.314-.083-.155-.173.04-.329a3.994,3.994,0,0,0,.575-.532,8.172,8.172,0,0,0,1.417-2.573,11.971,11.971,0,0,1,1.352-2.736,5.651,5.651,0,0,1,.539-.629c.155-.156.141-.123.065-.318a.848.848,0,0,1-.058-.314c0-.509.232-.915.043-1.428.25,0,.152.416.525.322-.123-.567.159-.748.574-1.022a.667.667,0,0,0,.206-.166c.065-.123.011-.152-.026-.286a1.167,1.167,0,0,1,.044-.676c.278-.82,1.482-1.8.979-2.736,1.07-.112.5-1.908,1.569-2.02-.242-.549.1-.8.441-1.164.1-.112.365-.423.289-.6-.032-.069-.224-.069-.307-.159a.637.637,0,0,1-.112-.412c.166,0,.466.282.629.105a1.683,1.683,0,0,0,.036-.437,1.57,1.57,0,0,0-.036-.517.375.375,0,0,0,.314-.636h.521c-.477-.972.488-1.72.94-2.465.246-.4-.011-.579-.264-.868-.083-.094-.141-.133-.083-.253.137-.286.506,0,.662.08a20.244,20.244,0,0,1,1.373-4.214c.293-.715.582-1.435.831-2.168.126-.369.242-.741.343-1.117.065-.242.094-.253-.116-.347-.127-.058-.271-.09-.34-.228a1.352,1.352,0,0,1,.542.058c.238.033.282-.04.3-.267a4.708,4.708,0,0,1,.394-1.414c.329-.8.9-1.746.542-2.624a.561.561,0,0,1-.1.423v-.636c.148,0,.34.127.484.09.22-.058.181-.383.214-.567a12.939,12.939,0,0,1,.365-1.431c.286-.925.64-1.829.911-2.762a9.567,9.567,0,0,0,.3-1.315,6.051,6.051,0,0,0,.061-.676c.007-.213-.051-.455-.021-.665s0-.033.1-.181a1.94,1.94,0,0,0,.134-.159,1.559,1.559,0,0,0,.145-.456,2.348,2.348,0,0,1,.332-1.012.3.3,0,0,1-.347-.069c-.108-.134-.05-.2,0-.3.1-.2.21-.329.452-.267.477-2.9,1-6,.065-8.862a8.733,8.733,0,0,0-.394-1,2.166,2.166,0,0,0-.564-.885c-.517-.379-1.1-.647-1.648-.972a4.964,4.964,0,0,1-.7-.48,2.594,2.594,0,0,1-.347-.347c-.08-.09-.192-.351-.282-.409a2.076,2.076,0,0,0-.766-.04,7.2,7.2,0,0,0-.785.051c-3.932.517-5.067,5.009-6.379,8.089-.2.466-.405.929-.64,1.381-.116.231-.238.455-.369.676-.061.1-.123.206-.188.307-.109.166-.156.2-.133.383a1.52,1.52,0,0,1-.124,1.066,3.2,3.2,0,0,0-.3.7c-.05.166-.289,1.153-.456.557a1.041,1.041,0,0,0,0,.849c-.827.314-.726,1.308-.625,2.02H659.8c.687,1.192-1.142,1.825-.73,2.971.083-.083.173-.726.289-.611s-.2.762-.249.911c-.109.315-.213.629-.322.943-.358,1.037-.723,2.071-1.045,3.119a.1.1,0,0,1,.144.025c.047.05.044.094-.011.126a1.233,1.233,0,0,1-.141.249c-.105.184-.21.336-.445.336.173,1.048-.523,1.857-.523,2.87-.456-.239-.34.448-.315.452.137.033.231-.333.311-.058.047.148-.148.448-.221.582-.115.21-.249.409-.376.615a1.528,1.528,0,0,0-.339,1.171c0-.1.123-.553.263-.51.123.04-.22,1.019-.263,1.146-.163-.083-.116-.426-.315-.426a11.126,11.126,0,0,1-.488,2.75,13.2,13.2,0,0,0-.293,1.334c-.021.134,0,.477-.133.513-.116.029-.217-.134-.34-.134a11.82,11.82,0,0,1-.579,3.3c-.151.528-.31,1.059-.43,1.6-.065.289-.123.582-.166.878-.021.144-.039.293-.054.437-.011.087-.018.173-.026.26l-.163.043c-.144.08-.307.09-.408.243-.076.108-.141.473-.022.574.17.141.152-.217.314-.227.177-.011-.1.39-.115.423a5.5,5.5,0,0,0-.38.872,13.874,13.874,0,0,0-.426,1.655c.1-.13.228-.141.26.029.025.144-.184.506-.246.632a2.224,2.224,0,0,1-.315.488c-.069.083-.386.285-.2.365.167.065.481-.21.253.188-.141.249-.221.691-.539.77.09,0,.213-.054.3-.014.177.08.058.123-.007.22a1.754,1.754,0,0,0-.315.582c-.123.466-.065.958-.173,1.424a1.211,1.211,0,0,1-.264.553c-.123.137-.437.264-.307.5.079.148.239.094.213.278-.014.109-.13.239-.155.365a3.219,3.219,0,0,0-.026.556.409.409,0,0,0-.314-.119c-.185.058-.055.1-.015.173a.843.843,0,0,1,.152.52c-.011.2-.21.965-.553.7a7.716,7.716,0,0,1-.419,3.369c-.162.582-.343,1.156-.5,1.742a4.83,4.83,0,0,1-.206.828c-.083.159-.04.119-.17.033-.073-.054-.04-.13-.166-.13-.224,1.814-.426,3.639-.8,5.432a13.722,13.722,0,0,1-1.814,4.872c0-.282-.351-.21-.473-.076a.933.933,0,0,0-.232.611c-.014.433.181.842.181,1.272.1,0,.235-.119.326-.094.177.047.043.307.014.416-.1.43-.213.86-.322,1.29-.22.853-.452,1.7-.687,2.552-.455,1.651-.939,3.3-1.421,4.944-.234.792-.47,1.587-.7,2.382-.112.387-.221.77-.333,1.153a1.456,1.456,0,0,0-.1.517,3.4,3.4,0,0,0,.133.564,17.168,17.168,0,0,0,1.767,4.12c.08.141.163.278.246.416.116.188.134.21.34.256a4.931,4.931,0,0,1,.824.333c.387.159,1.088.141,1.168-.379.029-.184-.044-.394,0-.575.054-.238.408-.517.574-.712.5-.578.972-1.167,1.442-1.767,1.847-2.353,3.534-4.829,5.353-7.207a36.44,36.44,0,0,1,6.954-7.253c.611,3.925,1.677,8.088,4.153,11.283a10.252,10.252,0,0,0,4.131,3.267,9.615,9.615,0,0,0,2.707.683,6.78,6.78,0,0,0,1.5.061,6.521,6.521,0,0,0,1.746-.629,15.7,15.7,0,0,0,6.563-5.212.38.38,0,0,0,.3.1c.173-.033.13-.108.188-.278a2.818,2.818,0,0,1,.311-.636,4.587,4.587,0,0,1,.929-.958,4.406,4.406,0,0,0,1.717-2.057c.08.163.329.907.589.419.156-.289-.275-.647-.275-.951a1.614,1.614,0,0,0,1.568-1.276c-.1,0-.238.123-.325.094-.166-.054-.043-.253.008-.347a1.333,1.333,0,0,1,.653-.556l.25-.123a.5.5,0,0,0,.08-.043.949.949,0,0,1,.2-.123l.09-.047a1.2,1.2,0,0,0,.253-.217c.014-.018.029-.032.043-.05a.667.667,0,0,1-.133.166.5.5,0,0,1-.12.094.331.331,0,0,1-.076.054.32.32,0,0,1-.065.043v-.007a1.274,1.274,0,0,1-.231.119c-.163.17-.192.665-.249.911-.076.34-.156.68-.235,1.019-.311,1.319-.633,2.642-.94,3.965a61.774,61.774,0,0,0-1.427,8.237c-.065.709-.109,1.413-.134,2.122a4.037,4.037,0,0,0-.011.557c.014.17.014.133.163.217a2.1,2.1,0,0,1,.462.4,3.062,3.062,0,0,0,.839.791.84.84,0,0,0,.524.062c.2-.036.151-.09.275.08.08.108.133.235.209.347a3.567,3.567,0,0,0,2.512,1.435,4.266,4.266,0,0,0,.644.037c.119,0,.242-.011.361-.022.214-.022.181-.083.192-.282.033-.657.062-1.319.094-1.981a19.2,19.2,0,0,1,1.774-7.954c-.21-.072-.43.275-.52.083-.126-.271.235-.835.372-1.052a3.947,3.947,0,0,0,.477-.864c.04-.116.156-.379.018-.412s-.148.1-.2.173-.058.134-.166.166c-.282.094-.17-.235-.148-.4q.076-.7.217-1.4c.145-.741.343-1.471.466-2.219a8.5,8.5,0,0,0,.119-1.175,3.853,3.853,0,0,1,0-.542c.036-.2,0-.05.1-.17a2.024,2.024,0,0,0,.17-.181,4.64,4.64,0,0,0,.445-1.937c.025-.173.058-.347.1-.52s.062-.318.2-.4.314-.072.452-.144a1.833,1.833,0,0,0,.369-.275c.415-.39.636-.932,1.033-1.337.138-.137.521-.249.315-.463-.065-.069-.6-.181-.365-.419a1.613,1.613,0,0,1,.278-.029,1.779,1.779,0,0,0,.362-.123,1.555,1.555,0,0,0,.481-.354.686.686,0,0,0,.029-.979c.282,0,.593.141.788-.1.239-.3.412-.665.651-.976a13.2,13.2,0,0,1,1.587-1.681c.571-.52,1.164-1.008,1.75-1.511a1.547,1.547,0,0,0,.365-.372c.065-.105.1-.235.159-.343a3.048,3.048,0,0,1,.517-.658,21.926,21.926,0,0,1,2.8-2,3.952,3.952,0,0,0,.5-.419,1.243,1.243,0,0,1,.185-.224,4.688,4.688,0,0,1,.582-.166c.549-.224.987-.654,1.561-.831a.833.833,0,0,1,.257-.065c-.036,0,.065.094.069.094.152.083.083-.069.155.119a.865.865,0,0,1,.022.213c.032.372.05.748.058,1.121a18.079,18.079,0,0,1-.087,2.165,22.625,22.625,0,0,1-.911,4.406,30.269,30.269,0,0,1-4.023,8.168,26.815,26.815,0,0,1-6.466,6.762,16.709,16.709,0,0,1,.745-6.372,29.2,29.2,0,0,1,2.7-6.376c-.159-.043-.419.5-.315-.05a1.128,1.128,0,0,1,.173-.456c.192-.253.3.033.459.188.4-.307,0-.69,0-1.059a42.07,42.07,0,0,0-5.335,8.569,17.878,17.878,0,0,0-1.377,5.006,2.514,2.514,0,0,0-.025,1.167,3.669,3.669,0,0,0,.723.882,7.876,7.876,0,0,0,1.923,1.435,7.607,7.607,0,0,0,2.176.781,6.135,6.135,0,0,0,1.124.108,2.636,2.636,0,0,0,1.265-.567c.723-.448,1.4-.951,2.1-1.421.354-.238.712-.466,1.087-.669a3.249,3.249,0,0,0,.85-.983c2.1-2.8,4.376-5.609,5.573-8.945.079-.224.14-.463.228-.686a3.908,3.908,0,0,1,.354-.633c.25-.416.484-.838.7-1.272a17.636,17.636,0,0,0,1.077-2.671,17.061,17.061,0,0,0,.719-5.945M702.49,167.7c.21.109,0,.217,0,.325-.21,0,0-.217,0-.325m-50.946,38.383c0-.21,0-.528.314-.528,0,.318,0,.636-.314.528m.21,4.146c.1-.213.21-.322.419-.322-.1.213-.209.322-.419.322m-.105-3.083c0-.423.315-.423.629-.531-.21.213-.314.531-.629.531m1.045-3.5c.1-.108.1-.426.21-.639.314.108.1.849-.21.639m.733-.108c-.1-.318.209-.21.106-.636.52-.105.209.744-.106.636m.625,14.764a.406.406,0,0,1-.105-.636c.315.1.21.528.105.636m.733-2.866c-.1-.318.21-.213.21-.426.315.108,0,.531-.21.426m1.359-4.886c-.126,0-.18.033-.21-.08a.17.17,0,0,1,.1-.2c.152-.072.246.145.112.282m2.509-.744c-.419-.318.315-.532.1-1.063.629.1-.1.745-.1,1.063m1.568-7.221c.315,0,0,.423,0,.423-.314,0-.1-.423,0-.423m.315,2.017c-.123,0-.137.2-.282.1-.126-.083.018-.2.058-.278.058-.1-.05-.109.09-.145.044-.011.12,0,.134.018.033.043,0,.246,0,.3m2.613-9.241c-.105,0-.105-.318-.105-.423.525-.109.105.21.105.423m.625,1.912c-.206.108-.206-.1-.416-.1,0-.318.521-.318.416.1m-.206-2.125c-.08-.156.083-.672.3-.528.152.1.04.379.112.528Zm.521-3.607c-.221,0-.141-.419.028-.343.192.083-.007.264-.028.343m.209,2.122c0-.423.209-.423.524-.423-.1.21-.209.423-.524.423m.94-2.866c-.105-.322.314-.213.21-.64a.341.341,0,0,1-.21.64m2.613-6.693c-.206-.531.315-.423.21-.849.524,0,0,.745-.21.849m.734-3.4a.834.834,0,0,1,0-.213c0,.011.094-.025.1-.029.043-.036.04-.155.126-.033.112.152-.04.4-.224.275m.524,2.975c-.068,0-.2.029-.253,0-.032-.018-.134-.145-.061-.213a.559.559,0,0,1,.22,0c.138.043.094,0,.094.213m.521-8.5v-.426c.314-.213.314.531,0,.426m.734-1.7a.75.75,0,0,1-.253,0c-.033-.018-.133-.141-.061-.21a.579.579,0,0,1,.221,0c.137.043.094,0,.094.21m1.464-2.122a.807.807,0,0,0,.1-.531c.311.1.416.531-.1.531m1.254-7.225c-.21,0-.21-.318-.21-.636.314,0,.419.531.21.636m-.734,2.234c.239,0,.629-.014.629.318a2.661,2.661,0,0,1-.509,0c-.192-.04-.087.029-.119-.127a1.118,1.118,0,0,1,0-.191m-5.121-8.179c.419.105,0,.423.21.745-.419.1-.419-.531-.21-.745m1.569,2.548c.875-.4,1.192-1.612,1.8-2.3a2.226,2.226,0,0,1,1.367-.766c.26-.032.2.148.228.379s.047.441.069.658c.04.477.057.958.065,1.435a38.594,38.594,0,0,1-1.811,10.514c-.484,1.778-.984,3.556-1.3,5.374.333-.116.018-.741.524-.636-1.319,4.023-2.635,8.053-4.258,11.967q-.6,1.448-1.251,2.877l-.357.77c-.065.141-.3.452-.192.611.058.083.166.05.239.1a.345.345,0,0,1,.058.387c-.076.133-.09.058-.206-.029-.036-.029-.1-.112-.148-.108-.1,0-.123.21-.155.314-.177.539-.365,1.077-.561,1.608-.39,1.074-.816,2.133-1.268,3.181-.922,2.15-1.948,4.258-2.982,6.357.188,0,.094.2,0,0a3.247,3.247,0,0,0-.434,1.4c-.036.177-.079.586-.264.643-.13.04-.263-.177-.383-.126-.148.065-.138.94-.17,1.121a2.57,2.57,0,0,1-.361,1.008.735.735,0,0,1-.293.264c-.061.029-.141.022-.2.047-.123.054-.076,0-.127.163-.126.4-.188.824-.333,1.225a3.319,3.319,0,0,1-1.518,2.006c.553-1.008.94-2.1,1.4-3.155a15.077,15.077,0,0,1,.752-1.536,6.934,6.934,0,0,1,.427-.654c.1-.133.35-.333.35-.5.372,0,.506-.773.6-1.045.151-.433.311-.864.473-1.294q.461-1.236.958-2.454c.676-1.67,1.391-3.325,2.118-4.973,1.471-3.358,2.971-6.7,4.268-10.127.763-2.013,1.453-4.055,2.032-6.13-1.858,4.182-3.636,8.4-5.378,12.632q-1.273,3.1-2.523,6.2c-.191.484-.387.969-.582,1.449a11.867,11.867,0,0,1-.82,1.446c-.564.986-1.085,1.995-1.587,3.014-1.152,2.335-2.2,4.72-3.43,7.019,1.041-7.319,3.434-14.349,5.3-21.476.459-1.753.886-3.513,1.25-5.284.09-.433.174-.864.256-1.3a2.675,2.675,0,0,1,.138-.586c.054-.123.137-.239.2-.361a11.384,11.384,0,0,0,.683-1.789,30,30,0,0,1,1.276-3.86,6.144,6.144,0,0,1,.426-.769c.094-.137.185-.217.188-.387a1.682,1.682,0,0,0-.13-.506,1.63,1.63,0,0,1,.224-1.164c.184-.452.369-.9.549-1.355,1.561-3.853,3.108-7.713,4.8-11.511m-14.743,41.849c-.311-.108-.105-.531-.105-.853.524,0-.1.426.105.853m.629-8.074c.4.1.332-.441.523-.636.192.394.065,1.486-.523,1.486a.794.794,0,0,0,0-.849m.271-1.381a.673.673,0,0,1,.253,0c.051.047-.021.2-.039.213-.047.029-.217,0-.275,0,0-.126-.026-.17.061-.213m.459,4.142a.226.226,0,0,0-.206.213c-.459-.116-.1-1.168.311-1.168a1.638,1.638,0,0,0-.1.954m2.093-8.7c-.044.137,0,.094-.21.094a.771.771,0,0,1,0-.256c.018-.033.141-.134.21-.061a.586.586,0,0,1,0,.224m0-4.9c0-.173,0-.3.235-.253.133.026.184.112.184.253Zm0,5.945c-.1,0-.21-.1-.21-.318.105,0,.21.108.21.318m-.419-2.23c0-.318-.1-.741.105-.954.21.318.419.954-.105.954m0,2.761c.105.213-.1,1.063-.415,1.171.1-.426.1-.958.415-1.171m-.209,1.807c-.09.372-.213.745-.625.849.09-.271.263-.333-.105-.427.073-.22.477-.686.73-.423m-.73,2.017c-.314,0,0-.423,0-.531.315.109.105.426,0,.531m-.314-2.653a1.093,1.093,0,0,1,.029-.224c.014-.058.076-.1.076-.2.224,0,.2.636-.1.426m2.3-9.986c.419.108.21.426.21.64-.311.1-.105-.427-.21-.64m.419,1.062c.733.426-.419.745-.21,1.381-.626-.213.21-.849.21-1.381m1.673-2.125c-.419-.423,0-1.167.105-1.594.625.322-.315.853-.105,1.594m-.419-2.23c-.105-.213.1-.318.1-.531.21,0,.21.745-.1.531m-.521,1.168c.105-.318.416-.532.416-1.063.42.109,0,1.063-.416,1.063m.311,4.677v-.322c.314-.213.314.531,0,.322m-.311-3.567c-.014.029-.137.141-.21.062a.592.592,0,0,1,0-.224c.043-.13.029-.094.21-.094a.758.758,0,0,1,0,.256m-.21-1c-.314-.108.105-.64.105-.849.31.21-.105.636-.105.849m0,3.929c0,.054.036.282,0,.318a1.523,1.523,0,0,1-.314,0,1.343,1.343,0,0,1,0-.318c.036-.036.26,0,.314,0m-.629,2.338a5.215,5.215,0,0,0,.141-.885c.014-.1.079-.6.26-.351.148.206-.275.6.228.6-.191.2-.3.639-.629.639m.629,1.381c-.209-.109-.419-.213-.419-.532.21.105.419.213.419.532m1.774-12.429v-.423c.315-.213.315.532,0,.423m.315,1.063c0-.21.1-.318.1-.423.21-.109.21.636-.1.423m.629-4.247a.993.993,0,0,1,.264.1c.051.05.051.018.051.112,0,.126.014.058-.087.112-.22.12-.333.1-.333.419-.449-.181-.1-.531.1-.741m-.315-.958c.315,0,.315.322.315.64a.648.648,0,0,1-.315-.64m.781-.253c.126.018.159.141.159.253h-.31c0-.123-.033-.278.151-.253m3.192-10.261a.269.269,0,0,1,.419.213,1.285,1.285,0,0,1-.311,0c-.14-.043-.108-.022-.108-.213m-1.254,5.523c.1.426-.21.426-.21.636-.314-.1-.209-.741.21-.636m-.419-1.912c.474,0-.1.915-.1.213.112,0,.1-.137.1-.213m-.206.849v.426c-.419.1-.525-.531,0-.426m-.419.636c.419,0,.315.535-.105.427,0-.213.105-.318.105-.427m-.307,1.33c.282-.144.69.033.622.373a.4.4,0,0,0-.315-.08c-.09.01-.22.126-.315.08a.209.209,0,0,1,.007-.373m-.007,5.15c.051.047-.021.2-.04.213-.043.029-.22,0-.275,0,0-.127-.025-.17.062-.213a.658.658,0,0,1,.253,0m-.625-3.715c.34-.072.416.3.362.556-.014.065-.065.286-.156.293-.123.011-.1-.358-.1-.426-.347.239-.119.95-.73.849a4.487,4.487,0,0,1,.629-1.272m-.629,1.486c.314.213-.105.849-.105,1.062-.419-.213-.1-.849.105-1.062m-.525,2.23a1.1,1.1,0,0,1-.065-.835c.094-.163.145-.134.2.025.058.2-.076.535.289.387a.9.9,0,0,1-.264.329c-.134.1-.112.051-.177.206a1.826,1.826,0,0,0-.061.282,1.259,1.259,0,0,1-.542.882c-.227-.463.228-1.07.625-1.276m-.835,2.23c.105.109.105.318.315.318,0,.322-.419,0-.315-.318m-.314.318c.524.108.1.853,0,1.171a1.505,1.505,0,0,1,0-1.171m-.314,1.489c.094,0,.1-.01.1-.1.181,0,.188.329.065.409-.227.145-.17-.177-.17-.3m-.206.532c.318-.083.293.21.52.21-.1.322-.441.434-.73.535-.08-.322.285-.423.21-.744m-.419,1.276c.314-.109.419.318.21.527-.21,0-.315-.21-.21-.527m-.21.527a2.708,2.708,0,0,1-.315,2.021c-.314-.1.21-1.489.315-2.021m-.209,2.657a2.551,2.551,0,0,0-.73,1.276c-.524-.213.21-1.7.73-1.276m-1.255,1.912c.333,0,.618.152.524.532-.235-.239-.242.065-.459.112-.387.083-.007-.47-.065-.643m-.1,1.381c.452.094-.047.488.21.745h-.524a5.6,5.6,0,0,0,.315-.745m-.626,1.381c0-.094.257-.141.311-.105s.061.477.069.571a4.743,4.743,0,0,1-.043.932c-.091.712-.351-.224-.268-.235-.029,0-.061.1-.069.112-.531-.321.433-.943,0-1.275m-.419,1.807c.091,0,.336-.047.405,0,.163.108.12.571.12.741-.344-.173-.423.134-.734.213,0-.419.466-.52.21-.954m0,1.7c-.21-.1,0-.213,0-.426.21.109,0,.213,0,.426m-.524.636c0-.325.2-.911.488-.416.1.17.257.766-.083.748-.156-.007-.133-.1-.21-.2-.029-.036-.036-.083-.083-.108-.09-.043-.09.025-.12.033-.069.018-.087.108-.188.022-.137-.116.152-.087.2-.08m-.416.636c.134,0,.326-.12.409-.087.13.047.112.192.073.3a.482.482,0,0,1-.26.289c-.253.069-.311-.315-.221-.5m-.21.64c.413-.109.416.206.416.531-.1,0-.372.04-.416-.025-.057-.083,0-.394,0-.506m-.1.849a.86.86,0,0,1,.243.069c.169.047.14.018.173.163a1.561,1.561,0,0,1-.12.7,1.824,1.824,0,0,1-.611.875c.112-.571-.051-1.312.315-1.807m-.629,2.338c.209-.072.419-.054.419.21a1.284,1.284,0,0,1-.311,0c-.141-.04-.108-.025-.108-.21m-.21.636c.629.213-.105,1.167-.105,1.485-.73-.21.21-.954.105-1.485m.1,2.125c.1.527-.416.423-.73.527-.1-.423.419-.423.73-.527m-.983,1.243c.213-.043.3-.022.359-.289.216.22.14.527.075.8a2.324,2.324,0,0,0-.075,1.113c-.333-.336-.319-.918-.532-1.323-.119-.228-.047-.253.173-.3m-.166,1.2c-.1,0-.1-.322-.1-.531.314.1.314.318.1.531m-.679,1.724a2.559,2.559,0,0,0,.365-1.088,3.088,3.088,0,0,1,.314-.213c.149-.018.307.163.326.293.014.109-.072.365-.181.409-.177.069-.145-.243-.145-.383-.329.224.1.763,0,1.063-.043-.043-.249-.166-.314-.1s0,.2.021.253c.069.181.217.286.083.488-.209-.21-.614-.372-.47-.715m-.05.929c.21-.109.419.408.52,0,.264.267-.08.632-.35.712-.423.119-.376-.5-.17-.712m-.21,1.276c.383.065.318.383.26.676-.033.166-.025.354-.061.513a.349.349,0,0,1-.513.192c-.109.434.094,1.171-.524,1.276a9.221,9.221,0,0,1,.839-2.656m-.943,2.975c.4.133.163.34.011.574-.04.062-.192.293-.112.38.155.166.206-.137.206-.213.333.224.022.911-.311.64-.369-.3.206-1.034.206-1.381m-.626,1.912c.278-.094.3.213.524.213-.08.394-.155,1.044-.629,1.167a4.541,4.541,0,0,0,.1-1.381m-.1,1.912c.3,0,.347.524.1.636s-.282-.318-.523-.318c0-.213.419-.029.419-.318m-5.121,26.022c-.054,0-.278.036-.315,0a1.656,1.656,0,0,1,0-.322,1.313,1.313,0,0,1,.315,0c.036.036,0,.268,0,.322m0-1.062v-.426c.31-.1.31.636,0,.426m.625-.849c-.835-.109-.1-.853,0-1.171.315.213-.209.64,0,1.171m.21-1.276c-.314-.213-.1-.651-.1-.954a.365.365,0,0,0,.21.1c.137.029.184.029.22-.08s-.054-.289-.105-.383c-.1-.188-.318-.39-.115-.593.625.528.184,1.327-.105,1.912m.94-2.125c-.94-.423.1-1.7.314-2.23.315.745-.416,1.381-.314,2.23m1.883,2.125c-.21-.636.524-1.381,1.045-1.594-.21.745-.835.958-1.045,1.594m1.254-1.912c-.1-.426.21-.318.419-.426.1.322-.105.426-.419.426m.734.958v-.322c.311-.21.311.531,0,.322m.206-1.916c.209-.318.314-.741.733-.849a.894.894,0,0,1-.733.849m.629,1.063c-.21-.21.21-.849.629-.955.1.636-.314.745-.629.955m.73-2.443c0-.184,0-.192.126-.311.1-.09.123-.163.184,0,.076.184-.116.448-.311.314m.21,1.381c-.105-.423.21-.636.629-.741a1.138,1.138,0,0,1-.629.741m.419-1.912c-.315-.1.1-.423.21-.636.523.213-.105.426-.21.636m.94.531a.438.438,0,0,1,.014-.318c.014-.043.094-.314.1-.318.057-.047.332,0,.412,0-.1.3-.13.636-.524.636m.524-.741c0-.531.629-.318.629-.958.626.213-.419,1.275-.629.958m1.254-.958c-.419-.21.21-.532.21-.741.524.21-.21.531-.21.741m2.927-2.548v-.318c.419-.213.419.531,0,.318m21.118,9.241c-.152,0-.166.033-.21-.065a.686.686,0,0,1,0-.256c.047-.047.2.014.21.04.029.043,0,.224,0,.282m6.741,10.51c-.293-.065-.21-.336-.26-.582.509-.228.369.437.26.582m-.119-1.247c-.048-.239-.124-.6.419-.716-.083.268-.011.632-.419.716m-6-9.795c-.52-.108-.105-.531.21-.531,0,.21-.1.318-.21.531m.524-.426a2.938,2.938,0,0,1,1.883-1.7,9.439,9.439,0,0,1-1.883,1.7m3.452-1.381c-.106-.531.625-.213.625-.636.629.213-.21.636-.625.636m1.044-.849v-.426c.315-.21.315.64,0,.426m.835-.531c-.52,0-.314-.849.314-.636a.641.641,0,0,1-.314.636m1.073-.86,0,0a1.557,1.557,0,0,1-.546.325,1.107,1.107,0,0,1,.571-.943,1.2,1.2,0,0,1,.123-.061c-.047.228-.094.452-.145.676m-1.717-.058c-.9.669-1.818,1.294-2.7,1.98a14.963,14.963,0,0,1,2.9-2.562c.51-.372,1.023-.737,1.521-1.124a4.537,4.537,0,0,0,.416-.322.666.666,0,0,0,.224-.376c-.011.069-.025.137-.036.206.069-.058.137-.116.206-.177-.029.047-.058.09-.083.13,0,.007-.01.011-.01.018a1.168,1.168,0,0,0-.166.354.051.051,0,0,0-.007.026c.011-.065.021-.13.033-.2-.065.087-.13.17-.2.253a12.158,12.158,0,0,1-2.089,1.789m2.422-.249a.777.777,0,0,1-.011.094c0,.022-.007.043-.011.061a.064.064,0,0,1,0,.029c0,.007,0,.011,0,.015a.2.2,0,0,1-.011.05.054.054,0,0,0-.007.025.257.257,0,0,1-.011.029c.007-.025.014-.054.022-.08a.168.168,0,0,0,.01-.058.013.013,0,0,0,0-.011,1.051,1.051,0,0,0,.022-.155m-.17-1.558-.054.311c.015-.094.033-.192.047-.286a.064.064,0,0,1,.007-.025m-.119.676a1.419,1.419,0,0,1-.054.293c.018-.1.036-.2.054-.293m-.174,1.03v-.011a1.258,1.258,0,0,1,.343-.116,1.4,1.4,0,0,0-.343.127m.6,5.79v0c-.015.065-.04.112-.08.123a.77.77,0,0,1-.083.011.15.15,0,0,1-.04,0,.318.318,0,0,1-.206-.043.343.343,0,0,1-.119-.073.413.413,0,0,1-.05-.04.839.839,0,0,1-.112-.116.094.094,0,0,0,.043.011.346.346,0,0,0,.268-.112l.007-.007a.455.455,0,0,1,.163-.188.112.112,0,0,1,.087-.014c.007,0,.011,0,.018,0l.021.011a.128.128,0,0,1,.022.022.081.081,0,0,1,.014.018.558.558,0,0,1,.047.387m5.627-19.69c.452.163.4-.083.857.08.05.239-1.023.459-.857-.08m.293.994c-.04.109-.21.268-.336.156-.054-.047-.058-.289-.073-.365.21.127.156-.271.347-.144.1.061.1.264.061.354m-.267-6.328c-.026-.123.242-.181.267-.054.05.246-.134.029-.267.054m.524,2.555c.242-.173.416.676-.007.636-.076-.365.058-.39.007-.636m.185-.416a.181.181,0,0,1-.264.033c-.163-.152.069-.249.065-.372.181-.134.282.224.2.34m.466-7.962c-.073-.365-.174-.857.26-.813.072.365.148.73-.26.813m.567,3.437c-.426-.04-.21-.34-.1-.484.293.065.051.239.1.484m.983-5.407c-.112.025-.13.04-.108.156-.174.032-.217-.376-.235-.466.25-.05.3.1.343.311m-.282-10.217.076.365-.268.054a.989.989,0,0,1-.057-.278c0-.022-.029-.069-.018-.087s.235-.047.267-.054m-.108,2.179a1.253,1.253,0,0,1-.047.611,1.686,1.686,0,0,1-.051.238c.026.036.026.054,0,.058a.656.656,0,0,1-.083.018.084.084,0,0,0-.047.011c-.235-.278-.466-.383-.441-.8l.665-.134m-.922,1.554c.022-.054.25-.643.271-.654.141-.065.22.173.419.04-.018.018-.011.062.029.119a1.456,1.456,0,0,1,.015.217,2.169,2.169,0,0,1-.029.3,1.738,1.738,0,0,0-.026.625c-.419-.094-.946-.047-.68-.651m-.1.943c.564.007.629,1.008.091,1.12-.366-.43-.441-.8-.091-1.12m-.415,2.042c.032-.1-.029-.007.083-.076a2.086,2.086,0,0,1,.571-.116c-.232.177-.268.434-.593.5-.015-.076-.083-.239-.061-.307m.271.647c.687-.033.437.8.083,1.062-.09.069-.289.083-.358.145-.086.08.007.43.04.564a1.591,1.591,0,0,1,.086.925c-.018-.033-.159-.35-.213-.343s-.058.119-.076.159a.9.9,0,0,1-.249.343c-.047.036-.188.141-.239.126s-.083-.22-.09-.267c-.083-.567.708-1.344-.148-1.587.332-.343,1.128-.578,1.164-1.128m-1.583,4.037a2.165,2.165,0,0,1,1.265-.8c.051.253-.166.376-.007.64-.556-.278-.517.343-.513.723.007.513.011,1.218-.586,1.41-.083-.405-.267-.709-.708-.748a12.055,12.055,0,0,1,.549-1.222m-4.218,24.851a.249.249,0,0,1,.051,0,.2.2,0,0,1,.047,0,.53.53,0,0,1-.072.141c-.026-.054-.036-.09-.021-.112a.039.039,0,0,1,0-.022m-.527.34c.01.173.043.192-.105.289a1.233,1.233,0,0,1,.105-.289m.057,15.068c.051.246-.249.173,0,0-.422-.672.376-.21,0,0m.4-7.568c.318.184.1.484.152.73-.4.083-.26-.582-.152-.73m.3,9a1.348,1.348,0,0,1-.209,0s0-.21,0-.21a1.019,1.019,0,0,1,.209,0,.824.824,0,0,1,0,.21m-.007-17.308a.011.011,0,0,0,0,.007v.011a.156.156,0,0,0,0-.018m.073,6.708c0-.007,0-.011,0-.018l-.011-.043a.452.452,0,0,1-.036-.177s.018-.007.043-.014a.126.126,0,0,0,.04-.007.438.438,0,0,1,.127-.025s.007,0,.01,0l.047-.007a.066.066,0,0,1,0,.025c.025.022.04.061.029.133,0,.014-.007.029-.01.04a.083.083,0,0,1-.015.029l-.011.01a.2.2,0,0,1-.116.036.192.192,0,0,1-.043.007l-.054.011m.087-6.26h0c.01-.05.025-.1.039-.159a.191.191,0,0,1,0,.047.063.063,0,0,1,0,.025.631.631,0,0,1-.086.325,1.017,1.017,0,0,0-.007-.275,0,0,0,0,0,0,0,.272.272,0,0,1-.061-.126.317.317,0,0,0,.054.083.273.273,0,0,1,.054.083m-.025-.528a.114.114,0,0,1,.033.007l0,0-.036-.011m.26,9.889c0,.011-.007.018-.011.029a.461.461,0,0,0-.032.2.457.457,0,0,1,.022.08.091.091,0,0,1,0,.054c-.018.192-.365-.029-.191-.155l.025-.015a.155.155,0,0,1,.033-.014.365.365,0,0,1,.083-.025,2.128,2.128,0,0,1-.04-.249,1.979,1.979,0,0,1-.011-.412,1.559,1.559,0,0,1,.047-.3.79.79,0,0,1,.044-.141.579.579,0,0,1,.058-.137.65.65,0,0,1,.065-.119.059.059,0,0,1,.011-.014.931.931,0,0,1,.087-.12,1,1,0,0,1,.105-.112c-.008.079-.011.159-.018.239s-.011.159-.022.238-.015.148-.029.22-.029.17-.05.253c0,.01,0,.018-.007.029a2.726,2.726,0,0,1-.166.47m.043-11.768a.715.715,0,0,1,0,.3.04.04,0,0,1,0,.018.949.949,0,0,1-.011.163.4.4,0,0,1-.018.065.121.121,0,0,1-.022.043.038.038,0,0,1-.01.026s-.007,0-.007-.011-.011.007-.018.007a.688.688,0,0,1,.025-.094c0-.011.007-.025.01-.04s.011-.036.014-.058a1.765,1.765,0,0,0,.044-.315,1.019,1.019,0,0,0,0-.108m-.011-.062h0c.018,0,.022.022.007.055-.022-.033-.029-.051-.011-.055m.05,3.213c0-.05.014-.076.032-.087,0-.033-.05-.029-.047-.09v-.011c-.047-.087.029-.184.1-.278-.014.029-.033.057-.047.087-.065.13-.05.058-.054.192a.223.223,0,0,0,.076.076l.022.01s0,0,.007,0a.013.013,0,0,1,.01,0,.172.172,0,0,1,.044.007.2.2,0,0,1,.043.014s0,0,.007,0a.024.024,0,0,1,.015,0,.243.243,0,0,0,.05,0,.1.1,0,0,1,0,.033v0c.018.015.018.04-.01.08a.144.144,0,0,0-.022.025.041.041,0,0,0-.01.015.021.021,0,0,1-.015.007s0,.007-.007,0-.007.011-.01.011l-.011.011a.115.115,0,0,1-.134,0,.177.177,0,0,1-.076-.015h0c-.25.022.036-.148.036-.1m.56-3.6c.007.05-.036.1-.033.141-.029.018-.044.033-.04.047a0,0,0,0,0,0,0,.107.107,0,0,1,.025.032.029.029,0,0,1,.018.018.092.092,0,0,0-.087-.022.383.383,0,0,0,.04-.033.577.577,0,0,0-.34-.116c.112-.1.376-.278.412-.072m-.21-3.314a.709.709,0,0,1,.022.231c0-.08-.04-.156-.022-.231m.2,3.574a.081.081,0,0,1,.018.04.155.155,0,0,1,.011.058s0,0,0,0-.01.029-.021.058a.143.143,0,0,0,.007-.054.172.172,0,0,0-.011-.1m-.015-1.247c-.007.014-.018.025-.025.04l-.029-.007-.014,0a1.8,1.8,0,0,0,.2-.235.949.949,0,0,1-.13.206m-.112,10.7c-.568-.018-.152-.737-.065-1,.449.159.014.759.065,1m-.152.658c.025.126-.108.156-.238.181-.029-.126.1-.152.238-.181m.011-7.557c-.029.065-.061.126-.094.184a.768.768,0,0,1-.087.116,2.706,2.706,0,0,0,.181-.3m-.224-1.894a.513.513,0,0,0,.163.007.364.364,0,0,1-.163-.007m.206,0a.126.126,0,0,0,.04-.018.077.077,0,0,0,.029-.018s0,0,.007,0-.007.01-.011.01-.007.007-.011.007a.078.078,0,0,1-.018.011.052.052,0,0,1-.021.007s-.007,0-.015,0m.08-.04a.224.224,0,0,1,.029-.033.1.1,0,0,0,.025-.04.522.522,0,0,0,.047-.1s0,0,0-.007a.647.647,0,0,1,.029-.069l-.029.08v0a.235.235,0,0,1-.014.033c0,.007,0,.014-.007.018s0,.007,0,.011a.27.27,0,0,1-.08.1m.163.021h0c-.007-.032-.015-.065-.026-.1a.105.105,0,0,1,.014.036c0,.018.011.036.014.058Zm-.275-.575h0a.027.027,0,0,0,.014-.007.29.29,0,0,1,.073-.047.261.261,0,0,1,.126-.051.717.717,0,0,1-.2.1.315.315,0,0,0-.083.1.085.085,0,0,1,.029.054c0,.007,0,.015,0,.022a.5.5,0,0,0-.008.076c0-.04-.011-.087-.014-.116-.029-.029-.08-.018-.127-.087.12,0,.08-.007.188-.047m.2,14.721a2.666,2.666,0,0,1-.145.549.691.691,0,0,0-.018.083c-.054-.014-.086.014-.1.069v.466a.258.258,0,0,1-.116-.441s0,0,0-.007l.033-.033a.234.234,0,0,1,.036-.029.249.249,0,0,1,.043-.026.3.3,0,0,1-.033-.08.213.213,0,0,1-.014-.047v-.014c0-.007,0-.014,0-.025a.112.112,0,0,1-.007-.036,1.578,1.578,0,0,1,.2-1.114l.047-.068a.409.409,0,0,1,.051-.061.2.2,0,0,1,.029-.029.878.878,0,0,1,.087-.076.691.691,0,0,1,.069-.04,1.947,1.947,0,0,1-.011.206,3.386,3.386,0,0,1-.141.752m.256-1.377a.626.626,0,0,1-.1-.433c.354,0,.1.267.1.433m0-.64c-.209-.108,0-.318,0-.426.21.109,0,.217,0,.426m-.159-10.745c.08-.112.181-.177.312-.116a.356.356,0,0,0-.312.116m.315-3.752c.014-.029.033-.061.047-.09s.033-.069.051-.105c0,0,.007-.007.01,0h0a0,0,0,0,1,0,0c.091-.177.185-.347.26-.535a3.25,3.25,0,0,1-.246.521c0,.007-.007.01-.011.018a.762.762,0,0,1-.1.177.074.074,0,0,0-.014.022m.282,3.65c-.007.011-.021.014-.039.018h-.014a.192.192,0,0,1-.047.007.249.249,0,0,1-.072,0,.35.35,0,0,1-.054-.007.356.356,0,0,1,.029-.08.111.111,0,0,1,.029-.04.108.108,0,0,1,.188.014.031.031,0,0,1,.007.029.064.064,0,0,1-.026.061m.26-4.142a1.714,1.714,0,0,1-.22.152c.076-.051.159-.1.22-.152m-.13,4.521c-.069.108-.036-.04-.039.13a.418.418,0,0,0,.007.116c-.014-.09-.025-.2-.032-.231a.22.22,0,0,0,.083-.04c-.007.011-.014.018-.018.025m.163,6.43c-.311,0,0-.535,0-.636.419.1.108.419,0,.636m0-6.578a.071.071,0,0,0,.014-.018.1.1,0,0,1,.069-.022.2.2,0,0,0-.083.04m.7-3.7a.857.857,0,0,1,.159.026c-.058-.007-.116-.018-.159-.026m.3.022a.051.051,0,0,1-.05.022.062.062,0,0,0,.014-.014,0,0,0,0,0,0,0c.022-.018.047-.043.065-.062a.121.121,0,0,0,.014-.054l0,0a.087.087,0,0,1-.051.108m-.181-10.08c-.022.343.224.239.373.434s-.1.5-.329.448c.036.184.3.112.362.278s-.12.249-.2.369a.973.973,0,0,0-.148.43c-.065.6.188,1.171-.449,1.547.665.332.2.936,0,1.416a.978.978,0,0,0-.04.828c.076.148.123.09.018.231a.624.624,0,0,1-.2.133c-.148.076-.314.112-.463.192a1.429,1.429,0,0,1,.249.8c-.018.173-.029.145-.185.253-.224.156-.452.314-.679.47a.34.34,0,0,1-.044.029v0a.32.32,0,0,1-.1.072.2.2,0,0,0-.058.09.256.256,0,0,1-.007-.051l-.423.293c0,.058.008.119.011.177a.407.407,0,0,0,.116.033.713.713,0,0,0,.087,0,.414.414,0,0,0,.163-.058.29.29,0,0,1-.249.061.6.6,0,0,1-.116,0,1.1,1.1,0,0,1-.141-.116c-.068,0-.238.163-.3.206,0-.069.054-.257.123-.282.091-.036.134.08.2.062h0l.011-.011a.177.177,0,0,1,.054-.036c.007,0,.011,0,.007-.007l0,0c.1-.127.022-.394.025-.535a11.471,11.471,0,0,1,.192-1.861c.2-1.149.517-2.277.694-3.43a9.791,9.791,0,0,0,.12-1.807,1.831,1.831,0,0,1-.026-.372c-.047-.1-.018-.159.091-.173a1.689,1.689,0,0,0,.166-.108.785.785,0,0,0,.264-.445c.083-.343-.011-.712.271-.983.08-.073.2-.105.217-.2a.514.514,0,0,0-.1-.271.729.729,0,0,0-.568-.307,1.044,1.044,0,0,0,.64-.8,3.191,3.191,0,0,1,.289-1.11c.228-.3.394.2.647.069.116-.058.043-.188.025-.26-.047-.159-.1-.2-.018-.379-.163.036-.336-.123-.5-.1-.148.018-.231.2-.333,0-.159-.314.426-.7.661-.752-.466-.629-.119-1.268-.263-1.977a2.348,2.348,0,0,1,.729.021c.127.007.124.109.217-.047a.336.336,0,0,0,0-.271c-.065-.271-.116-.228-.34-.336a.469.469,0,0,1-.278-.326c-.057-.224-.029-.21.123-.275a1.113,1.113,0,0,1,.386-.076c.119.058.048.22.022.307a.483.483,0,0,0,0,.444c.307-.423.708-.379,1.182-.369a1.675,1.675,0,0,0-.358,2.356,2.593,2.593,0,0,1-.806.184c-.1.011-.267,0-.336.076a.409.409,0,0,0,.011.351c.191.235.289-.3.531-.246.22.043.073.289.062.441a4.567,4.567,0,0,0,.029.669c.029.434,0,.918-.513,1.023.3.969.618,3.293-.8,3.585m1.685,9.166a.5.5,0,0,0,.04-.043h0l-.043.043m.155-.166a.012.012,0,0,0,0-.007.012.012,0,0,1,.007,0l-.011.011m-.733-4.279c-.449-.268-.1-.676.05-1.012.062-.141.047-.419.18-.463s.145.01.174.112-.134.517-.036.582c.069.047.159-.112.256-.08.163.05.108.322.134.448-.289-.163-.835.033-.759.412m.809-2.2c.267-.054.152.737.173.856-.557-.011-.123-.611-.173-.856m.079,6.292c.051-.061.1-.126.141-.188a.221.221,0,0,0,.029-.036,1.35,1.35,0,0,1-.17.224m.173-1.666a1.844,1.844,0,0,0-.177.12.1.1,0,0,0-.022.018.815.815,0,0,1-.086.058,0,0,0,0,1,0,0v-.007s.007,0,.01,0l0,0a1.661,1.661,0,0,1,.376-.26.7.7,0,0,0-.1.076m-.05-.849.032-.144a1.709,1.709,0,0,1,.04-.184,1.94,1.94,0,0,1-.072.329m.094-.408c-.007.025-.015.05-.022.076a.455.455,0,0,0,0-.1c-.094-.1-.13-.177-.174-.159a.071.071,0,0,1,.047-.018c.087.011.123.083.127.177l.022.022c0-.123.069-.141.083-.116.007,0,.011,0,.007.014s-.014.061-.09.1m.2,1.1a.067.067,0,0,1-.025.018.319.319,0,0,1-.029.014.249.249,0,0,1,.065-.043l-.011.011m2.833,1.558c-.972.766-1.33,2.107-2.406,2.762.455-.593.773-1.279,1.25-1.861a3.233,3.233,0,0,1,.824-.73,1.751,1.751,0,0,0,.231-.126c.141-.119.065-.069.12-.246a.279.279,0,0,1,.293-.224.465.465,0,0,1-.311.426m2.15-2.273c-.126.173-.43.206-.582.361-.065.123-.105.257-.177.376a1.343,1.343,0,0,1-.362.34c-.1.087-.076.069-.1.206a.5.5,0,0,1-.076.206c-.09.123-.336.249-.343.022s.339-.274.455-.441c.184-.264.195-.709.607-.709-.073-.347.17-.242.332-.4a.119.119,0,0,0,.033-.069.623.623,0,0,1,.026-.173.034.034,0,0,1,0-.018.028.028,0,0,1,.007-.014s0,0,0-.007a.061.061,0,0,1,.014-.026.047.047,0,0,1,.029-.029.044.044,0,0,1,.04.014.059.059,0,0,1,.032.029l.007.007v0s.007.01.011.014l.011.022,0,0c.025.047.054.1.058.1.026.1.047.08-.029.181m1.927.04a1.017,1.017,0,0,1-.209,0c-.014-.015.011-.221,0-.21a1.021,1.021,0,0,1,.209,0c.021.025,0,.177,0,.21m0-2.122a6.205,6.205,0,0,1,1.67-1.272,2.61,2.61,0,0,1-1.67,1.272m-6.376,5.739c1.569-3.618,5.118-6.379,8.573-8.4a53.673,53.673,0,0,0-8.573,8.4m4.286,4.033c-.108-.531.419,0,0,0,.1.528-.419.1,0,0m-.419.426c.065,0,.2-.029.25,0,.033.018.133.141.061.21a.563.563,0,0,1-.221,0c-.133-.043-.09,0-.09-.21m-.629,1.377c.318.109,0,.531-.21.423,0-.21.21-.21.21-.423m-.94,2.017c.311.217-.21.427-.1.535-.419-.108.1-.318.1-.535m3.029,6.8c.528-.951,1.468-1.59,1.988-2.649.1,1.167-1.251,1.908-1.988,2.649m2.2.535c-.311-.1-.419-1.059.1-.951-.21.416.109.741-.1.951m3.451-8.815c-.419,2.02-2.2,3.719-3.141,5.523.528-1.8,2.3-3.5,3.141-5.523m-.839,5.2a.54.54,0,0,0-.35.134c-.05.04-.275.235-.275.293,0,.2.177.108.267.076s.156-.126.167.029-.09.094-.2.1a.725.725,0,0,0-.271.087c-.683.376-.632,1.449-1.431,1.72,1.221-2.165,2.534-4.276,3.769-6.43.618-1.074,1.225-2.158,1.782-3.264a1.948,1.948,0,0,0,.2-.4c.018-.09-.011-.238,0-.332a2.292,2.292,0,0,1,.173-.712,1.847,1.847,0,0,0,.25-1.189.528.528,0,0,0,.528-.314c-.524,3.809-3.195,6.733-4.6,10.2m-14.565-10.55c-.047.134.014.206.134.184a.177.177,0,0,0,0,.043c-.029.065-.046.17-.072.239a.253.253,0,0,0,.036-.073.479.479,0,0,0,.026-.087.716.716,0,0,0,.036-.126l.044-.369a.171.171,0,0,1,.011-.058,1.671,1.671,0,0,0-.21.246" transform="translate(0 -3.511)" fill="#050605"/>
    <path id="Path_2" data-name="Path 2" d="M861.322,173.334a18.03,18.03,0,0,0,.719-2.563c.083-.394.159-.788.228-1.185a5.085,5.085,0,0,1,.452-1.258c.365-.817.694-1.652,1-2.49,1.254-3.43,2.154-7,3.777-10.286a20.353,20.353,0,0,1,3.632-5.219c-.021-.394-.4-.557-.423-.951a8.68,8.68,0,0,1-2.649-.1,8.455,8.455,0,0,0-1.449-.069,6,6,0,0,0-.723.076,1.9,1.9,0,0,0-.452.094.872.872,0,0,0-.275.325,34.107,34.107,0,0,0-3.021,5.71,92.469,92.469,0,0,0-3.773,12.2c-.3,1.142-.611,2.288-.94,3.426-.155.542-.315,1.084-.484,1.627-.087.278-.173.553-.264.831-.039.119-.173.329-.018.386.112.043.2-.05.254-.133a24.449,24.449,0,0,0-2.169,6.278c.054,0,.1,0,.159,0-.094.018-.134.022-.156.047a.093.093,0,0,1-.015.047c0,.029-.007.069-.014.13a.146.146,0,0,1-.007.04v.01c-.007.141-.036.336-.1.365-.014.04-.029.076-.04.116a1.761,1.761,0,0,1-.076.315c0,.007,0,.011,0,.014a.035.035,0,0,1-.007.022v.014a1.764,1.764,0,0,1-.152.712c-.087.379-.181.759-.271,1.142-.007.036-.018.076-.025.112-.058.26-.116.52-.173.777,0,.007,0,.014,0,.022a.815.815,0,0,1-.022.1c0,.015-.007.025-.011.036s-.011.043-.015.062c-.112.492-.227.983-.346,1.481-.026.1-.051.2-.076.3-.159.629-.322,1.225-.495,1.774,0,0,0,0,0,.007a1.329,1.329,0,0,1-.065.26c0,.011,0,.018-.007.029a.412.412,0,0,1,.068-.014.327.327,0,0,1,.2.011.214.214,0,0,1,.091.054.089.089,0,0,1,.029.033.071.071,0,0,1,.018.033.146.146,0,0,1,.015.04.828.828,0,0,1-.177.419c-.01.018-.022.033-.029.047-.065.12-.141.239-.2.358a.122.122,0,0,0-.014.029c-.025.054-.051.105-.076.159-.036.08-.072.159-.1.242a10.577,10.577,0,0,0-.369,1.008c-.05.166-.1.333-.148.5a.125.125,0,0,0-.007.036c-.1.438-.206.868-.3,1.3.04-.2.08-.4.123-.6-.18.745-.325,1.5-.492,2.241q-.812,3.67-1.543,7.355c-1,4.992-1.916,10-2.852,15q-.8,4.288-1.641,8.569c-.184-.513-.025-1.109-.18-1.637a2.459,2.459,0,0,0-.105,1.489c.018.2-.05.145-.057.333a3.129,3.129,0,0,0,.047.409.336.336,0,0,1-.232-.073,1.633,1.633,0,0,0-.1.524c.017.072.329.293.307.1a.965.965,0,0,1,.058.716c-.036.115-.2.488-.387.426-.372-.123.134-.918.1-1.088-.011-.05-.095-.018-.112,0s-.015.087-.026.119c-.043.149-.061.315-.09.47-.1.513-.2,1.03-.3,1.544-.112.571-.221,1.138-.333,1.706-.061.318-.163.651-.192.972-.032.386.04.8.04,1.192a8.731,8.731,0,0,1-.151,1.843,5.462,5.462,0,0,1-.213-1.388c-.173,1.07-.4,2.147-.524,3.224-.127,1.153-.213,2.3-.394,3.448-.09.582-.184,1.16-.268,1.738-.043.322-.086.64-.123.962a2.661,2.661,0,0,1-.2,1.022c-.6,1.034-.358,2.523-1.233,3.4a1.74,1.74,0,0,1,.43,1.016c.051.213.13.871.38.969.159.061.109-.145.13-.275.026-.163.1-.318.253-.2.127.094.235.386.332.513a2.906,2.906,0,0,0,.445.477,1.112,1.112,0,0,0,.535.3c.108,0,.119-.04.231-.08a1.922,1.922,0,0,1,.788.008c.433.036,1.424.249,1.72-.2.083.13.108.5.361.419.051-.014.119-.112.217-.155.177-.08.167-.087.184-.286a12.773,12.773,0,0,1,.326-1.767,21.112,21.112,0,0,0,.647-3.6c.04-.745.019-1.493.065-2.237a5.266,5.266,0,0,1,.177-1.283c.13-.419.35-.824.459-1.247a14.828,14.828,0,0,0,.264-2.009c.08-.745.148-1.493.2-2.244a10.764,10.764,0,0,1,.347-2.031c0-.022.012-.04.014-.062a8.711,8.711,0,0,1-.542,1.2c-.119-.1.007-.3.043-.408a.732.732,0,0,0,.026-.615c.321.123.361-1.413.452-1.619a1.266,1.266,0,0,1,.162.842c.036-.173.066-.347.087-.524a5.548,5.548,0,0,0,.043-.607,4.8,4.8,0,0,1-.014-.481c0,.029,0,.061.007.09a2.146,2.146,0,0,0,.307-2.154c.358-.126.434-.477.466-.813a1.871,1.871,0,0,1,.235-.878c.072-.133.076.054.058-.166-.006-.112-.069-.217-.069-.336a1.344,1.344,0,0,1,.09-.412.728.728,0,0,0,.043-.39c-.007-.043-.1-.184-.09-.221.019-.068.21-.21.256-.282a1.393,1.393,0,0,0,.217-.676c.018-.26-.1-.509-.08-.752.05-.509.246-1.037.34-1.54.22-1.142.386-2.291.524-3.444.351.3.311-.282.333-.5.036-.322.073-.639.116-.958.087-.611.188-1.218.311-1.825.112-.542.3-1.088.383-1.634.04-.253-.076-.5-.043-.766a1.308,1.308,0,0,1,.289-.658c-.339.029-.057-.322.011-.5a5.042,5.042,0,0,0,.235-.828,12.784,12.784,0,0,0,.17-1.587c.018-.253.033-.5.062-.755s.113-.5.126-.741c.007-.116-.04-.239-.04-.354a1.825,1.825,0,0,1,.123-.546c.35-1.164.7-2.327.993-3.506.152-.614.289-1.232.4-1.854a7.353,7.353,0,0,0,.152-.922c.01-.163-.112-.3-.13-.437a.172.172,0,0,1,0-.076.014.014,0,0,1,0-.011.115.115,0,0,1,.007-.033,4.5,4.5,0,0,1,.3-.491,4.181,4.181,0,0,0,.264-.727c.145-.52.228-1.055.325-1.583.058-.318.12-.636.206-.947a1.964,1.964,0,0,1,.068-.246c.022-.083.051-.163.079-.242a3.929,3.929,0,0,0,.3-.737c.036-.267.022-.542.065-.81.177-1.138.611-2.215.77-3.358a10.35,10.35,0,0,1,.542-1.659c.192-.589.365-1.185.524-1.786.184-.686.354-1.377.524-2.067a9.364,9.364,0,0,1,.26-1.063,1.908,1.908,0,0,0,.213-.553,2.273,2.273,0,0,0-.083-.679c-.033-.156-.123-.336-.025-.426.083-.073.271-.087.376-.141.279-.148.372-.3.712-.333-.054-.116-.5-.575-.123-.618.141-.018.155.184.177.307.007.047.033.347.141.224.141-.163-.141-.325.163-.409.347-.1.777-.058,1.139-.123a49.126,49.126,0,0,0,4.991-1.482c-.083-.181.13-.318.04-.466-.315.033-.806.069-1.052-.184a.4.4,0,0,1-.1-.18c-.014-.04.014-.228,0-.246-.09-.1-.181.04-.206.094-.043.112.123.43-.1.427s.149-.5-.242-.549c.022.18-.148.213-.274.271-.065.029-.387.235-.188.336.09.047.209-.206.322-.184.141.033.087.152.032.221a.7.7,0,0,1-.437.152.413.413,0,0,0-.25-.448c-.137-.072-.263-.184-.354-.04-.076.115.134.958-.293.585-.108.221-.2.235-.365.08-.065-.065-.343-.423-.473-.264-.072.09.156.477.189.56.072.181.234.5.13.7a.776.776,0,0,0-.777.022c-.12.054-.235.116-.354.159a.773.773,0,0,1-.192.054c-.17-.011-.083-.025-.159-.177-.224-.456-.715-.022-1.066,0a1.584,1.584,0,0,0-.184-.007c-.033.007-.044.007-.051,0a.188.188,0,0,1-.047.036c-.065.043-.1.134-.177.177a1.962,1.962,0,0,1-.734.163,4.251,4.251,0,0,0-.427.065c-.123.026-.206.083-.289.058-.025.011-.051-.007-.068-.036,0,0,0,0,.007,0a.145.145,0,0,0,.061.032c.022,0,.047-.022.076-.065a3.523,3.523,0,0,0,.192-.849c.057-.246.123-.492.191-.734.127-.43.286-.846.444-1.261a14.825,14.825,0,0,0,.937-3.079c-.08.022-.467.184-.517.051a2.939,2.939,0,0,1,.315-.521,9.16,9.16,0,0,0,.567-1.276m-18.064,65.161c-.386-1.07.138-2.046.185-3.253.621.669-.206,2.237-.185,3.253m7.182-33.1c.011.094-.17.116-.17.116-.011-.094.08-.1.17-.116m-5.118,26.033c0,.011-.017.062-.043.072a.76.76,0,0,0,.043-.191c.062-.112.094-.166.242-.184-.213.181.134.26-.242.3m2.664,7.456c-.362.04-.329-.517-.452-.777.373.047.52.586.452.777m-.231-1.265c.191.069.2.163.22.347-.177.022-.289-.152-.22-.347m.209-.575c-.2-.166.029-.557.1-.752.3.246-.126.477-.1.752m.553-2.2a1.991,1.991,0,0,0-.025.387c-.17-.058-.141-.6-.152-.734a1.953,1.953,0,0,0-.083-.809c.253-.08.268.4.275.546a1.563,1.563,0,0,0,.018-.39.808.808,0,0,1-.033,1m.167-8.056c-.012-.148.083-.083.158-.177.015.163-.126.126-.158.177m.2,5.172c-.278-.058.047-.376-.061-.546.278.058-.058.282.061.546m-.014-.922c-.108-.17.159-.2.04-.463.184-.022.343.6-.04.463m.173-6.665a.47.47,0,0,0,.137-.383c.286.058.141.448-.137.383m.079,5.62c.069-.188.04-.463.109-.654.187.069.158.625-.109.654m.275-1.6c.13-.473.007-.741.148-1.124.362-.04.21,1.085-.148,1.124m.625-12.147c-.119.376-.253.748-.394,1.121-.307.792-.654,1.565-1,2.342a23.35,23.35,0,0,0-1.706,4.463c-.166.762-.383,1.482-.48,2.263a5.6,5.6,0,0,1-.6,2.349,6.375,6.375,0,0,1-.293,2.252.517.517,0,0,0-.314-.159c-.036-.007-.184,0-.206-.025a.045.045,0,0,1,.036-.04c-.13-.109-.17-.177-.033-.26.206-.123.267.043.307-.239a2.219,2.219,0,0,0,.033-.517c-.022-.224-.174-.39-.17-.586a6.364,6.364,0,0,1,.257-1.142c.09-.409.177-.821.264-1.229q.531-2.532,1.008-5.078c.654-3.441,1.266-6.885,1.945-10.322.364-1.843.744-3.686,1.174-5.519a19.6,19.6,0,0,1-.665,5.472,3.331,3.331,0,0,0-.155.69,1.383,1.383,0,0,0,.083.322c.076.314-.094.625-.032.962a9.638,9.638,0,0,0,.831,1.93,1.218,1.218,0,0,1,.1.95m.391,2.439c.01.09-.17.109-.257.12-.01-.09.167-.108.257-.12m-.036,5.447c-.278-.058-.13-.354-.051-.456.275-.033.043.365.051.456m1.24-28.245c-.123.036-.246.076-.275-.022.09-.141.184-.275.275.022m-.1,22.517c.044.192.051.1-.057.239a1.519,1.519,0,0,0-.148.188,1.556,1.556,0,0,0-.17.557c-.109.737.17,1.887-.372,2.49a28.449,28.449,0,0,1,.639-4.868.564.564,0,0,1,.123.575,2.087,2.087,0,0,0-.015.82m.062-1.507c-.011-.094.08-.1.166-.112.011.094-.166.112-.166.112m.148-.293c-.307-.336.062-1.117.192-1.594.318.426-.047,1.207-.192,1.594m.437-1.8c-.2-.166-.17-.723-.1-.914.289.155.071.639.1.914m.156-1.868c.021.184-.167.115,0,0m.079-.1c-.3-.249.159-.509.011-.741.242-.112.171.412.242.524-.184-.036-.275.04-.253.217m.253-1.045c-.383-.144.029-.556-.011-.918.206.253-.108.654.011.918m.173-1.677a.519.519,0,0,1,.03-.556c.18-.022.26.709-.03.556m4.233-36.55c.057,0,.086-.007.09-.029a.1.1,0,0,0-.011-.04.622.622,0,0,1-.018-.112c.025-.076.007-.173.116-.184.293-.033,0,.293-.087.336.032.112-.145.152-.213.174-.033-.112.083-.09.123-.145m-.593,20.171a.272.272,0,0,1-.061.217s0,.007-.007.011a.207.207,0,0,1-.011.029.271.271,0,0,0-.043.018.191.191,0,0,1-.018.014.278.278,0,0,0-.057.083c-.012.057-.065.072-.084.05a.039.039,0,0,1,0-.04c0-.01.007-.018.019-.029a.341.341,0,0,1,.054-.054.076.076,0,0,1-.021-.047.081.081,0,0,0-.026-.022.8.8,0,0,1,.04-.206v0a.663.663,0,0,0,.014-.163.042.042,0,0,1,.022,0c.011-.025.04-.036.1-.01s.065.054.076.1c0,.011,0,.025,0,.036Zm.6-14.03a.737.737,0,0,1,.087-.007c.065,0,.134,0,.213,0-.1,0-.2,0-.3.011m.315-.011h.1c.025,0,.051,0,.08,0-.065,0-.123,0-.181,0m.474-8.211c-.083.025-.145-.05-.17-.13a.013.013,0,0,0,0-.01,1.2,1.2,0,0,1-.039-.12.175.175,0,0,1,.047-.032l0,0a.135.135,0,0,1,.17-.036.219.219,0,0,1,.09.054.248.248,0,0,1,.047.04c.025.025.047.047.068.065a1.108,1.108,0,0,0-.217.144.074.074,0,0,0,0,.029m.271,8.15c-.007-.094.08-.1.17-.112.011.094-.079.1-.17.112m.438-.145a.087.087,0,0,1,.079-.1c.01.09.01.09-.079.1m7.961-.231c-.126.477-.325.315-.762.452.05-.372.5-.423.762-.452m-1.742-.177c.011.094-.155.2-.148.293-.271.029-.04-.365.148-.293" transform="translate(-121.783)" fill="#050605"/>
    <path id="Path_3" data-name="Path 3" d="M864.362,214.523c.011.08,0,.09-.08.1.105.231.409.25.593.4.018-.625.994-.159,1.1-.769-.6-.156-1.031.21-1.609.271m-1.121-6.057c0,.029,0,.061.007.09l.181-.022a.3.3,0,0,0-.189-.069m-.231-1.272c-.149.3.387.242.365.058-.166.108-.187-.076-.365-.058m-.788,1.1c-.271.033-.351.083-.318.409.061-.007.321,0,.358-.04s-.033-.307-.04-.369m-.575.318c-.112-.166-.335-.3-.492-.1-.071.2.13.2.217.282s.1.253.217.3c.3.145.133-.369.057-.481m-.773-.192c-.275.022-.04.372-.228.423s-.422-.325-.665-.3c.023.2.2.376.058.553a2.628,2.628,0,0,1,1.185.047c-.011-.126.065-.238.05-.372-.358.2-.122-.376-.4-.351m-1.251.163c-.2-.069-.354.133-.354.133-.047.372.553.029.354-.133m-1.12-1.074s.18-.018.17-.112c-.09.007-.177.018-.17.112m-.278,1.6c-.051.372.57.213.549.029a.969.969,0,0,0-.549-.029m5.023-.556a.141.141,0,0,1-.126-.014c-.033-.08.094-.073.119-.076-.108-.206-.032-.253.058-.423a.29.29,0,0,0,.061-.2c-.028-.2-.267-.123-.441-.119-.719.007-1.442.032-2.161.083a26.556,26.556,0,0,0-3.621.5c.354.347.6.166.994.025.047-.018.22-.09.271-.069s.123.185.155.246c.091.166.171.386.376.433.015-.282-.158-.314-.231-.531-.148-.441.658-.267.9-.267.987.007,1.97-.033,2.957-.065a.385.385,0,0,0,.108.4c.055.065.138.072.1.173-.073.2-.275.04-.384.036-.155-.007-.275.083-.469.109.174.679,1.084,0,1.474.21-.018-.166-.206-.271-.141-.448m-6.606.177a1.144,1.144,0,0,1-.1.752c.3.061.747.239.694-.264-.481.133-.307-.521-.6-.488m.206-.575c.116.315-.52.109-.4.5a.983.983,0,0,1,.626-.072c-.011-.09-.065-.448-.228-.43m-.51,1.16-.177.022a.317.317,0,0,0-.17.109c.137-.014.383.163.346-.13m-.455-.04c.09-.007.17-.112.239-.307a.243.243,0,0,0-.239.307m.44-.972c-.228-.119-.463.2-.639-.018-.055.246-.108.4.148.535.065-.322.726,0,.491-.517m-.788,1.1c-.159.018-.415-.181-.571-.213.181.148.083.466.224.607.213.213-.007-.358.17-.376.018.2.289.278.177-.018m-.893-1.471c.033.275-.546-.033-.326.315.189.068.517-.242.326-.315m-.286.676c.04.369-.293-.148-.264.126s.643.018.264-.126m.517,5.483c-.018-.148-.282-.022-.315.054-.054.126.221.26.355.307-.029-.271.426-.231.394-.506-.159.018-.279.126-.434.144m-.531.148c-.293.033-.268.014-.239.3.292-.033.267-.014.239-.3m-1.211-6.047c.028.271.21.253.307.336.169-.112-.04-.369-.307-.336m.1,6.411c-.1.055-.271.152-.31.271-.059.177.13.221.3.2a.438.438,0,0,0,.207-.079c.017-.022-.036-.105-.012-.141a.319.319,0,0,1,.189-.144c.173-.076.423-.069.394-.333-.243.112-.523.1-.763.231M851.763,209c.5.4,1.381.123,1.967-.314a12.923,12.923,0,0,1-1.967.314m.431,6.314c.433-.137.538-.058.686-.351-.361.04-.729-.011-.686.351m-.8.184a.394.394,0,0,0,.26-.123c-.192-.069-.271.029-.26.123m-.546-4.926c.275-.029.253-.206.423-.322-.275.029-.543.058-.423.322m-.159,5.1c.09-.011.267-.029.256-.119-.09.011-.267.029-.256.119m-.968-5.429c.021.173-.333.43-.036.549.188.072.495-.184.716-.166-.256-.058-.561-.119-.679-.383m-.069,5.913c.2-.022.354-.076.325-.315-.209.022-.354.051-.325.315m.43-6.773c-.416.054-1.055.116-1.308.5a6.7,6.7,0,0,0,1.161-.224c.007.062.01.373.13.358.076-.922,1.341-.137,1.63-.828a16.077,16.077,0,0,1-1.613.192m-1.214-.336c-.184.022-.719.08-.434.228.069-.188.561.126.434-.228m-.485.777c-.065-.076-.177-.152-.155.029.08-.011.026.239.029.278.153-.018.167.022.189-.115a.322.322,0,0,0-.062-.192m-.434-.033c.012.09-.148.293.04.369-.018-.184.148-.3-.04-.369m-.13-.35c.091-.011.181-.022.17-.116-.091.011-.181.018-.17.116m-.072,1.022c-.058.282.051.452.234.43-.021-.177.029-.556-.234-.43m-.456-.047.057.546c.279.065.2-.665-.057-.546m-.38-.137c.17-.116.278.058.459.04.047-.379-.477-.224-.459-.04m-.621-.672c-.076.1-.087.014-.069.181,0-.073.091-.011.069-.181m-.008.741c-.065-.054-.133-.108-.2-.163.01.105-.069.188-.059.282l.268-.029c0-.029-.008-.061-.012-.09m-1.4.43c.018.181-.04.463.137.444a.27.27,0,0,0-.137-.444m-1.015.669c-.152.293.137.444.206.253-.177.018-.108-.177-.206-.253m-.249-.622c-.062.007-.123.014-.184.018.01.09.018.184.028.275.242-.029.181-.069.156-.293m.008,3.292c.036-.047.169-.007.158-.08-.075.007-.155.018-.158.08m-.995.137c-.029.557.828.094.8-.177a2.458,2.458,0,0,0-.8.177m.632-3.3c-.3-.116-.491.26-.755.289-.209.021-.1-.134-.231-.181-.209-.08-.281.3-.318.4.423.058.846-.058,1.207.235-.177-.336.134-.43.1-.744m-1.944.491c-.068.083-.249.123-.151.264.05.076.137.065.2,0s.083-.351-.051-.26m-.552,1.532c.08-.1.177-.018.249-.206-.08.1-.267.029-.249.206m-.232-1.265c-.058.007-.185.025-.191-.069-.109.069-.691.289-.586.43.09.123.347-.043.434-.069a.33.33,0,0,1,.387.076l-.043-.368m-1.667.556s.181-.022.17-.116c-.091.011-.18.022-.17.116m-.444.05c.018.134.047.08.188.069-.01-.094-.126-.076-.188-.069m29.622-1.015a1.657,1.657,0,0,0-.246-.622,1.738,1.738,0,0,1-.39-1.478,2.089,2.089,0,0,0-1.377-1.785c.019.137.051.365-.144.383-.059-.535-.691-.39-1.052-.524a.951.951,0,0,0,.383.513c0,.054.018.08.044.08a.057.057,0,0,0,.036-.014.416.416,0,0,0,.069-.047c.058.04.069-.007.087.133-.123.011-.123-.065-.192-.072a.835.835,0,0,0-.228.043,1.112,1.112,0,0,1-.473.061c-.466-.123.011-.463.09-.679-.336-.05-.672-.058-1.008-.076.015.126.1.347.213.383.127.047.2-.1.286-.094.071.007.148.011.079.166-.047.109-.1.1-.209.109-.181,0-.463-.242-.5.018s.325.6-.083.734c.119.1.122.311.137.448.459-.05.018-.839.456-.781.094.011.2.036.206.156,0,.08-.148.133-.086.228.09.144.336.072.415.289-.344-.224-.206.123-.3.325-.151.347-.7.134-.859-.109a2.43,2.43,0,0,1-1.861.264,7.076,7.076,0,0,0-1.139-.065c-.343.018-.657.152-1,.177-.3.022-.611-.036-.918-.014a2.569,2.569,0,0,0-.832.307c-.676.286-1.493-.123-2.132.293.094,0,.108.2.116.264-.217-.173-.449.058-.669-.025-.329-.126-.036-.567-.061-.813a.757.757,0,0,0-.447.513c0,.007-.015.177-.018.18a2.255,2.255,0,0,1-.395.094c-.411.141-.719.354-1.135.076.033.3-.56.532-.745.3-.123-.155.03-.242.148-.318.163-.109.26-.173.189-.394-.372.2-.376-.1-.658-.2.007.1.105.3-.047.325-.137.018-.061-.459-.311-.286a.675.675,0,0,1,.16.625c.289-.036.364-.076.408.264.007.069.05.256-.08.253-.007,0-.145-.166-.224-.177-.22-.036-.509.152-.708.224-.159.061-.26.127-.372,0s-.1-.271-.271-.34c.072.647-.785.481-1.146.455-.3-.025-.007.108-.007.268,0,.18-.163.152-.267.072a.527.527,0,0,1-.185-.521c-.119.015-.227.036-.246.166-.029.192.105.061.148.155.014.033.047.1-.014.123-.134.033-.058-.1-.126-.144a.9.9,0,0,0-.814.108,2.424,2.424,0,0,0-.56.6c-.015-.126.033-.419-.105-.5-.116-.069-.256.08-.4.1.036.289.23.524-.206.575-.021-.17.21-.481-.062-.546.083.13-.278.036-.314.065-.087.069,0,.033.047.112a.862.862,0,0,1,.148.391c-.12.014-.466.09-.535-.054-.058-.123.14-.145.065-.3a.624.624,0,0,0-.283-.184c-.086.007-.079.047-.1.152-.033.17.033.43-.115.564-.293.26-.535-.416-.687-.6.069.126-.087.206-.187.166-.037.26.242.257.245.456,0,.058-.177.376-.264.39-.3.04-.156-.473-.228-.586-.094-.148-.34.126-.527.1.292.387-.142.477-.383.683-.112-.181-.047-.433-.069-.632-.239.1-.6-.144-.839-.184.112.275.138.839-.216,1-.08.036-.1-.018-.2-.036-.141-.025-.232.076-.358.094-.152.022-.108.05-.173-.123-.044-.105-.033-.21-.163-.257.018.166-.326-.1-.206.177.05.119.094.018.162.076.12.094.105.083-.079.163a1.816,1.816,0,0,1-.387.13c-.1.021-.491.087-.571-.007s.076-.163-.112-.242c-.357-.148-.513.39-.712.556.018-.686-.947.13-.694.26-.159.047-.387.126-.44-.072-.011-.029.057-.419-.087-.253-.112.134.2.629-.206.5-.149-.047-.094-.112-.123-.267-.05-.311-.173-.058-.188.148a1.274,1.274,0,0,0,.061.383c.033.137.018.293.163.311.191.026.238-.224.419-.242.014.13.116.221.13.351-.181-.025-.307-.073-.346.119s.057.2.213.188c.192-.01.386-.029.578-.057a6.277,6.277,0,0,0,2.049-.712c-.3.115-.235-.249-.48-.221.018.2.01.369-.228.394-.04-.329-.2-.611.191-.665a.975.975,0,0,1,.365-.043c.159.069.181.4.152.535,1.081.137,2.082-.459,3.141-.56a2.07,2.07,0,0,0,.426-.014c.08-.04.177-.228.228-.3.065-.1.12-.256.206-.286a1.3,1.3,0,0,1,.347.043,6.061,6.061,0,0,0,1.489-.1c1.066-.184,2.1-.524,3.155-.777a3.548,3.548,0,0,1,1.471-.231c.181.054.289.249.462.314.235.09.336-.144.549-.224.106-.04.224.011.311-.014s.1-.116.173-.21a.924.924,0,0,1,.474-.274,2.748,2.748,0,0,1,1.261.014c-.072.09-.235.047-.307.133-.152.184.051.156.173.134s.842,0,.77-.246c-.036-.123-.228-.025-.286-.079-.109-.1.022-.2.144-.221s.185.047.282.119c.011.008.347.243.326.1-.008-.054-.2,0-.218-.13.315-.033.658-.286.976-.188.184.058.26.314.387.123.1-.144.029-.3.224-.386.011.1.076.267.21.253a.278.278,0,0,1,.148-.293c-.076.358.054.459.372.415.087-.01.586-.043.466-.231.109-.014.145.166.286.148-.018-.177.116-.419.333-.311.1.051.126.2.274.246.076.022.336.04.383-.043.08-.145-.177-.239-.14-.369.051-.173.354-.116.456-.033s.1.235.2.3c.152.1.43,0,.6-.022a11.064,11.064,0,0,1,2.046-.04c-.014-.12-.008-.278.148-.293-.145.286.375.094.314.336a3.333,3.333,0,0,1-.567.242c-.187.09-.376.188-.56.286a4.855,4.855,0,0,1-2.364.78c.01.116.148.687-.166.579-.231-.083.094-.419.076-.571-.478.054-.116.755-.445.878-.069.025-.271-.05-.369-.036a1.333,1.333,0,0,0-.383.13,1.646,1.646,0,0,1-.756.26c.05-.4.705-.412.817-.831-.416.2-.962.173-1.337.452-.08.062-.3.369-.105.448.094.04.369-.3.445-.177a1.628,1.628,0,0,0-.068.3c-.047.12-.061.113-.2.152-.206.061-.462.188-.535-.09-.029-.116.055-.191.036-.289-.025-.156-.09-.087-.2-.072-.206.029-.492.123-.459.379.25-.029.42-.141.467.159.007.043.054.21.029.25a2.544,2.544,0,0,1-.575.09c-.18.033-.6.163-.477-.148.075-.188.383-.282.358-.509-.156.018-.289.2-.445.141a.937.937,0,0,1-.281.8,3.169,3.169,0,0,1-1.019.376c-.759.246-1.522.488-2.277.738a49.834,49.834,0,0,0-4.731,1.771,1.513,1.513,0,0,0,1.3.076c.163-.047.857-.242.828-.5a.476.476,0,0,1,.13.358c1.568-.354,3.039-1.272,4.666-1.348-.17.213-.835.1-.864.325-.039.257.383.257.4.463-.057-.538.362-.267.572-.614.163.639,1.131.333,1.572.289.022.173-.192.318-.17.484.036.307.516.065.7.015.766-.206,1.525-.427,2.288-.658,1.449-.441,2.885-.918,4.333-1.37.347-.108.694-.213,1.041-.318a2.055,2.055,0,0,0,.263-.079l.069-.022c.065.007.087-.021.061-.083.127-.08.293-.155.431-.239.654-.386,1.294-.795,1.908-1.236.281-.2.56-.412.831-.629.12-.1.275-.181.3-.333.019-.13-.1-.278-.144-.39-.037-.083-.171-.5.083-.437.141.036.047.239.112.322.05.065.083.076.169.043.127-.051.094-.239.08-.358m-29,3.343c-.01-.09.08-.1.171-.109.01.087-.091.007-.171.109m.618-.991a.394.394,0,0,1,.1-.289,1.08,1.08,0,0,1,.282-.032c.075.04.068.26.08.365a.994.994,0,0,0-.46-.043m5.161-.939c.191.069.282.058.3.242-.271.029-.292-.156-.3-.242m.849.278c-.025-.217-.094-.271.144-.3.026.22.095.271-.144.3m4.576-1.341c-.094.007-.423-.047-.238-.181a.152.152,0,0,1,.238.181m3.647-.679c.068-.188.336-.22.61-.249.029.275-.749.636-.61.249m3.2-.632.542-.057c.04.365-.589.437-.542.057m-2.447,5.812c-.17-.152-.228-.2-.456-.047.26-.513.854-.347,1.294-.6-.1.488-.812.144-.839.647m2.433-.181c0-.029-.008-.058-.011-.087.145-.018.177-.069.195.069-.061,0-.123.011-.183.018m7.42-7.644c.1.08.441-.145.376.137-.177.022-.358.04-.376-.137m-1.652,3.961c.014.123.025.246.04.369-.21.022-.206-.5-.04-.369,0-.018.036-.1.069-.073a.081.081,0,0,1-.069.073m1.93-.687c-.177.076-.343.166-.514.257a1.951,1.951,0,0,1-1.16.31,7.026,7.026,0,0,1,1.121-.7,5.819,5.819,0,0,1,.568-.347c.173-.076.242-.029.3.17.073.25-.123.231-.314.311m1.105-2.233-.039-.362c.257-.123.318.427.039.362m-28.837,3.654c-.224.018-.336.014-.238.275.057.163.08.108.281.087-.014-.119-.029-.242-.043-.361m-.73.723c-.087.105-.184.022-.167.206.08-.1.185-.022.167-.206m-.542-.77c-.1-.08-.272.029-.25.213.177-.018.456.04.25-.213m-1.265,1.71a.239.239,0,0,0,.3.242c-.021-.177-.13-.35-.3-.242m-.669.535c-.08.1-.047.379.13.358-.011-.094.051-.376-.13-.358m-.387.6c.09-.011.192.076.181-.022-.022-.177-.2-.159-.181.022m-.061-2.2c-.058.007-.12.014-.177.018,0,.029,0,.057,0,.087-.044.065-.1.134-.062.224s.156.047.275.033c-.015-.119-.026-.242-.04-.361m-.285.676a1.268,1.268,0,0,1-.127.563c.427-.047.394-.593.752-.632-.249-.206-.445.289-.625.069m-.325-.426c-.073.1-.138.4.119.263.2-.108.083-.289-.119-.263m-.059,1.117c.091-.011.181-.022.171-.116-.091.011-.181.021-.171.116m-.387-1.07c-.068.2.217.35.2.166-.09.007-.111-.173-.2-.166m.159,1.46a1.159,1.159,0,0,0-.625.108c-.137.061-.213.069-.144.235.022.047.033.108.094.119.217.043.376-.445.618-.177a.378.378,0,0,1,.058-.285m-1.677.463c.09-.011.181-.018.17-.108-.091.01-.177.018-.17.108m.01.094c-.09.011-.177.018-.267.029.036.293.01.278.3.246-.01-.09-.021-.184-.033-.275m-1.474-1.037a.088.088,0,0,0-.08.1c.09-.007.09-.007.08-.1m-.517.242c.09-.011.18-.018.169-.112-.09.007-.177.018-.169.112m-4.215,1.3c.3.242.478.224.528-.148-.112-.177-.557-.126-.528.148m-.542.058c-.3.036-.329.249-.629.069-.166.379.213.448.18.809.217-.1.275-.184.532-.148-.091-.242.007-.488-.083-.73m-.383.6-.021-.184c.223-.025.26-.087.289.155-.09.011-.177.018-.267.029m.065-1.023c-.065.007-.184-.065-.235-.054-.076.018-.058.069-.134.112-.122.061-.3.033-.408.1-.047.033-.087.04-.105.1-.047.17.141.09.228.073.155-.033.3-.083.459-.116.209-.043.22,0,.2-.22m-.933,2.223c.011.1.029.275.029.275.38.144.307-.492-.029-.275m.264-1.467c-.232-.043-.506.119-.387.376.151.022.173-.029.274-.09.039-.022,0-.126.065-.133.039.347.433-.076.047-.152m-.965.9c.347-.134.13.351.467.134.053-.379-.5-.409-.467-.134m-.173-1.1c-.057.04-.021.293.083.282a.091.091,0,0,1,.079-.105c-.01-.076-.043-.256-.163-.177m.274,2.01c-.163.018-.281.116-.448.05.007.062.014.123.022.185.083-.054.527-.073.426-.235m-.614-.665c.126.354-.144.383.059.546.455.04.216-.484-.059-.546m-.043-1.2-.185.022c.026.2.012.184.207.163-.008-.061-.015-.123-.022-.184m.141.448c.119.26-.462-.047-.246.3.2.068.521-.246.246-.3m-.946,1.3c-.112.011-.34.011-.413.119-.014.021-.047.26,0,.3.065.051.362-.025.354-.133a.289.289,0,0,1-.061.007c.112-.033.2-.2.12-.289m-.094-1.651c-.015.491-.5.18-.709.416a.26.26,0,0,0-.043.227c.047.13.177.094.311.043.242-.09.386-.275.672-.249-.061-.1-.058-.456-.231-.437m-.1.752c-.362.04-.788.267-.59.43.058-.282.73.018.59-.43m-.337,3.538c-.018-.177.347-.126.34-.217-.278-.065-.617.159-.34.217m-.162-2.288c-.1-.08-.268.029-.268.029-.069.195.358-.04.268-.029m-.687-1.3c-.1.011-.415.011-.264.192.079.094.38.033.366-.112-.08.007-.091,0-.1-.08m-.412.412c-.137.387.408.416.473.134-.184.018-.383-.145-.473-.134m-.455-.04c.1.08.455.04.437-.141-.18.022-.278-.065-.437.141m-.427,1.89.04.369c.278.058.206-.575-.04-.369m.22,2.006c-.021-.185.268-.029.246-.213-.187-.069-.524.156-.246.213m-.419-2.165c.445-.047.709-.173.767-.455-.264.119-.618.159-.767.455m-.05-.455c-.151-.025-.08.1-.072.188.137-.018.083-.043.072-.188m-.52,1.073c.01.087.029.271.2.156-.018-.177-.112-.166-.2-.156m-.59-2.064c.022.184.04.369.061.553a13.9,13.9,0,0,0,1.272-.788,11.645,11.645,0,0,1-1.334.235m.445,4.012c.257-.116.347-.126.416-.322-.17.115-.546-.029-.416.322m-.6.163c.076-.007.141-.022.152-.08-.05.029-.1.054-.152.08m-.426-2.078c0-.025.05-.083.126-.166-.094.09-.151.159-.126.166m.322-.361a3.36,3.36,0,0,0,.445-.459c-.076.094-.275.282-.445.459m.455-.47c.022-.026.029-.043.022-.051a.111.111,0,0,1-.022.051m-.723,3.039c0,.047.372-.13.369-.127-.036-.123.17-.1.21-.112a1.779,1.779,0,0,0,.354-.2c-.116.051-.932.3-.932.434m.318-2.862c.177-.018.268-.029.336-.22a.458.458,0,0,0-.336.22m-.372.777c.177-.022.2.163.268-.029-.011-.09-.2-.159-.268.029m-.328-1.344c.01.09.017.18.029.271.119-.014.238-.025.358-.04-.026-.235-.189-.257-.386-.231m.05,1.283c.141-.177.452-.307.571-.426-.26.029-.607.09-.571.426m-.3,2.252c.1-.011.274-.033.264-.126-.091.011-.272.033-.264.126m-.56-2.617a.534.534,0,0,0-.015.329c.08-.029.13-.036.115-.123.026,0,.044.3.091.383.057-.076.14-.076.231-.083a.9.9,0,0,0-.423-.506m.173.842c-.011-.09-.849.434-.665.412-.061.282.864-.249.665-.412m-.373-.438c-.028.011-.335.116-.317.177.054.181.3.141.455.112a.248.248,0,0,1-.138-.289m.391.185-.029.04c-.105-.126-.116-.311-.268-.26v0c.065.058.08.134.135.192.094.1.01.1.2.072-.011-.014-.026-.033-.036-.047m.036.047c.014.025.032.022.054-.011l-.054.011m.234-1.428c-.119.076-.3.047-.462.083.123.426.61.325.462-.083m-.618,1.117c-.014.025-.029.054-.044.079.062-.007.094-.018.094-.032v0c0-.015-.021-.026-.05-.043m.213.347-.119.022a.689.689,0,0,0,.133.069c0-.029-.011-.061-.014-.09m-.285-1.818c-.058.007-.12.014-.177.018.021.217-.029.289.21.26-.012-.094-.022-.184-.033-.278m-.716.914c-.1-.206.058-.278.036-.466a.435.435,0,0,0-.376.2c-.022.04-.057.163-.028.21.007.014.155,0,.163.043.032.152-.271.221-.112.412a2.6,2.6,0,0,1,.7-.34,1.121,1.121,0,0,0,.506-.256c-.271-.22-.6.163-.885.2m-.517.271c-.087-.13-.253-.126-.383-.173a1.239,1.239,0,0,0,.039.354c.058.126,0,.1.191.076.159-.014.286-.058.152-.256m-.535,3.347c1.066-.206.835.062,1.594-.484-.868.372-.827.033-1.594.484m.546-2.458a.384.384,0,0,1-.476.007c-.13-.062-.224-.156-.34-.007.314.043.014.156.04.362a1.109,1.109,0,0,0,.777-.362m-1.427,1.084c-.145.015-.362,0-.337.217.116-.015.272.1.376.144-.014-.12-.025-.242-.039-.362m.151-1.959c.04.376-.346.81-.679.445.026.26-.494.343-.029.56.008-.69.592.221.637.018-.189.022-.232-.35.018-.329a.476.476,0,0,1,.3.166c.065.126-.062.289-.109.416a.826.826,0,0,0-.142-1.276m-2.5,2.862c.019.184-.061.282.04.362-.021-.177.148-.293-.04-.362m-.69.351c.024.2.043.274.263.227.062-.011.3-.1.286-.2-.213.026-.322-.112-.549-.029m-2.74-.987a.336.336,0,0,0-.187-.073c-.149.293.307.333.187.073m-1.384.614a.342.342,0,0,0,.26-.119c-.091.011-.272.029-.26.119m-2.093.784c.029.253-.094.188-.264.12-.043.361.384.145.571.213a.256.256,0,0,0-.307-.333m17.359-2.537c-.018-.177.347-.126.34-.217-.278-.065-.617.159-.34.217m-1.923.676c-.021-.185.268-.029.246-.213-.187-.069-.524.156-.246.213m-1.135.4c.257-.116.347-.126.416-.322-.17.115-.546-.029-.416.322m-.6.163c.076-.007.141-.022.152-.08-.05.029-.1.054-.152.08m-.372.13c0,.047.372-.13.369-.127-.036-.123.17-.1.21-.112a1.779,1.779,0,0,0,.354-.2c-.116.051-.932.3-.932.434m-.632.1c.1-.011.274-.033.264-.126-.091.011-.272.033-.264.126m-2.556.77c1.066-.206.835.062,1.594-.484-.868.372-.827.033-1.594.484M798.338,231.2c.185-.021.275-.032.344-.224-.181.018-.362.04-.344.224m3.137-2.006c-.1.025.058.033.09.036l-.09-.036m11.674,45.08a30.368,30.368,0,0,0,.553-4.333c-.17,1.446-.362,2.892-.553,4.333m.556-4.569c0,.08,0,.159,0,.235.039-.358.047-.492,0-.235m2.772-48.788a.412.412,0,0,0,.539-.39,1.6,1.6,0,0,1-.539.39m2.645,53.179c-.047.257-.1.517-.137.774.072-.3.122-.6.184-.9-.014.043-.032.083-.047.126m.119-4.373a2.169,2.169,0,0,0-.047.633c.1-.033.051-.549.047-.633m-.069,4.236a6.923,6.923,0,0,0,.372-1.239c.127-1.153-.163.206-.372,1.239m.069-4.236a2.169,2.169,0,0,0-.047.633c.1-.033.051-.549.047-.633m7.93-40.548a.138.138,0,0,0-.177-.09.041.041,0,0,0-.021,0,.7.7,0,0,1-.014.163v0a.706.706,0,0,0-.015.228.081.081,0,0,0,.021.047h0a0,0,0,0,0,0,0c.01.007.033,0,.061-.014a.189.189,0,0,0,.019-.014c.014-.011.032-.029.054-.047,0,0,0-.007.007-.011a.269.269,0,0,0,.061-.217v-.018c0-.011,0-.026,0-.036m-.2.358v0h-.008a.388.388,0,0,0-.054.054c-.011.011-.018.018-.018.029a.037.037,0,0,0,0,.04c.018.022.072.007.083-.051a.1.1,0,0,0,0-.069m-7.731,40.19a2.169,2.169,0,0,0-.047.633c.1-.033.051-.549.047-.633m0,0a2.169,2.169,0,0,0-.047.633c.1-.033.051-.549.047-.633m6.09-54.209a.164.164,0,0,1,.091.133.137.137,0,0,0,.021-.04.089.089,0,0,0,.014-.047c.015-.058-.029-.073-.126-.047m-.1.618c-.112-.04-.091.065-.079.144a1.211,1.211,0,0,1,.047.343.04.04,0,0,0,.007-.022s0-.007,0-.014a1.667,1.667,0,0,0,.076-.315c.007-.069-.007-.119-.054-.137m-.549,1.666c.2.444-.033.708-.148,1.127-.018-.173-.181-.166-.228-.3-.083-.246.279-.069.257-.26-.242.113-.332-.072-.405-.263-.018-.043-.022-.148-.072-.173-.091-.04-.062.17-.05.191v0c-.012.112.061.076-.069.137-.09.043-.224-.025-.315,0-.434.13-.133.509-.1.77-.232.029-.243-.246-.38-.347-.163-.116-.452.148-.632.224a5.992,5.992,0,0,1-1.677.423c.014.13.134.379-.039.459-.116.051-.232-.058-.307-.123s-.149-.228-.275-.177c-.05.022-.17.267-.242.322-.463.329-1.172.08-1.461.694-.3-.473-1.138.394-1.095.77-.109-.293-.094-.831-.459-.875,0,.029.018.166.069.094-.022.13.122.152.159.268.076.238-.126.119-.267.206.029-.227-.357.213-.387.242a.739.739,0,0,1,.26-.068,1.425,1.425,0,0,1-.17.31c-.079-.029-.105-.144-.12-.213a.881.881,0,0,0-.231.343c-.195-.069.029-.217.094-.279.112-.112.115,0,.115-.188,0-.065-.094-.18-.026-.2-.072-.014-.1-.08-.177-.069.018.141.08.007.069.166a.523.523,0,0,1-.091.181c-.04.069-.173.35-.224.35-.183-.029-.1-.441-.369-.416-.1.011-.275.224-.387.275a.527.527,0,0,1-.267.043,1.569,1.569,0,0,0-.683.05c-.011-.108.112-.206.083-.3-.032-.116-.26-.011-.369.018s-.282.065-.322.184c-.033.094.058.156.069.271.036.343-.169.35-.434.412a9.093,9.093,0,0,0-1.1.38c.126.108-.028.2.214.253-.171.022-.242.213-.431.235a.439.439,0,0,0-.072-.43c-.029-.04-.156-.235-.181-.253-.224-.159-.441.3-.679.217-.427-.145.383-.593.527-.643.3-.112.651-.166.774-.5a.607.607,0,0,1-.752-.191c.1.213.061.459-.228.39.376-.31-.112-.477-.2-.263-.077.173.227.43-.148.4-.012-.083.079-.112.068-.2a.617.617,0,0,0-.463.575c-.029.257.278.318.228.557.238.036.4-.123.614-.13.185-.007.257.115.12.257-.051.05-.608.26-.239.394.1.036.419-.3.452-.126a1.532,1.532,0,0,1-.712.412c-.083-.029-.177-.314-.268-.419s-.322-.307-.495-.3c-.105,0-.163.011-.127.141.015.065.018.08.069.116s.191-.007.246.069c.1.137-.278.2-.39.249-.234.1-.458.22-.694.321a2.012,2.012,0,0,1-1.359.159c-.054.145.2.173.166.286s-.318.1-.394.108c.166-.213.05-.307-.156-.184a3.562,3.562,0,0,1-.65.383c-.217.076-.574.116-.657-.148-.062-.192.061-.242.158-.369.084.133.253.141.391.17.205.047.173.01.3-.163a1.763,1.763,0,0,1,.683-.542c.282-.144.582-.246.875-.365.1-.04.448-.256.539-.238s.087.267.206.253c-.057-.535.437-.593.85-.557.018-.592-.571.018-.669-.322-.061-.22.4-.448.557-.517a2.436,2.436,0,0,0,.864-.535c-.846-.318-1.587.8-2.49.459a.824.824,0,0,1-.047.437c-.083.155-.13.13-.307.152a4.848,4.848,0,0,0-.787.155,10.148,10.148,0,0,0-1.594.64c-.56.271-1.113.553-1.687.784l-.25.1-.071-.043a.339.339,0,0,0-.3.08c-.127.076-.242.148-.376.213,0,0-.318.152-.137.116-.05.025-.1.054-.148.083.235-.159-.173-.014-.246,0-.213.047-.151.036-.216.206.079-.025.159-.051.234-.08-.094.051-.187.1-.278.156.116-.163-.183-.011-.256.01a1.406,1.406,0,0,0-.354.148c-.116-.177.12-.282.239-.307a1.7,1.7,0,0,0,.3-.062c.13-.058.126-.011.115-.17a.879.879,0,0,1-.835-.036,1.1,1.1,0,0,0-.459-.065,1.888,1.888,0,0,1-.34.054c-.08,0-.163-.05-.246-.061a3.91,3.91,0,0,0-2.122.755,3.049,3.049,0,0,1-.965.4c-.2.029-.257-.014-.437.13-.221.18-.442.354-.665.531-.611.47-1.243.911-1.876,1.359-.344.242-.684.492-1.019.745-.181.134-.5.3-.586.492a2.561,2.561,0,0,0-.083.745,7.4,7.4,0,0,0,0,1.572.728.728,0,0,0,.087.336c.036.047.12.087.163.137a1.348,1.348,0,0,1,.238.535c.055.2.087.412.126.622a1.989,1.989,0,0,0,.062.329c.057.152.1.177.249.264a2.378,2.378,0,0,0,1.088.4c.767,0,.976-.842,1.443-1.276.213-.2.159.029.34.073s.148-.177.169-.289c.051-.239.242-.257.456-.369.289-.148.572-.307.849-.473a21.769,21.769,0,0,1,3.252-1.782c-.21-.033-.423-.069-.633-.1a8.914,8.914,0,0,1,1.486-.52,16.715,16.715,0,0,0,1.673-.589,10.5,10.5,0,0,0,1.623-1.171,13.144,13.144,0,0,1,2.8-1.276,43.355,43.355,0,0,0,4.63-2.158c-.094-.116-.173-.08-.289-.036s-.267.09-.376.137c-.126.054-.234.166-.369.22a2.068,2.068,0,0,1-.553.13c.231-.282.582-.268.9-.372.3-.1.582-.347.892-.466.336-.126.683-.227,1.019-.35a5.314,5.314,0,0,0,.528-.228.992.992,0,0,1,.234-.13c-.065.029-.151.181-.079.22.13.076.539-.148.669-.192.256-.09.509-.18.763-.271.936-.343,1.864-.709,2.812-1.008.274-.087.553-.17.828-.249a3.261,3.261,0,0,0,.762-.239,2.53,2.53,0,0,0,.437-.4.921.921,0,0,1,.586-.217,7.949,7.949,0,0,0,1.627-.26c.372-.123.762-.416,1.171-.3.058-.257.116-.517.173-.777.007-.036.018-.076.025-.112.08-.358.163-.716.242-1.073a.83.83,0,0,1-.336.383m-15.451,4.17c.366.054-.025.651-.3.586.069-.188.441-.141.3-.586m-.661.625c.022.185-.08.105-.159.2-.018-.184.08-.1.159-.2m-7.294,1.861c.073,0,.17-.014.286-.032-.055.05-.1.065-.286.032m2.8-.546c.014,0,.014,0,0,.011,0,0,0-.007,0-.011m-.134,1.225c.011.126.134.159.1.256s-.12.1-.2.116c-.1.022-.408-.036-.39.145-.141-.116,0-.286.105-.365a1.978,1.978,0,0,1,.279-.134c.05.015.086.007.1-.018a.063.063,0,0,0,.014-.04.192.192,0,0,1,.054-.1.4.4,0,0,1,.4-.029c.123.087-.021.206.094.3-.263.1-.34-.04-.56-.126m.618-.159c-.01-.087.08-.1.17-.109.012.09-.08.1-.17.109m.987-.109c-.058.007-.108-.076-.17-.087-.2-.036-.13.1-.235.144-.2.083-.343-.2-.264-.354.1.083.2.166.3.246.022-.108.17-.455.34-.38s.011.3.025.43m.141-.386c-.21-.326.354-.051.325-.315.2.08.214.243.235.438-.235-.123-.286-.228-.56-.123m1.316,1.24c-.008-.062-.015-.12-.023-.181.106-.011.358-.1.4.029.073.188-.278.141-.382.152m.7-.26c-.018-.184.072-.2.09-.011.01.09,0,0-.09.011m2.349-1.738c.012.094-.166.112-.256.123-.011-.094.17-.113.256-.123m-1.221,1.247a2.934,2.934,0,0,1,2.082-.882,8.454,8.454,0,0,1-2.082.882m4.33-2.7.365-.04c.119.264-.582.524-.365.04m1.272-.326c.091-.018.213-.2.239-.2.057.007.086.112.086.159-.109.014-.217.025-.326.04m3.6-1.012c-.022-.173.257-.133.234-.307.073-.007.213.184.192.231-.054.116-.329.065-.426.076m1.124-.5c-.022-.188.163-.293.325-.311.014.119.029.242.043.362-.126.014-.246-.065-.369-.051m2-.864c.151.054.281-.127.433-.144.014.123.025.246.039.369-.213.021-.444.05-.473-.224m2.71-.947c.1.08.2.163.267-.033.38.144-.4.509-.267.033m-.181,4.21c-.029.1-.054.2-.079.307.173-.549.336-1.146.5-1.775.026-.1.05-.2.076-.3.118-.5.234-.99.346-1.482q-.434,1.616-.839,3.246m.232.687a.092.092,0,0,0-.028-.033.218.218,0,0,0-.091-.054.328.328,0,0,0-.2-.011.429.429,0,0,0-.068.014c-.242.969-.473,1.945-.7,2.917.047-.166.1-.332.149-.5a10.578,10.578,0,0,1,.368-1.008c.029-.083.065-.163.1-.242a.867.867,0,0,1,.039-.09.746.746,0,0,1,.036-.069.126.126,0,0,1,.014-.029c.061-.12.138-.239.2-.358.007-.014.018-.029.029-.047a1.963,1.963,0,0,0,.13-.286.3.3,0,0,0,.032-.173.074.074,0,0,0-.018-.033m-1.861,7.832c.029.1.152.058.275.022-.09-.3-.185-.163-.275-.022m-2.812,38.365a2.169,2.169,0,0,0-.047.633c.1-.033.051-.549.047-.633m0,0a2.169,2.169,0,0,0-.047.633c.1-.033.051-.549.047-.633m0,0a2.169,2.169,0,0,0-.047.633c.1-.033.051-.549.047-.633m.994-48.575c-.018-.177.347-.126.34-.217-.278-.065-.617.159-.34.217m-1.923.676c-.021-.185.268-.029.246-.213-.187-.069-.524.156-.246.213m-1.135.4c.257-.116.347-.126.416-.322-.17.115-.546-.029-.416.322m-.6.163c.076-.007.141-.022.152-.08-.05.029-.1.054-.152.08m-.372.13c0,.047.372-.13.369-.127-.036-.123.17-.1.21-.112a1.779,1.779,0,0,0,.354-.2c-.116.051-.932.3-.932.434m-.632.1c.1-.011.274-.033.264-.126-.091.011-.272.033-.264.126m.126,37.606c.011.08-.083.076.062.076-.021-.025-.04-.05-.062-.076M813.015,223.4c1.066-.206.835.062,1.594-.484-.868.372-.827.033-1.594.484" transform="translate(-92.494 -35.49)" fill="#050605"/>
  </g>
</svg>
