<svg id="Group_18" data-name="Group 18" xmlns="http://www.w3.org/2000/svg" width="199.874" height="39.25" viewBox="0 0 199.874 39.25">
  <path id="Path_28" data-name="Path 28" d="M67.793,240.817l2.526-.4V217.054l-2.819-.366.147-2.526H85.294l-.44,7.066-3.515-.11-.22-4.43H75.665V227.2h2.38l.549-2.417,2.453.073v7.25H78.594l-.586-2.49h-2.38v11.131H81.12l.513-4.833,3.7.11.293,7.359H67.683Z" transform="translate(-67.5 -214.162)"/>
  <path id="Path_29" data-name="Path 29" d="M103.424,250.47l.11-2.16,1.977-.4V233.189l-2.307-.22v-2.2l5.785-.842.439,1.245v.842a6.953,6.953,0,0,1,5.236-2.343c3.149,0,5.492,1.9,5.492,5.675v12.521l2.087.4-.11,2.16h-6.847V236.447c0-2.013-.732-3.149-2.563-3.149a3.973,3.973,0,0,0-1.538.293,7.118,7.118,0,0,0-.842.952v13.4l2.087.4-.147,2.161h-8.861Z" transform="translate(-83.652 -221.18)"/>
  <path id="Path_30" data-name="Path 30" d="M305.482,250.47l.11-2.16,1.977-.4V233.189l-2.306-.22v-2.2l5.785-.842.439,1.245v.842a6.953,6.953,0,0,1,5.236-2.343c3.149,0,5.492,1.9,5.492,5.675v12.521l2.086.4-.109,2.16h-6.847V236.447c0-2.013-.732-3.149-2.563-3.149a3.971,3.971,0,0,0-1.537.293,7.123,7.123,0,0,0-.842.952v13.4l2.086.4-.146,2.161h-8.861Z" transform="translate(-175.063 -221.18)"/>
  <path id="Path_31" data-name="Path 31" d="M148.671,247.073a11.2,11.2,0,0,1-4.1.7c-2.453,0-4.723-1.1-4.723-4.686V230.158l-2.344-.366.11-2.563,2.636-.11,1.135-3.918,3.368-.146v4.21h3.625l-.257,2.563-3.332.366v12.888a1.58,1.58,0,0,0,1.684,1.758h1.977Z" transform="translate(-99.17 -218.185)"/>
  <path id="Path_32" data-name="Path 32" d="M407.98,250.652l.11-2.124,1.867-.439V233.37l-2.2-.22v-2.2l6-.842.4,1.428v.476a10.362,10.362,0,0,1,6.261-1.941l.879.769-.623,5.529-3.295-.11-.33-2.966a4.793,4.793,0,0,0-2.124.769v14.06l2.087.44-.146,2.124h-8.9Z" transform="translate(-221.434 -221.361)"/>
  <path id="Path_33" data-name="Path 33" d="M250.521,250.652l.11-2.124,1.867-.439V233.37l-2.2-.22v-2.2l6-.842.4,1.428v.476a10.362,10.362,0,0,1,6.261-1.941l.879.769-.623,5.529-3.295-.11-.33-2.966a4.793,4.793,0,0,0-2.124.769v14.06l2.087.44-.147,2.124h-8.9Z" transform="translate(-150.199 -221.361)"/>
  <path id="Path_34" data-name="Path 34" d="M160.391,250.652l.11-2.124,1.868-.439V233.37l-2.2-.22v-2.2l6-.842.4,1.428v.476a10.329,10.329,0,0,1,6.224-1.941l.879.769-.623,5.529-3.3-.11-.329-2.966a4.793,4.793,0,0,0-2.124.769v14.06l2.087.44-.147,2.124h-8.86Z" transform="translate(-109.424 -221.361)"/>
  <path id="Path_35" data-name="Path 35" d="M191.008,241.47c0,3.515,1.538,6.224,4.577,6.224a9.344,9.344,0,0,0,4.284-1.025l.842,1.941a10.2,10.2,0,0,1-6.444,2.123c-5.346,0-8.421-4.613-8.421-10.545,0-5.053,2.233-10.581,8.348-10.581,5.346,0,7.36,4.943,7.36,10.435l-.513,1.318Zm-.11-2.344,6.151-.293c-.11-2.453-.623-6.334-3.039-6.334a3.413,3.413,0,0,0-1.721.476A14.728,14.728,0,0,0,190.9,239.126Z" transform="translate(-121.04 -221.149)"/>
  <path id="Path_36" data-name="Path 36" d="M346.4,241.47c0,3.515,1.538,6.224,4.577,6.224a9.345,9.345,0,0,0,4.284-1.025l.842,1.941a10.2,10.2,0,0,1-6.444,2.123c-5.345,0-8.421-4.613-8.421-10.545,0-5.053,2.233-10.581,8.348-10.581,5.346,0,7.36,4.943,7.36,10.435l-.513,1.318Zm-.11-2.344,6.151-.293c-.11-2.453-.622-6.334-3.039-6.334a3.415,3.415,0,0,0-1.721.476A14.728,14.728,0,0,0,346.286,239.126Z" transform="translate(-191.337 -221.149)"/>
  <path id="Path_37" data-name="Path 37" d="M281.072,241.47c0,3.515,1.537,6.224,4.576,6.224a9.348,9.348,0,0,0,4.284-1.025l.842,1.941a10.2,10.2,0,0,1-6.444,2.123c-5.346,0-8.421-4.613-8.421-10.545,0-5.053,2.233-10.581,8.348-10.581,5.346,0,7.36,4.943,7.36,10.435l-.513,1.318ZM281,239.126l6.151-.293c-.11-2.453-.622-6.334-3.039-6.334a3.413,3.413,0,0,0-1.721.476A14.182,14.182,0,0,0,281,239.126Z" transform="translate(-161.784 -221.149)"/>
  <path id="Path_38" data-name="Path 38" d="M383.962,250.5l-.513-1.757a6.355,6.355,0,0,1-4.724,2.05c-3.149,0-5.968-1.574-5.968-5.932V232.67l-2.306-.22V230.51l6.664-.769.513,1.757V244.24c0,2.234.915,3.4,2.71,3.4a5.189,5.189,0,0,0,1.757-.293,6.863,6.863,0,0,0,.916-1.135V232.67l-2.38-.22V230.51l6.737-.769.513,1.757v16.4l2.087.4-.257,2.16h-5.748Z" transform="translate(-204.555 -221.21)"/>
  <path id="Path_39" data-name="Path 39" d="M224.64,247.8a5.22,5.22,0,0,1-2.563-.549V234.33a10.63,10.63,0,0,1,.952-1.208,5.178,5.178,0,0,1,1.831-.293c2.746,0,3.222,2.782,3.222,7.762,0,4.8-.732,6.115-.915,6.664A5.691,5.691,0,0,1,224.64,247.8Zm8.2-8.129c0-6.188-1.831-10.069-6.408-10.069a6.06,6.06,0,0,0-5.052,2.49v-.659l-.513-1.757-6.005.842v2.124l2.306.292v24.97l-1.977.4-.11,2.087h8.824l.146-2.087-2.087-.4V250a6.85,6.85,0,0,0,3.3.768C232.768,250.733,232.841,243.154,232.841,239.676Z" transform="translate(-134.167 -221.149)"/>
  <path id="Path_40" data-name="Path 40" d="M428.806,264.175a.923.923,0,0,1,.989.988.989.989,0,0,1-1.978,0A.922.922,0,0,1,428.806,264.175Zm0,1.721a.673.673,0,0,0,.7-.7.653.653,0,0,0-.7-.7.7.7,0,1,0,0,1.391Zm-.44-.256v-.147l.11-.037v-.623h-.11v-.147h.476c.22,0,.4.073.4.293a.244.244,0,0,1-.183.256.374.374,0,0,0,.183.22h.072v.146h-.256a1.28,1.28,0,0,1-.22-.329h-.073v.183l.11.037v.147Zm.366-.769v.256h.073c.11,0,.147-.036.147-.146s-.073-.147-.183-.147h-.037Z" transform="translate(-230.506 -236.788)"/>
</svg>
