<svg xmlns="http://www.w3.org/2000/svg" width="31.282" height="30" viewBox="0 0 31.282 30">
  <g id="home_5_" data-name="home (5)" transform="translate(0 -10.492)">
    <g id="Group_13" data-name="Group 13" transform="translate(0 10.492)">
      <path id="Path_10" data-name="Path 10" d="M30.927,24.3,18.195,11.479l-.05-.048a3.663,3.663,0,0,0-4.887-.01l-.051.048L.359,24.292a1.222,1.222,0,0,0,1.726,1.73l.97-.968V35.6a4.893,4.893,0,0,0,4.888,4.888h4.4a1.222,1.222,0,0,0,1.222-1.222V29.311h4.277V39.27a1.222,1.222,0,0,0,1.222,1.222h4.277A4.893,4.893,0,0,0,28.227,35.6a1.222,1.222,0,1,0-2.444,0,2.447,2.447,0,0,1-2.444,2.444H20.285V28.089a1.222,1.222,0,0,0-1.222-1.222H12.342a1.222,1.222,0,0,0-1.222,1.222v9.959H7.943A2.447,2.447,0,0,1,5.5,35.6V22.652q0-.018,0-.036L14.9,13.227a1.221,1.221,0,0,1,1.585,0l9.293,9.355v6.909a1.222,1.222,0,1,0,2.444,0V25.045l.966.972A1.222,1.222,0,0,0,30.927,24.3Z" transform="translate(0 -10.492)"/>
    </g>
  </g>
</svg>
