<svg xmlns="http://www.w3.org/2000/svg" width="103.584" height="100" viewBox="0 0 103.584 100">
  <g id="Group_333" data-name="Group 333" transform="translate(-113 -3101)">
    <path id="Path_51" data-name="Path 51" d="M884.836,191.768c-20.87,12.588-18.22,23.188-33.126,15.569s-40.745-14.244-30.476,23.188,43.4,90.1,83.81,33.126S905.706,179.18,884.836,191.768Z" transform="translate(-705.885 2912.24)" fill="#def4f9"/>
    <g id="group_1_" data-name="group (1)" transform="translate(141 3092.16)">
      <g id="Group_322" data-name="Group 322" transform="translate(36.701 60.435)">
        <g id="Group_321" data-name="Group 321" transform="translate(0 0)">
          <path id="Path_106" data-name="Path 106" d="M402.141,273.32h-3.647a9.486,9.486,0,0,1,.575,3.261v13.783a4.065,4.065,0,0,1-.234,1.361h6.029a4.089,4.089,0,0,0,4.084-4.084v-7.513A6.815,6.815,0,0,0,402.141,273.32Z" transform="translate(-398.494 -273.32)" fill="#22c6f9"/>
        </g>
      </g>
      <g id="Group_324" data-name="Group 324" transform="translate(0 60.435)">
        <g id="Group_323" data-name="Group 323">
          <path id="Path_107" data-name="Path 107" d="M9.879,276.582a9.486,9.486,0,0,1,.575-3.261H6.807A6.815,6.815,0,0,0,0,280.128v7.513a4.089,4.089,0,0,0,4.084,4.084h6.029a4.066,4.066,0,0,1-.234-1.362Z" transform="translate(0 -273.321)" fill="#22c6f9"/>
        </g>
      </g>
      <g id="Group_326" data-name="Group 326" transform="translate(12.602 56.889)">
        <g id="Group_325" data-name="Group 325">
          <path id="Path_108" data-name="Path 108" d="M151.973,234.815h-8.337a6.815,6.815,0,0,0-6.807,6.807V255.4a1.361,1.361,0,0,0,1.361,1.361h19.228a1.361,1.361,0,0,0,1.361-1.361V241.622A6.815,6.815,0,0,0,151.973,234.815Z" transform="translate(-136.829 -234.815)" fill="#22c6f9"/>
        </g>
      </g>
      <g id="Group_328" data-name="Group 328" transform="translate(15.391 38.84)">
        <g id="Group_327" data-name="Group 327">
          <path id="Path_109" data-name="Path 109" d="M175.3,38.84a8.185,8.185,0,1,0,8.186,8.186A8.2,8.2,0,0,0,175.3,38.84Z" transform="translate(-167.114 -38.84)" fill="#22c6f9"/>
        </g>
      </g>
      <g id="Group_330" data-name="Group 330" transform="translate(3.08 46.47)">
        <g id="Group_329" data-name="Group 329">
          <path id="Path_110" data-name="Path 110" d="M39.565,121.689a6.119,6.119,0,1,0,6.122,6.122A6.129,6.129,0,0,0,39.565,121.689Z" transform="translate(-33.443 -121.689)" fill="#22c6f9"/>
        </g>
      </g>
      <g id="Group_332" data-name="Group 332" transform="translate(31.83 46.47)">
        <g id="Group_331" data-name="Group 331">
          <path id="Path_111" data-name="Path 111" d="M351.729,121.689a6.122,6.122,0,1,0,6.122,6.122A6.129,6.129,0,0,0,351.729,121.689Z" transform="translate(-345.607 -121.689)" fill="#22c6f9"/>
        </g>
      </g>
    </g>
  </g>
</svg>
