<svg id="inc-2" xmlns="http://www.w3.org/2000/svg" width="87.04" height="30" viewBox="0 0 87.04 30">
  <path id="Path_25" data-name="Path 25" d="M1062.167,298.57a3.66,3.66,0,1,1-3.627-3.659A3.668,3.668,0,0,1,1062.167,298.57Z" transform="translate(-975.127 -272.627)" fill="#010101"/>
  <path id="Path_26" data-name="Path 26" d="M729.735,102.7l8.767-.907q-1.285-8.162-9.6-9.3c-8.313-1.134-13.452,2.721-14.813,4.686a11.644,11.644,0,0,0-2.192,6.877,10.716,10.716,0,0,0,2.494,6.8c.68.756,3.779,4.459,11.639,4.459s10.429-3.023,11.714-5.819a7.682,7.682,0,0,0,.756-2.947h-8.616a3.447,3.447,0,0,1-3.854,3.4c-3.477,0-3.93-3.25-3.779-5.895s-.076-6.122,3.628-6.273Q729.584,97.635,729.735,102.7Z" transform="translate(-658.091 -85.32)"/>
  <g id="Group_17" data-name="Group 17" transform="translate(0 0)">
    <path id="Path_27" data-name="Path 27" d="M54.8,23.316v6.225H39.121V23.1h2.961v-.192q0-3.282,0-6.564a2.842,2.842,0,0,0-.535-1.763,2.789,2.789,0,0,0-1.8-1.052,4.3,4.3,0,0,0-3.593.78,3.746,3.746,0,0,0-1.5,3c-.033,1.907-.008,3.815-.008,5.722,1.015.055,2.019.055,3.036.055v6.449H21.645V23.1h2.884V13.432H21.644V6.985H34.3V11.43c.188-.2.339-.35.474-.51a10.251,10.251,0,0,1,3.518-2.762,10.015,10.015,0,0,1,3.039-.85,15,15,0,0,1,5.318.242A7.661,7.661,0,0,1,50.1,9.275a6.019,6.019,0,0,1,1.9,3.45,10.607,10.607,0,0,1,.18,1.863c.019,2.749.008,5.5.008,8.248v.25H54.8ZM3.852,6.975H.025V.047h20.52V6.936H16.716V23.088h3.826v6.45H.029V23.1H3.852V6.975Z" transform="translate(-0.025 -0.047)" fill="#010101"/>
  </g>
</svg>
