<svg xmlns="http://www.w3.org/2000/svg" width="103.584" height="100" viewBox="0 0 103.584 100">
  <g id="Group_335" data-name="Group 335" transform="translate(-893 -3101)">
    <path id="Path_53" data-name="Path 53" d="M884.836,191.768c-20.87,12.588-18.22,23.188-33.126,15.569s-40.745-14.244-30.476,23.188,43.4,90.1,83.81,33.126S905.706,179.18,884.836,191.768Z" transform="translate(74.115 2912.24)" fill="#def4f9"/>
    <g id="office" transform="translate(920 3130)">
      <path id="Path_117" data-name="Path 117" d="M428.031,302H421v19.688h7.031a1.406,1.406,0,0,0,1.406-1.406V303.406A1.406,1.406,0,0,0,428.031,302Zm-2.812,14.063a1.406,1.406,0,1,1,1.406-1.406A1.406,1.406,0,0,1,425.219,316.063Zm0-5.625a1.406,1.406,0,1,1,1.406-1.406A1.406,1.406,0,0,1,425.219,310.438Z" transform="translate(-380.625 -273.688)" fill="#22c6f9"/>
      <path id="Path_118" data-name="Path 118" d="M1,303.406v16.875a1.406,1.406,0,0,0,1.406,1.406H9.438V302H2.406A1.406,1.406,0,0,0,1,303.406Zm4.219,4.219a1.406,1.406,0,1,1-1.406,1.406A1.406,1.406,0,0,1,5.219,307.625Zm0,5.625a1.406,1.406,0,1,1-1.406,1.406A1.406,1.406,0,0,1,5.219,313.25Z" transform="translate(0 -273.688)" fill="#22c6f9"/>
      <path id="Path_119" data-name="Path 119" d="M271,432h2.813v7.5H271Z" transform="translate(-244.688 -391.5)" fill="#22c6f9"/>
      <path id="Path_120" data-name="Path 120" d="M211,432h2.813v7.5H211Z" transform="translate(-190.313 -391.5)" fill="#22c6f9"/>
      <path id="Path_121" data-name="Path 121" d="M144.906,105.009h-3.189l-5.031-13.654a6.049,6.049,0,0,1-2.7.8l.4,1.078-1.971,1.41.917-2.488a6.049,6.049,0,0,1-2.7-.8L125.6,105.009h-3.189A1.406,1.406,0,0,0,121,106.415V130.79h5.625v-8.906a1.406,1.406,0,0,1,1.406-1.406h11.25a1.406,1.406,0,0,1,1.406,1.406v8.906h5.625V106.415A1.406,1.406,0,0,0,144.906,105.009Zm-9.516-9.038,2.108,5.721-5.442-3.336Zm-5.152,4.57,7.289,4.468h-8.936Zm-2.207,17.124a1.406,1.406,0,1,1,1.406-1.406A1.406,1.406,0,0,1,128.031,117.665Zm0-5.625a1.406,1.406,0,1,1,1.406-1.406A1.406,1.406,0,0,1,128.031,112.04Zm5.625,5.625a1.406,1.406,0,1,1,1.406-1.406A1.406,1.406,0,0,1,133.656,117.665Zm0-5.625a1.406,1.406,0,1,1,1.406-1.406A1.406,1.406,0,0,1,133.656,112.04Zm5.625,5.625a1.406,1.406,0,1,1,1.406-1.406A1.406,1.406,0,0,1,139.281,117.665Zm0-5.625a1.406,1.406,0,1,1,1.406-1.406A1.406,1.406,0,0,1,139.281,112.04Z" transform="translate(-108.75 -82.79)" fill="#22c6f9"/>
      <ellipse id="Ellipse_44" data-name="Ellipse 44" cx="3" cy="3.5" rx="3" ry="3.5" transform="translate(22)" fill="#22c6f9"/>
    </g>
  </g>
</svg>
