<svg xmlns="http://www.w3.org/2000/svg" width="119.578" height="30" viewBox="0 0 119.578 30">
  <path id="path2" d="M440.134,1637.39c0-3.5.06-6.761.241-9.779l-9.235,1.75v.845l.905.121a1.665,1.665,0,0,1,1.328.664,5.341,5.341,0,0,1,.543,1.932c.121,1.75.241,5.734.181,12.012,0,6.217-.06,10.141-.181,11.65a38.139,38.139,0,0,0,7.847,1.026c3.622,0,6.459-1.026,8.511-3.139a11.63,11.63,0,0,0,3.139-8.511,10.615,10.615,0,0,0-2.354-7.062,7.4,7.4,0,0,0-5.915-2.777A11.807,11.807,0,0,0,440.134,1637.39Zm.181,18.591c-.121-1.932-.241-7.726-.241-17.2a6.951,6.951,0,0,1,2.173-.3,3.807,3.807,0,0,1,3.441,2.233,11.2,11.2,0,0,1,1.268,5.614,15.493,15.493,0,0,1-1.449,7.062c-.966,1.871-2.173,2.837-3.682,2.837a11.237,11.237,0,0,0-1.509-.241Zm-43.823-27.767H372.347v1.207l1.268.121a3.208,3.208,0,0,1,2.052,1.086,5.61,5.61,0,0,1,.724,2.9,114.72,114.72,0,0,1,0,18.229,7.146,7.146,0,0,1-.724,2.9,2.751,2.751,0,0,1-2.052,1.086l-1.268.181v1.207H387.92v-1.207l-1.63-.121a2.959,2.959,0,0,1-2.052-1.087,5.61,5.61,0,0,1-.724-2.9c-.181-2.415-.3-5.191-.3-8.27l3.26.06c1.751.06,2.958,1.388,3.561,4.044h1.207v-9.839h-1.207c-.6,2.6-1.751,3.923-3.561,3.984l-3.26.06c0-5.432.121-9.3.3-11.65h4.769c3.38,0,5.674,2.173,7,6.519l1.449-.423Zm-2.837,18.592a11.6,11.6,0,0,0,2.656,7.787c1.751,2.052,4.346,3.018,7.606,3.018a10.146,10.146,0,0,0,7.847-3.139,10.869,10.869,0,0,0,2.837-7.787,11.6,11.6,0,0,0-2.656-7.787c-1.75-2.052-4.346-3.018-7.606-3.018a10.146,10.146,0,0,0-7.847,3.139A10.869,10.869,0,0,0,393.655,1646.806Zm13.461-6.881a18.24,18.24,0,0,1,1.026,6.821c0,6.4-1.328,9.537-3.924,9.537q-1.992,0-3.078-2.716a18.663,18.663,0,0,1-1.026-6.821c0-6.338,1.328-9.477,3.924-9.477C405.365,1637.208,406.391,1638.114,407.116,1639.925Zm51.006,14.668a10.284,10.284,0,0,0,7.545,3.018,10.156,10.156,0,0,0,4.95-1.147,9.086,9.086,0,0,0,3.38-2.716l-.6-.724a7.231,7.231,0,0,1-4.588,1.509,6.615,6.615,0,0,1-5.553-2.414,8.925,8.925,0,0,1-1.811-6.338H474.36a10.931,10.931,0,0,0-2.233-7.123,7.8,7.8,0,0,0-6.338-2.716,9.926,9.926,0,0,0-7.847,3.2,11.3,11.3,0,0,0-2.777,7.787A10.326,10.326,0,0,0,458.122,1654.593Zm4.467-15.151c.664-1.449,1.509-2.173,2.656-2.173,1.811,0,2.716,2.294,2.716,6.942l-6.4.121A12.618,12.618,0,0,1,462.589,1639.442Zm28.008-2.414a15.142,15.142,0,0,0-6.157-1.147,9.053,9.053,0,0,0-6.036,1.932,5.942,5.942,0,0,0-2.294,4.708,5.155,5.155,0,0,0,1.388,3.8,11.438,11.438,0,0,0,4.225,2.354,11.483,11.483,0,0,1,3.5,1.75,3,3,0,0,1,0,4.406,3.235,3.235,0,0,1-2.535.966c-2.656,0-4.648-1.932-6.036-5.795l-1.026.3.241,6.036a19.834,19.834,0,0,0,7.243,1.268,9.919,9.919,0,0,0,6.459-1.871,6.145,6.145,0,0,0,2.354-5.131,5.265,5.265,0,0,0-1.147-3.561,9.893,9.893,0,0,0-3.863-2.415,15.084,15.084,0,0,1-4.1-1.992,2.771,2.771,0,0,1-1.087-2.233,3.161,3.161,0,0,1,.785-2.233,2.565,2.565,0,0,1,2.052-.845c2.414,0,4.165,1.75,5.251,5.191l1.026-.3Zm-58.069-.543a6.045,6.045,0,0,0-2.777-.6,5.422,5.422,0,0,0-3.2,1.268,8.159,8.159,0,0,0-2.656,3.561l.06-4.829-9.175,1.811v.845l.905.06c1.147.121,1.811,1.026,1.932,2.656a65.809,65.809,0,0,1,0,11.952c-.121,1.63-.785,2.475-1.932,2.656l-.905.121v1.147h12.8v-1.147l-1.63-.121c-1.147-.121-1.811-1.026-1.932-2.656a61.665,61.665,0,0,1-.121-11.107,2.908,2.908,0,0,1,2.354-1.086,6.832,6.832,0,0,1,4.044,1.086Z" transform="translate(-372.347 -1627.611)"/>
</svg>
