<svg id="phone-call" xmlns="http://www.w3.org/2000/svg" width="30.089" height="30.089" viewBox="0 0 30.089 30.089">
  <g id="Group_282" data-name="Group 282">
    <path id="Path_91" data-name="Path 91" d="M27.714,19.811a17.175,17.175,0,0,1-5.4-.86,2.313,2.313,0,0,0-2.349.5l-3.416,2.58a19.08,19.08,0,0,1-8.491-8.49l2.51-3.335a2.4,2.4,0,0,0,.588-2.423,17.222,17.222,0,0,1-.863-5.4A2.378,2.378,0,0,0,7.918,0H2.375A2.378,2.378,0,0,0,0,2.375,27.746,27.746,0,0,0,27.714,30.089a2.378,2.378,0,0,0,2.375-2.375V22.187A2.378,2.378,0,0,0,27.714,19.811Zm.792,7.9a.793.793,0,0,1-.792.792A26.16,26.16,0,0,1,1.584,2.375a.793.793,0,0,1,.792-.792H7.918a.793.793,0,0,1,.792.792,18.8,18.8,0,0,0,.937,5.891.877.877,0,0,1-.272.9L6.493,12.986a.792.792,0,0,0-.073.836,20.778,20.778,0,0,0,9.847,9.847A.788.788,0,0,0,17.1,23.6L21,20.641a.794.794,0,0,1,.806-.188,18.788,18.788,0,0,0,5.9.942.793.793,0,0,1,.792.792v5.527Z"/>
  </g>
</svg>
