<svg xmlns="http://www.w3.org/2000/svg" width="245" height="464" viewBox="0 0 245 464">
  <path id="Subtraction_1" data-name="Subtraction 1" d="M270,519c-4.324,0-8.7-.12-13-.358V55.358c4.307-.238,8.681-.358,13-.358a233.71,233.71,0,0,1,46.756,4.713,230.73,230.73,0,0,1,82.957,34.909A232.678,232.678,0,0,1,483.769,196.7a230.832,230.832,0,0,1,13.518,43.549,234.261,234.261,0,0,1,0,93.512,230.728,230.728,0,0,1-34.909,82.957A232.677,232.677,0,0,1,360.3,500.769a230.826,230.826,0,0,1-43.549,13.518A233.706,233.706,0,0,1,270,519Z" transform="translate(-257 -55)" fill="#5bc9e0" opacity="0.15"/>
</svg>
