<svg xmlns="http://www.w3.org/2000/svg" width="250" height="10" viewBox="0 0 250 10">
  <path id="Union_5" data-name="Union 5" d="M240,5a5,5,0,1,1,5,5A5,5,0,0,1,240,5ZM220,5a5,5,0,1,1,5,5A5,5,0,0,1,220,5ZM200,5a5,5,0,1,1,5,5A5,5,0,0,1,200,5ZM180,5a5,5,0,1,1,5,5A5,5,0,0,1,180,5ZM160,5a5,5,0,1,1,5,5A5,5,0,0,1,160,5ZM140,5a5,5,0,1,1,5,5A5,5,0,0,1,140,5ZM120,5a5,5,0,1,1,5,5A5,5,0,0,1,120,5ZM100,5a5,5,0,1,1,5,5A5,5,0,0,1,100,5ZM80,5a5,5,0,1,1,5,5A5,5,0,0,1,80,5ZM60,5a5,5,0,1,1,5,5A5,5,0,0,1,60,5ZM40,5a5,5,0,1,1,5,5A5,5,0,0,1,40,5ZM20,5a5,5,0,1,1,5,5A5,5,0,0,1,20,5ZM0,5a5,5,0,1,1,5,5A5,5,0,0,1,0,5Z" fill="#def4f9"/>
</svg>
