<svg xmlns="http://www.w3.org/2000/svg" width="31.001" height="30" viewBox="0 0 31.001 30">
  <g id="Union_6" data-name="Union 6" transform="translate(1436 -52)" fill="none">
    <path d="M-1414,82a5,5,0,0,1-5-5V73a5,5,0,0,1,5-5h4a5,5,0,0,1,5,5v4a5,5,0,0,1-5,5Zm-17,0a5,5,0,0,1-5-5V73a5,5,0,0,1,5-5h4a5,5,0,0,1,5,5v4a5,5,0,0,1-5,5Zm17-16a5,5,0,0,1-5-5V57a5,5,0,0,1,5-5h4a5,5,0,0,1,5,5v4a5,5,0,0,1-5,5Zm-17,0a5,5,0,0,1-5-5V57a5,5,0,0,1,5-5h4a5,5,0,0,1,5,5v4a5,5,0,0,1-5,5Z" stroke="none"/>
    <path d="M -1410.000366210938 79.99990081787109 C -1408.345825195312 79.99990081787109 -1406.999877929688 78.65433502197266 -1406.999877929688 77.00040435791016 L -1406.999877929688 72.99990081787109 C -1406.999877929688 71.34597015380859 -1408.345825195312 70.00040435791016 -1410.000366210938 70.00040435791016 L -1413.999877929688 70.00040435791016 C -1415.654296875 70.00040435791016 -1417.000366210938 71.34597015380859 -1417.000366210938 72.99990081787109 L -1417.000366210938 77.00040435791016 C -1417.000366210938 78.65433502197266 -1415.654296875 79.99990081787109 -1413.999877929688 79.99990081787109 L -1410.000366210938 79.99990081787109 M -1427.00048828125 79.99990081787109 C -1425.346069335938 79.99990081787109 -1424 78.65433502197266 -1424 77.00040435791016 L -1424 72.99990081787109 C -1424 71.34597015380859 -1425.346069335938 70.00040435791016 -1427.00048828125 70.00040435791016 L -1431 70.00040435791016 C -1432.654418945312 70.00040435791016 -1434.00048828125 71.34597015380859 -1434.00048828125 72.99990081787109 L -1434.00048828125 77.00040435791016 C -1434.00048828125 78.65433502197266 -1432.654418945312 79.99990081787109 -1431 79.99990081787109 L -1427.00048828125 79.99990081787109 M -1410.000366210938 63.99970245361328 C -1408.345825195312 63.99970245361328 -1406.999877929688 62.65413284301758 -1406.999877929688 61.00020217895508 L -1406.999877929688 56.99970245361328 C -1406.999877929688 55.34577178955078 -1408.345825195312 54.00020217895508 -1410.000366210938 54.00020217895508 L -1413.999877929688 54.00020217895508 C -1415.654296875 54.00020217895508 -1417.000366210938 55.34577178955078 -1417.000366210938 56.99970245361328 L -1417.000366210938 61.00020217895508 C -1417.000366210938 62.65413284301758 -1415.654296875 63.99970245361328 -1413.999877929688 63.99970245361328 L -1410.000366210938 63.99970245361328 M -1427.00048828125 63.99970245361328 C -1425.346069335938 63.99970245361328 -1424 62.65413284301758 -1424 61.00020217895508 L -1424 56.99970245361328 C -1424 55.34577178955078 -1425.346069335938 54.00020217895508 -1427.00048828125 54.00020217895508 L -1431 54.00020217895508 C -1432.654418945312 54.00020217895508 -1434.00048828125 55.34577178955078 -1434.00048828125 56.99970245361328 L -1434.00048828125 61.00020217895508 C -1434.00048828125 62.65413284301758 -1432.654418945312 63.99970245361328 -1431 63.99970245361328 L -1427.00048828125 63.99970245361328 M -1410.000366210938 81.99990081787109 L -1413.999877929688 81.99990081787109 C -1416.761108398438 81.99990081787109 -1419.000366210938 79.76160430908203 -1419.000366210938 77.00040435791016 L -1419.000366210938 72.99990081787109 C -1419.000366210938 70.23870086669922 -1416.761108398438 68.00040435791016 -1413.999877929688 68.00040435791016 L -1410.000366210938 68.00040435791016 C -1407.23828125 68.00040435791016 -1404.999877929688 70.23870086669922 -1404.999877929688 72.99990081787109 L -1404.999877929688 77.00040435791016 C -1404.999877929688 79.76160430908203 -1407.23828125 81.99990081787109 -1410.000366210938 81.99990081787109 Z M -1427.00048828125 81.99990081787109 L -1431 81.99990081787109 C -1433.76123046875 81.99990081787109 -1436.00048828125 79.76160430908203 -1436.00048828125 77.00040435791016 L -1436.00048828125 72.99990081787109 C -1436.00048828125 70.23870086669922 -1433.76123046875 68.00040435791016 -1431 68.00040435791016 L -1427.00048828125 68.00040435791016 C -1424.23828125 68.00040435791016 -1422 70.23870086669922 -1422 72.99990081787109 L -1422 77.00040435791016 C -1422 79.76160430908203 -1424.23828125 81.99990081787109 -1427.00048828125 81.99990081787109 Z M -1410.000366210938 65.99970245361328 L -1413.999877929688 65.99970245361328 C -1416.761108398438 65.99970245361328 -1419.000366210938 63.76140213012695 -1419.000366210938 61.00020217895508 L -1419.000366210938 56.99970245361328 C -1419.000366210938 54.23850250244141 -1416.761108398438 52.00020217895508 -1413.999877929688 52.00020217895508 L -1410.000366210938 52.00020217895508 C -1407.23828125 52.00020217895508 -1404.999877929688 54.23850250244141 -1404.999877929688 56.99970245361328 L -1404.999877929688 61.00020217895508 C -1404.999877929688 63.76140213012695 -1407.23828125 65.99970245361328 -1410.000366210938 65.99970245361328 Z M -1427.00048828125 65.99970245361328 L -1431 65.99970245361328 C -1433.76123046875 65.99970245361328 -1436.00048828125 63.76140213012695 -1436.00048828125 61.00020217895508 L -1436.00048828125 56.99970245361328 C -1436.00048828125 54.23850250244141 -1433.76123046875 52.00020217895508 -1431 52.00020217895508 L -1427.00048828125 52.00020217895508 C -1424.23828125 52.00020217895508 -1422 54.23850250244141 -1422 56.99970245361328 L -1422 61.00020217895508 C -1422 63.76140213012695 -1424.23828125 65.99970245361328 -1427.00048828125 65.99970245361328 Z" stroke="none" fill="#000"/>
  </g>
</svg>
